<svg width="40" height="46" viewBox="0 0 40 46" fill="none" xmlns="http://www.w3.org/2000/svg">
<circle cx="20" cy="26" r="18.5" stroke="#E6E6E6" stroke-width="3" stroke-dasharray="4 4"/>
<circle cx="20" cy="26" r="18.5" stroke="url(#paint0_linear_773_1344)" stroke-width="3"/>
<circle cx="20" cy="26" r="17" fill="#FAFAFA"/>
<path d="M18.2891 26.7109L16.7891 26.3438L17.4062 20.625H23.5391V22.2188H18.9688L18.6562 25.0078C18.8333 24.9036 19.0781 24.8021 19.3906 24.7031C19.7031 24.599 20.0599 24.5469 20.4609 24.5469C20.9974 24.5469 21.4766 24.6354 21.8984 24.8125C22.3255 24.9844 22.6875 25.237 22.9844 25.5703C23.2812 25.8984 23.5078 26.2995 23.6641 26.7734C23.8203 27.2422 23.8984 27.7708 23.8984 28.3594C23.8984 28.8854 23.8203 29.3776 23.6641 29.8359C23.513 30.2943 23.2839 30.6979 22.9766 31.0469C22.6693 31.3958 22.2812 31.6693 21.8125 31.8672C21.349 32.0599 20.7995 32.1562 20.1641 32.1562C19.6901 32.1562 19.2344 32.0885 18.7969 31.9531C18.3646 31.8125 17.9766 31.6068 17.6328 31.3359C17.2891 31.0599 17.013 30.7214 16.8047 30.3203C16.5964 29.9141 16.4766 29.4479 16.4453 28.9219H18.2891C18.3359 29.2917 18.4375 29.6068 18.5938 29.8672C18.7552 30.1224 18.9688 30.3177 19.2344 30.4531C19.5 30.5885 19.8073 30.6562 20.1562 30.6562C20.474 30.6562 20.7474 30.6016 20.9766 30.4922C21.2057 30.3776 21.3958 30.2161 21.5469 30.0078C21.7031 29.7943 21.8177 29.5443 21.8906 29.2578C21.9688 28.9714 22.0078 28.6536 22.0078 28.3047C22.0078 27.9714 21.9635 27.6667 21.875 27.3906C21.7917 27.1146 21.6641 26.875 21.4922 26.6719C21.3255 26.4688 21.1146 26.3125 20.8594 26.2031C20.6042 26.0885 20.3099 26.0312 19.9766 26.0312C19.5286 26.0312 19.1849 26.0964 18.9453 26.2266C18.7109 26.3568 18.4922 26.5182 18.2891 26.7109Z" fill="black"/>
<path d="M22.1797 4.03906L25.5312 4.53125C25.8125 4.57812 26.0469 4.76562 26.1406 5.04688C26.2344 5.30469 26.1641 5.60938 25.9531 5.79688L23.5156 8.21094L24.1016 11.6328C24.1484 11.9141 24.0312 12.1953 23.7969 12.3594C23.5625 12.5469 23.2578 12.5469 23 12.4297L20 10.8125L16.9766 12.4297C16.7422 12.5469 16.4141 12.5469 16.2031 12.3594C15.9688 12.1953 15.8516 11.9141 15.8984 11.6328L16.4609 8.21094L14.0234 5.79688C13.8125 5.60938 13.7422 5.30469 13.8359 5.04688C13.9297 4.76562 14.1641 4.57812 14.4453 4.53125L17.8203 4.03906L19.3203 0.921875C19.4375 0.664062 19.6953 0.5 20 0.5C20.2812 0.5 20.5391 0.664062 20.6562 0.921875L22.1797 4.03906Z" fill="#FF991F"/>
<defs>
<linearGradient id="paint0_linear_773_1344" x1="40" y1="26" x2="2.4" y2="26" gradientUnits="userSpaceOnUse">
<stop stop-color="#FFC887"/>
<stop offset="1" stop-color="#FFF1E0"/>
</linearGradient>
</defs>
</svg>
