<svg width="40" height="41" viewBox="0 0 40 41" fill="none" xmlns="http://www.w3.org/2000/svg">
<circle cx="20" cy="20" r="18.5" stroke="#E6E6E6" stroke-width="3" stroke-dasharray="4 4"/>
<mask id="path-2-inside-1_773_1343" fill="white">
<path d="M20 -8.74228e-07C15.7764 -6.89609e-07 11.6612 1.3371 8.24429 3.81966C4.82734 6.30222 2.28403 9.80279 0.978868 13.8197C-0.326291 17.8365 -0.326291 22.1635 0.978869 26.1803C2.28403 30.1972 4.82734 33.6978 8.2443 36.1803L20 20L20 -8.74228e-07Z"/>
</mask>
<path d="M20 -8.74228e-07C15.7764 -6.89609e-07 11.6612 1.3371 8.24429 3.81966C4.82734 6.30222 2.28403 9.80279 0.978868 13.8197C-0.326291 17.8365 -0.326291 22.1635 0.978869 26.1803C2.28403 30.1972 4.82734 33.6978 8.2443 36.1803L20 20L20 -8.74228e-07Z" stroke="url(#paint0_linear_773_1343)" stroke-width="6" mask="url(#path-2-inside-1_773_1343)"/>
<circle cx="20" cy="20" r="17" fill="#FAFAFA"/>
<path d="M23.9375 24.5V26H16.3125V24.7109L20.0156 20.6719C20.4219 20.2135 20.7422 19.8177 20.9766 19.4844C21.2109 19.151 21.375 18.8516 21.4688 18.5859C21.5677 18.3151 21.6172 18.0521 21.6172 17.7969C21.6172 17.4375 21.5495 17.1224 21.4141 16.8516C21.2839 16.5755 21.0911 16.3594 20.8359 16.2031C20.5807 16.0417 20.2708 15.9609 19.9062 15.9609C19.4844 15.9609 19.1302 16.0521 18.8438 16.2344C18.5573 16.4167 18.3411 16.6693 18.1953 16.9922C18.0495 17.3099 17.9766 17.6745 17.9766 18.0859H16.0938C16.0938 17.4245 16.2448 16.8203 16.5469 16.2734C16.849 15.7214 17.2865 15.2839 17.8594 14.9609C18.4323 14.6328 19.1224 14.4688 19.9297 14.4688C20.6901 14.4688 21.3359 14.5964 21.8672 14.8516C22.3984 15.1068 22.8021 15.4688 23.0781 15.9375C23.3594 16.4062 23.5 16.9609 23.5 17.6016C23.5 17.9557 23.4427 18.3073 23.3281 18.6562C23.2135 19.0052 23.0495 19.3542 22.8359 19.7031C22.6276 20.0469 22.3802 20.3932 22.0938 20.7422C21.8073 21.0859 21.4922 21.4349 21.1484 21.7891L18.6875 24.5H23.9375Z" fill="black"/>
<path d="M11.1797 32.0391L14.5312 32.5312C14.8125 32.5781 15.0469 32.7656 15.1406 33.0469C15.2344 33.3047 15.1641 33.6094 14.9531 33.7969L12.5156 36.2109L13.1016 39.6328C13.1484 39.9141 13.0312 40.1953 12.7969 40.3594C12.5625 40.5469 12.2578 40.5469 12 40.4297L9 38.8125L5.97656 40.4297C5.74219 40.5469 5.41406 40.5469 5.20312 40.3594C4.96875 40.1953 4.85156 39.9141 4.89844 39.6328L5.46094 36.2109L3.02344 33.7969C2.8125 33.6094 2.74219 33.3047 2.83594 33.0469C2.92969 32.7656 3.16406 32.5781 3.44531 32.5312L6.82031 32.0391L8.32031 28.9219C8.4375 28.6641 8.69531 28.5 9 28.5C9.28125 28.5 9.53906 28.6641 9.65625 28.9219L11.1797 32.0391Z" fill="#FF991F"/>
<defs>
<linearGradient id="paint0_linear_773_1343" x1="6.5" y1="35.5" x2="20" y2="-6.95651e-08" gradientUnits="userSpaceOnUse">
<stop stop-color="#FFC887"/>
<stop offset="1" stop-color="#FFF1E0"/>
</linearGradient>
</defs>
</svg>
