<svg width="43" height="40" viewBox="0 0 43 40" fill="none" xmlns="http://www.w3.org/2000/svg">
<circle cx="23" cy="20" r="18.5" stroke="#E6E6E6" stroke-width="3" stroke-dasharray="4 4"/>
<mask id="path-2-inside-1_773_1341" fill="white">
<path d="M23 -8.74228e-07C18.7764 -6.89609e-07 14.6612 1.3371 11.2443 3.81966C7.82734 6.30222 5.28403 9.80279 3.97887 13.8197L23 20L23 -8.74228e-07Z"/>
</mask>
<path d="M23 -8.74228e-07C18.7764 -6.89609e-07 14.6612 1.3371 11.2443 3.81966C7.82734 6.30222 5.28403 9.80279 3.97887 13.8197L23 20L23 -8.74228e-07Z" stroke="url(#paint0_linear_773_1341)" stroke-width="6" mask="url(#path-2-inside-1_773_1341)"/>
<circle cx="23" cy="20" r="17" fill="#FAFAFA"/>
<path d="M24.4531 14.5859V26H22.5703V16.8203L19.7812 17.7656V16.2109L24.2266 14.5859H24.4531Z" fill="black"/>
<path d="M9.17969 9.03906L12.5312 9.53125C12.8125 9.57812 13.0469 9.76562 13.1406 10.0469C13.2344 10.3047 13.1641 10.6094 12.9531 10.7969L10.5156 13.2109L11.1016 16.6328C11.1484 16.9141 11.0312 17.1953 10.7969 17.3594C10.5625 17.5469 10.2578 17.5469 10 17.4297L7 15.8125L3.97656 17.4297C3.74219 17.5469 3.41406 17.5469 3.20312 17.3594C2.96875 17.1953 2.85156 16.9141 2.89844 16.6328L3.46094 13.2109L1.02344 10.7969C0.8125 10.6094 0.742188 10.3047 0.835938 10.0469C0.929688 9.76562 1.16406 9.57812 1.44531 9.53125L4.82031 9.03906L6.32031 5.92188C6.4375 5.66406 6.69531 5.5 7 5.5C7.28125 5.5 7.53906 5.66406 7.65625 5.92188L9.17969 9.03906Z" fill="#FF991F"/>
<defs>
<linearGradient id="paint0_linear_773_1341" x1="4.5" y1="13.5" x2="23" y2="-8.74228e-07" gradientUnits="userSpaceOnUse">
<stop stop-color="#FFC887"/>
<stop offset="1" stop-color="#FFF1E0"/>
</linearGradient>
</defs>
</svg>
