<svg width="45" height="40" viewBox="0 0 45 40" fill="none" xmlns="http://www.w3.org/2000/svg">
<circle cx="20" cy="20" r="18.5" stroke="#E6E6E6" stroke-width="3" stroke-dasharray="4 4"/>
<mask id="path-2-inside-1_773_1342" fill="white">
<path d="M37.3205 30C35.5237 33.112 32.9217 35.6825 29.788 37.4411C26.6543 39.1998 23.1046 40.0817 19.5122 39.994C15.9198 39.9064 12.4174 38.8525 9.37315 36.9432C6.32891 35.0338 3.85533 32.3395 2.21247 29.1436C0.569605 25.9476 -0.181848 22.3681 0.0371144 18.7813C0.256077 15.1945 1.43736 11.733 3.45678 8.76061C5.4762 5.78824 8.25915 3.41486 11.513 1.88998C14.7669 0.36511 18.3716 -0.254922 21.9479 0.0950811L20 20L37.3205 30Z"/>
</mask>
<path d="M37.3205 30C35.5237 33.112 32.9217 35.6825 29.788 37.4411C26.6543 39.1998 23.1046 40.0817 19.5122 39.994C15.9198 39.9064 12.4174 38.8525 9.37315 36.9432C6.32891 35.0338 3.85533 32.3395 2.21247 29.1436C0.569605 25.9476 -0.181848 22.3681 0.0371144 18.7813C0.256077 15.1945 1.43736 11.733 3.45678 8.76061C5.4762 5.78824 8.25915 3.41486 11.513 1.88998C14.7669 0.36511 18.3716 -0.254922 21.9479 0.0950811L20 20L37.3205 30Z" stroke="url(#paint0_linear_773_1342)" stroke-width="6" mask="url(#path-2-inside-1_773_1342)"/>
<mask id="path-3-inside-2_773_1342" fill="white">
<path d="M20 -8.74228e-07C15.7764 -6.89609e-07 11.6612 1.3371 8.24429 3.81966C4.82734 6.30222 2.28403 9.80279 0.978868 13.8197C-0.326291 17.8365 -0.326291 22.1635 0.978869 26.1803C2.28403 30.1972 4.82734 33.6978 8.2443 36.1803C11.6612 38.6629 15.7764 40 20 40C24.2236 40 28.3388 38.6629 31.7557 36.1803C35.1727 33.6978 37.716 30.1972 39.0211 26.1803C40.3263 22.1635 40.3263 17.8365 39.0211 13.8197L20 20L20 -8.74228e-07Z"/>
</mask>
<path d="M20 -8.74228e-07C15.7764 -6.89609e-07 11.6612 1.3371 8.24429 3.81966C4.82734 6.30222 2.28403 9.80279 0.978868 13.8197C-0.326291 17.8365 -0.326291 22.1635 0.978869 26.1803C2.28403 30.1972 4.82734 33.6978 8.2443 36.1803C11.6612 38.6629 15.7764 40 20 40C24.2236 40 28.3388 38.6629 31.7557 36.1803C35.1727 33.6978 37.716 30.1972 39.0211 26.1803C40.3263 22.1635 40.3263 17.8365 39.0211 13.8197L20 20L20 -8.74228e-07Z" stroke="url(#paint1_linear_773_1342)" stroke-width="6" mask="url(#path-3-inside-2_773_1342)"/>
<circle cx="20" cy="20" r="17" fill="#FAFAFA"/>
<path d="M24.1484 21.9453V23.4453H15.9453L15.8828 22.3125L20.7891 14.625H22.2969L20.6641 17.4219L17.8438 21.9453H24.1484ZM22.7266 14.625V26H20.8438V14.625H22.7266Z" fill="black"/>
<path d="M40.1797 12.0391L43.5312 12.5312C43.8125 12.5781 44.0469 12.7656 44.1406 13.0469C44.2344 13.3047 44.1641 13.6094 43.9531 13.7969L41.5156 16.2109L42.1016 19.6328C42.1484 19.9141 42.0312 20.1953 41.7969 20.3594C41.5625 20.5469 41.2578 20.5469 41 20.4297L38 18.8125L34.9766 20.4297C34.7422 20.5469 34.4141 20.5469 34.2031 20.3594C33.9688 20.1953 33.8516 19.9141 33.8984 19.6328L34.4609 16.2109L32.0234 13.7969C31.8125 13.6094 31.7422 13.3047 31.8359 13.0469C31.9297 12.7656 32.1641 12.5781 32.4453 12.5312L35.8203 12.0391L37.3203 8.92188C37.4375 8.66406 37.6953 8.5 38 8.5C38.2812 8.5 38.5391 8.66406 38.6562 8.92188L40.1797 12.0391Z" fill="#FF991F"/>
<defs>
<linearGradient id="paint0_linear_773_1342" x1="37.3205" y1="30" x2="4.75791" y2="11.2" gradientUnits="userSpaceOnUse">
<stop stop-color="#FFC887"/>
<stop offset="1" stop-color="#FFF1E0"/>
</linearGradient>
<linearGradient id="paint1_linear_773_1342" x1="38.5" y1="15" x2="20" y2="9.13912e-07" gradientUnits="userSpaceOnUse">
<stop stop-color="#FFC887"/>
<stop offset="1" stop-color="#FFF1E0"/>
</linearGradient>
</defs>
</svg>
