<svg width="40" height="40" viewBox="0 0 40 40" fill="none" xmlns="http://www.w3.org/2000/svg">
<circle cx="20" cy="20" r="18.5" stroke="#E6E6E6" stroke-width="3" stroke-dasharray="4 4"/>
<mask id="path-2-inside-1_773_1340" fill="white">
<path d="M20 -8.74228e-07C16.8438 -7.36266e-07 13.7324 0.746982 10.9202 2.17987C8.10799 3.61276 5.67483 5.69087 3.81966 8.24429C1.96449 10.7977 0.739972 13.754 0.246232 16.8713C-0.247507 19.9887 0.00354717 23.1786 0.978869 26.1803C1.95419 29.1821 3.62609 31.9104 5.85787 34.1421C8.08964 36.3739 10.8179 38.0458 13.8197 39.0211C16.8214 39.9965 20.0113 40.2475 23.1287 39.7538C26.246 39.26 29.2023 38.0355 31.7557 36.1803L20 20L20 -8.74228e-07Z"/>
</mask>
<path d="M20 -8.74228e-07C16.8438 -7.36266e-07 13.7324 0.746982 10.9202 2.17987C8.10799 3.61276 5.67483 5.69087 3.81966 8.24429C1.96449 10.7977 0.739972 13.754 0.246232 16.8713C-0.247507 19.9887 0.00354717 23.1786 0.978869 26.1803C1.95419 29.1821 3.62609 31.9104 5.85787 34.1421C8.08964 36.3739 10.8179 38.0458 13.8197 39.0211C16.8214 39.9965 20.0113 40.2475 23.1287 39.7538C26.246 39.26 29.2023 38.0355 31.7557 36.1803L20 20L20 -8.74228e-07Z" stroke="url(#paint0_linear_773_1340)" stroke-width="6" mask="url(#path-2-inside-1_773_1340)"/>
<circle cx="20" cy="20" r="17" fill="#FAFAFA"/>
<path d="M18.5234 19.4609H19.6484C20.0859 19.4609 20.4479 19.3854 20.7344 19.2344C21.026 19.0833 21.2422 18.875 21.3828 18.6094C21.5234 18.3438 21.5938 18.0391 21.5938 17.6953C21.5938 17.3359 21.5286 17.0286 21.3984 16.7734C21.2734 16.513 21.0807 16.3125 20.8203 16.1719C20.5651 16.0312 20.2396 15.9609 19.8438 15.9609C19.5104 15.9609 19.2083 16.0286 18.9375 16.1641C18.6719 16.2943 18.4609 16.4818 18.3047 16.7266C18.1484 16.9661 18.0703 17.2526 18.0703 17.5859H16.1797C16.1797 16.9818 16.3385 16.4453 16.6562 15.9766C16.974 15.5078 17.4062 15.1406 17.9531 14.875C18.5052 14.6042 19.125 14.4688 19.8125 14.4688C20.5469 14.4688 21.1875 14.5911 21.7344 14.8359C22.2865 15.0755 22.7161 15.4349 23.0234 15.9141C23.3307 16.3932 23.4844 16.987 23.4844 17.6953C23.4844 18.0182 23.4089 18.3464 23.2578 18.6797C23.1068 19.013 22.8828 19.3177 22.5859 19.5938C22.2891 19.8646 21.9193 20.0859 21.4766 20.2578C21.0339 20.4245 20.5208 20.5078 19.9375 20.5078H18.5234V19.4609ZM18.5234 20.9297V19.8984H19.9375C20.6042 19.8984 21.1719 19.9766 21.6406 20.1328C22.1146 20.2891 22.5 20.5052 22.7969 20.7812C23.0938 21.0521 23.3099 21.362 23.4453 21.7109C23.5859 22.0599 23.6562 22.4297 23.6562 22.8203C23.6562 23.3516 23.5599 23.8255 23.3672 24.2422C23.1797 24.6536 22.9115 25.0026 22.5625 25.2891C22.2135 25.5755 21.8047 25.7917 21.3359 25.9375C20.8724 26.0833 20.3672 26.1562 19.8203 26.1562C19.3307 26.1562 18.862 26.0885 18.4141 25.9531C17.9661 25.8177 17.5651 25.6172 17.2109 25.3516C16.8568 25.0807 16.5755 24.7448 16.3672 24.3438C16.1641 23.9375 16.0625 23.4688 16.0625 22.9375H17.9453C17.9453 23.276 18.0234 23.5755 18.1797 23.8359C18.3411 24.0911 18.5651 24.2917 18.8516 24.4375C19.1432 24.5833 19.4766 24.6562 19.8516 24.6562C20.2474 24.6562 20.5885 24.5859 20.875 24.4453C21.1615 24.3047 21.3802 24.0964 21.5312 23.8203C21.6875 23.5443 21.7656 23.2109 21.7656 22.8203C21.7656 22.3776 21.6797 22.0182 21.5078 21.7422C21.3359 21.4661 21.0911 21.263 20.7734 21.1328C20.4557 20.9974 20.0807 20.9297 19.6484 20.9297H18.5234Z" fill="black"/>
<path d="M35.1797 31.0391L38.5312 31.5312C38.8125 31.5781 39.0469 31.7656 39.1406 32.0469C39.2344 32.3047 39.1641 32.6094 38.9531 32.7969L36.5156 35.2109L37.1016 38.6328C37.1484 38.9141 37.0312 39.1953 36.7969 39.3594C36.5625 39.5469 36.2578 39.5469 36 39.4297L33 37.8125L29.9766 39.4297C29.7422 39.5469 29.4141 39.5469 29.2031 39.3594C28.9688 39.1953 28.8516 38.9141 28.8984 38.6328L29.4609 35.2109L27.0234 32.7969C26.8125 32.6094 26.7422 32.3047 26.8359 32.0469C26.9297 31.7656 27.1641 31.5781 27.4453 31.5312L30.8203 31.0391L32.3203 27.9219C32.4375 27.6641 32.6953 27.5 33 27.5C33.2812 27.5 33.5391 27.6641 33.6562 27.9219L35.1797 31.0391Z" fill="#FF991F"/>
<defs>
<linearGradient id="paint0_linear_773_1340" x1="30.5" y1="35" x2="20" y2="-7.17766e-07" gradientUnits="userSpaceOnUse">
<stop stop-color="#FFC887"/>
<stop offset="1" stop-color="#FFF1E0"/>
</linearGradient>
</defs>
</svg>
