<svg width="727" height="537" viewBox="0 0 727 537" fill="none" xmlns="http://www.w3.org/2000/svg">
<path d="M654.075 499.376H605.924V499.74H654.075V499.376Z" fill="#EBEBEB" style="fill:#EBEBEB;fill:color(display-p3 0.9216 0.9216 0.9216);fill-opacity:1;"/>
<path d="M481.548 503.331H468.914V503.695H481.548V503.331Z" fill="#EBEBEB" style="fill:#EBEBEB;fill:color(display-p3 0.9216 0.9216 0.9216);fill-opacity:1;"/>
<path d="M604.469 485.883H576.57V486.247H604.469V485.883Z" fill="#EBEBEB" style="fill:#EBEBEB;fill:color(display-p3 0.9216 0.9216 0.9216);fill-opacity:1;"/>
<path d="M139.051 488.329H76.2598V488.692H139.051V488.329Z" fill="#EBEBEB" style="fill:#EBEBEB;fill:color(display-p3 0.9216 0.9216 0.9216);fill-opacity:1;"/>
<path d="M161.209 488.329H152.006V488.692H161.209V488.329Z" fill="#EBEBEB" style="fill:#EBEBEB;fill:color(display-p3 0.9216 0.9216 0.9216);fill-opacity:1;"/>
<path d="M327.318 494.462H191.123V494.826H327.318V494.462Z" fill="#EBEBEB" style="fill:#EBEBEB;fill:color(display-p3 0.9216 0.9216 0.9216);fill-opacity:1;"/>
<path d="M344.562 411.143H63.8561C61.6544 411.143 59.5429 410.269 57.9861 408.712C56.4293 407.155 55.5547 405.044 55.5547 402.842V8.22868C55.5739 6.03964 56.4569 3.94678 58.0117 2.40566C59.5664 0.864538 61.6669 -8.39237e-05 63.8561 6.10979e-09H344.562C346.763 6.10981e-09 348.875 0.874607 350.432 2.43142C351.988 3.98823 352.863 6.09971 352.863 8.30137V402.842C352.863 405.044 351.988 407.155 350.432 408.712C348.875 410.269 346.763 411.143 344.562 411.143ZM63.8561 0.290767C61.752 0.29461 59.7352 1.13216 58.2474 2.61997C56.7595 4.10779 55.922 6.1246 55.9181 8.22868V402.842C55.922 404.946 56.7595 406.963 58.2474 408.451C59.7352 409.938 61.752 410.776 63.8561 410.78H344.562C346.666 410.776 348.683 409.938 350.17 408.451C351.658 406.963 352.496 404.946 352.5 402.842V8.22868C352.496 6.1246 351.658 4.10779 350.17 2.61997C348.683 1.13216 346.666 0.29461 344.562 0.290767H63.8561Z" fill="#EBEBEB" style="fill:#EBEBEB;fill:color(display-p3 0.9216 0.9216 0.9216);fill-opacity:1;"/>
<path d="M659.03 411.143H378.296C376.095 411.139 373.986 410.264 372.43 408.708C370.874 407.152 369.998 405.042 369.994 402.842V8.22868C370.017 6.04083 370.901 3.95017 372.455 2.40986C374.009 0.869549 376.108 0.00370478 378.296 0H659.03C661.214 0.00756645 663.307 0.875568 664.856 2.41587C666.404 3.95617 667.283 6.04467 667.302 8.22868V402.842C667.303 405.039 666.432 407.146 664.881 408.702C663.331 410.258 661.227 411.136 659.03 411.143ZM378.296 0.290767C376.191 0.29461 374.175 1.13216 372.687 2.61997C371.199 4.10779 370.361 6.1246 370.358 8.22868V402.842C370.361 404.946 371.199 406.963 372.687 408.451C374.175 409.938 376.191 410.776 378.296 410.78H659.03C661.134 410.776 663.151 409.938 664.639 408.451C666.127 406.963 666.964 404.946 666.968 402.842V8.22868C666.964 6.1246 666.127 4.10779 664.639 2.61997C663.151 1.13216 661.134 0.29461 659.03 0.290767H378.296Z" fill="#EBEBEB" style="fill:#EBEBEB;fill:color(display-p3 0.9216 0.9216 0.9216);fill-opacity:1;"/>
<path d="M726.915 475.985H0V476.348H726.915V475.985Z" fill="#EBEBEB" style="fill:#EBEBEB;fill:color(display-p3 0.9216 0.9216 0.9216);fill-opacity:1;"/>
<path d="M248.457 442.548H282.143L264.435 298.328C264.009 295.313 262.528 292.547 260.255 290.521C257.982 288.495 255.063 287.341 252.019 287.264H105.037L126.583 442.548H248.457Z" fill="#F5F5F5" style="fill:#F5F5F5;fill:color(display-p3 0.9608 0.9608 0.9608);fill-opacity:1;"/>
<path d="M141.614 442.546H107.929L90.2214 298.326C90.0037 296.94 90.0933 295.523 90.4839 294.175C90.8744 292.827 91.5562 291.581 92.4812 290.526C93.4063 289.47 94.5518 288.631 95.837 288.067C97.1221 287.503 98.5154 287.229 99.9184 287.263H111.549C114.591 287.34 117.508 288.494 119.779 290.52C122.049 292.546 123.528 295.312 123.95 298.326L141.614 442.546Z" fill="#F0F0F0" style="fill:#F0F0F0;fill:color(display-p3 0.9412 0.9412 0.9412);fill-opacity:1;"/>
<path d="M154.108 442.37L148.002 372.586C147.87 371.068 147.22 369.642 146.161 368.546C145.103 367.45 143.699 366.752 142.187 366.567L139.672 366.248C137.651 365.99 135.78 365.05 134.368 363.582C132.955 362.114 132.088 360.208 131.908 358.179L130.847 345.487C130.745 344.264 130.896 343.034 131.292 341.872C131.687 340.711 132.318 339.644 133.145 338.738C133.972 337.831 134.978 337.106 136.098 336.606C137.219 336.106 138.43 335.843 139.657 335.833H83.3648C82.1278 335.833 80.9042 336.089 79.7719 336.587C78.6395 337.085 77.6233 337.814 76.7877 338.726C75.9521 339.638 75.3156 340.714 74.9187 341.885C74.5217 343.057 74.3729 344.298 74.4819 345.531L75.5868 358.252C75.761 360.282 76.627 362.192 78.0402 363.66C79.4533 365.129 81.3278 366.068 83.3503 366.32L85.8509 366.64C87.3624 366.827 88.7641 367.526 89.8224 368.622C90.8806 369.717 91.5314 371.142 91.6662 372.659L97.7723 442.443C98.0007 444.886 99.1337 447.156 100.949 448.808C102.765 450.459 105.131 451.373 107.586 451.369H163.849C161.397 451.35 159.04 450.417 157.239 448.753C155.438 447.089 154.322 444.813 154.108 442.37Z" fill="#E6E6E6" style="fill:#E6E6E6;fill:color(display-p3 0.9020 0.9020 0.9020);fill-opacity:1;"/>
<path d="M308.955 355.155C309.428 349.876 311.859 344.964 315.772 341.388C319.684 337.812 324.794 335.831 330.094 335.833H281.071C275.766 335.835 270.654 337.825 266.744 341.409C262.834 344.994 260.408 349.914 259.947 355.199L255.105 410.444H304.129L308.955 355.155Z" fill="#E6E6E6" style="fill:#E6E6E6;fill:color(display-p3 0.9020 0.9020 0.9020);fill-opacity:1;"/>
<path d="M351.82 335.834H330.012C324.705 335.832 319.59 337.819 315.676 341.405C311.763 344.99 309.336 349.912 308.874 355.199L304.047 410.444H187.392L182.55 355.199C182.088 349.904 179.654 344.976 175.732 341.39C171.809 337.804 166.683 335.821 161.368 335.834H139.561C138.341 335.855 137.139 336.127 136.029 336.632C134.919 337.137 133.924 337.864 133.106 338.769C132.289 339.674 131.665 340.737 131.275 341.893C130.885 343.048 130.736 344.272 130.838 345.487L131.943 358.208C132.122 360.237 132.99 362.143 134.402 363.611C135.814 365.079 137.686 366.019 139.706 366.277L142.221 366.597C143.734 366.781 145.137 367.48 146.196 368.575C147.254 369.671 147.904 371.098 148.036 372.616L154.143 442.399C154.357 444.855 155.484 447.141 157.3 448.806C159.117 450.472 161.491 451.397 163.956 451.399H327.657C330.122 451.397 332.497 450.472 334.313 448.806C336.13 447.141 337.256 444.855 337.471 442.399L343.577 372.616C343.712 371.099 344.362 369.674 345.421 368.578C346.479 367.483 347.881 366.784 349.392 366.597L351.893 366.277C353.915 366.025 355.79 365.086 357.203 363.617C358.616 362.148 359.482 360.239 359.656 358.208L360.761 345.487C360.864 344.254 360.709 343.012 360.306 341.842C359.902 340.671 359.259 339.598 358.418 338.69C357.577 337.781 356.556 337.058 355.42 336.567C354.284 336.075 353.058 335.825 351.82 335.834Z" fill="#F0F0F0" style="fill:#F0F0F0;fill:color(display-p3 0.9412 0.9412 0.9412);fill-opacity:1;"/>
<path d="M204.883 200.239C240.525 200.239 269.419 171.345 269.419 135.703C269.419 100.061 240.525 71.1677 204.883 71.1677C169.241 71.1677 140.348 100.061 140.348 135.703C140.348 171.345 169.241 200.239 204.883 200.239Z" fill="#F5F5F5" style="fill:#F5F5F5;fill:color(display-p3 0.9608 0.9608 0.9608);fill-opacity:1;"/>
<path d="M204.896 190.423C235.118 190.423 259.618 165.923 259.618 135.7C259.618 105.478 235.118 80.9783 204.896 80.9783C174.674 80.9783 150.174 105.478 150.174 135.7C150.174 165.923 174.674 190.423 204.896 190.423Z" fill="#FAFAFA" style="fill:#FAFAFA;fill:color(display-p3 0.9804 0.9804 0.9804);fill-opacity:1;"/>
<path d="M204.884 80.9813C204.026 80.9813 203.168 80.9813 202.311 80.9813C216.372 81.6301 229.643 87.6727 239.365 97.8531C249.086 108.034 254.511 121.569 254.511 135.645C254.511 149.722 249.086 163.257 239.365 173.438C229.643 183.618 216.372 189.661 202.311 190.309C203.168 190.309 204.026 190.309 204.884 190.309C219.397 190.309 233.316 184.544 243.578 174.282C253.841 164.019 259.606 150.1 259.606 135.587C259.606 121.074 253.841 107.155 243.578 96.8927C233.316 86.6303 219.397 80.865 204.884 80.865V80.9813Z" fill="#E6E6E6" style="fill:#E6E6E6;fill:color(display-p3 0.9020 0.9020 0.9020);fill-opacity:1;"/>
<path d="M204.913 190.364C206.294 190.291 207.661 190.16 209.027 190V139.814H256.902C257.004 138.448 257.062 137.081 257.062 135.7C257.062 134.319 257.062 132.952 256.902 131.585H209.013V81.4138C207.646 81.2393 206.28 81.1084 204.898 81.0503H200.784V131.6H150.234V139.829H200.784V190.378L204.913 190.364Z" fill="#F0F0F0" style="fill:#F0F0F0;fill:color(display-p3 0.9412 0.9412 0.9412);fill-opacity:1;"/>
<path d="M200.78 81.0344H196.666V131.584H200.78V81.0344Z" fill="#E6E6E6" style="fill:#E6E6E6;fill:color(display-p3 0.9020 0.9020 0.9020);fill-opacity:1;"/>
<path d="M200.78 139.816H196.666V190.365H200.78V139.816Z" fill="#E6E6E6" style="fill:#E6E6E6;fill:color(display-p3 0.9020 0.9020 0.9020);fill-opacity:1;"/>
<path d="M522.039 200.239C557.681 200.239 586.575 171.345 586.575 135.703C586.575 100.061 557.681 71.1677 522.039 71.1677C486.397 71.1677 457.504 100.061 457.504 135.703C457.504 171.345 486.397 200.239 522.039 200.239Z" fill="#F5F5F5" style="fill:#F5F5F5;fill:color(display-p3 0.9608 0.9608 0.9608);fill-opacity:1;"/>
<path d="M522.031 190.423C552.253 190.423 576.753 165.923 576.753 135.7C576.753 105.478 552.253 80.9783 522.031 80.9783C491.809 80.9783 467.309 105.478 467.309 135.7C467.309 165.923 491.809 190.423 522.031 190.423Z" fill="#FAFAFA" style="fill:#FAFAFA;fill:color(display-p3 0.9804 0.9804 0.9804);fill-opacity:1;"/>
<path d="M522.026 80.9813C521.168 80.9813 520.31 80.9813 519.467 80.9813C533.528 81.6301 546.799 87.6727 556.521 97.8531C566.242 108.034 571.667 121.569 571.667 135.645C571.667 149.722 566.242 163.257 556.521 173.438C546.799 183.618 533.528 189.661 519.467 190.309C520.31 190.309 521.168 190.309 522.026 190.309C536.539 190.309 550.458 184.544 560.72 174.282C570.982 164.019 576.748 150.1 576.748 135.587C576.748 121.074 570.982 107.155 560.72 96.8927C550.458 86.6303 536.539 80.865 522.026 80.865V80.9813Z" fill="#E6E6E6" style="fill:#E6E6E6;fill:color(display-p3 0.9020 0.9020 0.9020);fill-opacity:1;"/>
<path d="M522.06 190.364C523.514 190.291 524.823 190.16 526.175 190V139.814H574.049C574.151 138.448 574.224 137.081 574.224 135.7C574.224 134.319 574.151 132.952 574.049 131.585H526.146V81.4138C524.793 81.2393 523.427 81.1084 522.031 81.0503H517.917V131.6H467.367V139.829H517.917V190.378L522.06 190.364Z" fill="#F0F0F0" style="fill:#F0F0F0;fill:color(display-p3 0.9412 0.9412 0.9412);fill-opacity:1;"/>
<path d="M517.939 81.0344H513.824V131.584H517.939V81.0344Z" fill="#E6E6E6" style="fill:#E6E6E6;fill:color(display-p3 0.9020 0.9020 0.9020);fill-opacity:1;"/>
<path d="M517.939 139.816H513.824V190.365H517.939V139.816Z" fill="#E6E6E6" style="fill:#E6E6E6;fill:color(display-p3 0.9020 0.9020 0.9020);fill-opacity:1;"/>
<path d="M410.801 435.815H522.557V397.245H410.801V435.815Z" fill="#EBEBEB" style="fill:#EBEBEB;fill:color(display-p3 0.9216 0.9216 0.9216);fill-opacity:1;"/>
<path d="M410.801 474.399H522.557V435.829H410.801V474.399Z" fill="#EBEBEB" style="fill:#EBEBEB;fill:color(display-p3 0.9216 0.9216 0.9216);fill-opacity:1;"/>
<path d="M526.449 435.815H638.205V397.245H526.449V435.815Z" fill="#EBEBEB" style="fill:#EBEBEB;fill:color(display-p3 0.9216 0.9216 0.9216);fill-opacity:1;"/>
<path d="M526.449 474.399H638.205V435.829H526.449V474.399Z" fill="#EBEBEB" style="fill:#EBEBEB;fill:color(display-p3 0.9216 0.9216 0.9216);fill-opacity:1;"/>
<path d="M595.733 435.817L581.82 397.247H603.221L617.134 435.817H595.733Z" fill="#F0F0F0" style="fill:#F0F0F0;fill:color(display-p3 0.9412 0.9412 0.9412);fill-opacity:1;"/>
<path d="M571.48 397.247H576.176L590.09 435.817H585.379L571.48 397.247Z" fill="#F0F0F0" style="fill:#F0F0F0;fill:color(display-p3 0.9412 0.9412 0.9412);fill-opacity:1;"/>
<path d="M609.625 474.4L595.727 435.815H617.127L631.026 474.4H609.625Z" fill="#F0F0F0" style="fill:#F0F0F0;fill:color(display-p3 0.9412 0.9412 0.9412);fill-opacity:1;"/>
<path d="M585.363 435.815H590.074L603.972 474.4H599.276L585.363 435.815Z" fill="#F0F0F0" style="fill:#F0F0F0;fill:color(display-p3 0.9412 0.9412 0.9412);fill-opacity:1;"/>
<path d="M435.887 435.817L421.988 397.247H443.389L457.287 435.817H435.887Z" fill="#F0F0F0" style="fill:#F0F0F0;fill:color(display-p3 0.9412 0.9412 0.9412);fill-opacity:1;"/>
<path d="M411.648 397.247H416.344L430.243 435.817H425.547L411.648 397.247Z" fill="#F0F0F0" style="fill:#F0F0F0;fill:color(display-p3 0.9412 0.9412 0.9412);fill-opacity:1;"/>
<path d="M449.808 474.4L435.895 435.815H457.295L471.208 474.4H449.808Z" fill="#F0F0F0" style="fill:#F0F0F0;fill:color(display-p3 0.9412 0.9412 0.9412);fill-opacity:1;"/>
<path d="M425.531 435.815H430.227L444.14 474.4H439.43L425.531 435.815Z" fill="#F0F0F0" style="fill:#F0F0F0;fill:color(display-p3 0.9412 0.9412 0.9412);fill-opacity:1;"/>
<path d="M638.205 403.178V399.282H526.449V403.178H638.205Z" fill="#E0E0E0" style="fill:#E0E0E0;fill:color(display-p3 0.8784 0.8784 0.8784);fill-opacity:1;"/>
<path d="M638.205 441.441V437.545H526.449V441.441H638.205Z" fill="#E0E0E0" style="fill:#E0E0E0;fill:color(display-p3 0.8784 0.8784 0.8784);fill-opacity:1;"/>
<path d="M579.479 421.464C579.035 421.464 578.61 421.288 578.296 420.974C577.983 420.66 577.807 420.235 577.807 419.792C577.807 419.348 577.983 418.923 578.296 418.61C578.61 418.296 579.035 418.12 579.479 418.12H585.192C585.636 418.12 586.061 418.296 586.374 418.61C586.688 418.923 586.864 419.348 586.864 419.792C586.864 420.235 586.688 420.66 586.374 420.974C586.061 421.288 585.636 421.464 585.192 421.464H579.479Z" fill="#E0E0E0" style="fill:#E0E0E0;fill:color(display-p3 0.8784 0.8784 0.8784);fill-opacity:1;"/>
<path d="M579.462 420.882C579.228 420.904 578.993 420.877 578.77 420.803C578.548 420.728 578.343 420.608 578.17 420.45C577.996 420.292 577.858 420.099 577.763 419.885C577.668 419.67 577.619 419.438 577.619 419.203C577.619 418.969 577.668 418.737 577.763 418.522C577.858 418.307 577.996 418.115 578.17 417.957C578.343 417.799 578.548 417.679 578.77 417.604C578.993 417.53 579.228 417.502 579.462 417.524H585.176C585.594 417.563 585.983 417.757 586.266 418.067C586.549 418.378 586.706 418.783 586.706 419.203C586.706 419.623 586.549 420.029 586.266 420.339C585.983 420.65 585.594 420.843 585.176 420.882H579.462Z" fill="#F5F5F5" style="fill:#F5F5F5;fill:color(display-p3 0.9608 0.9608 0.9608);fill-opacity:1;"/>
<path d="M579.462 457.081C579.228 457.103 578.993 457.076 578.77 457.001C578.548 456.927 578.343 456.807 578.17 456.649C577.996 456.491 577.858 456.298 577.763 456.084C577.668 455.869 577.619 455.637 577.619 455.402C577.619 455.168 577.668 454.936 577.763 454.721C577.858 454.506 577.996 454.314 578.17 454.156C578.343 453.998 578.548 453.878 578.77 453.803C578.993 453.729 579.228 453.701 579.462 453.723H585.176C585.594 453.762 585.983 453.956 586.266 454.266C586.549 454.577 586.706 454.982 586.706 455.402C586.706 455.822 586.549 456.228 586.266 456.538C585.983 456.849 585.594 457.042 585.176 457.081H579.462Z" fill="#E0E0E0" style="fill:#E0E0E0;fill:color(display-p3 0.8784 0.8784 0.8784);fill-opacity:1;"/>
<path d="M579.462 456.505C579.228 456.527 578.993 456.499 578.77 456.425C578.548 456.35 578.343 456.23 578.17 456.072C577.996 455.914 577.858 455.722 577.763 455.507C577.668 455.292 577.619 455.06 577.619 454.826C577.619 454.591 577.668 454.359 577.763 454.144C577.858 453.93 577.996 453.737 578.17 453.579C578.343 453.421 578.548 453.301 578.77 453.226C578.993 453.152 579.228 453.125 579.462 453.146H585.176C585.594 453.185 585.983 453.379 586.266 453.69C586.549 454 586.706 454.405 586.706 454.826C586.706 455.246 586.549 455.651 586.266 455.961C585.983 456.272 585.594 456.466 585.176 456.505H579.462Z" fill="#F5F5F5" style="fill:#F5F5F5;fill:color(display-p3 0.9608 0.9608 0.9608);fill-opacity:1;"/>
<path d="M524.494 395.517V476.088H640.146V395.517H524.494ZM528.39 437.867H636.25V472.177H528.39V437.867ZM528.39 399.646H636.25V433.956H528.39V399.646Z" fill="#F5F5F5" style="fill:#F5F5F5;fill:color(display-p3 0.9608 0.9608 0.9608);fill-opacity:1;"/>
<path d="M522.557 403.178V399.282H410.801V403.178H522.557Z" fill="#E0E0E0" style="fill:#E0E0E0;fill:color(display-p3 0.8784 0.8784 0.8784);fill-opacity:1;"/>
<path d="M522.535 441.457V437.561H410.779V441.457H522.535Z" fill="#E0E0E0" style="fill:#E0E0E0;fill:color(display-p3 0.8784 0.8784 0.8784);fill-opacity:1;"/>
<path d="M463.766 421.464C463.322 421.464 462.897 421.288 462.583 420.974C462.27 420.66 462.094 420.235 462.094 419.792C462.094 419.348 462.27 418.923 462.583 418.61C462.897 418.296 463.322 418.12 463.766 418.12H469.581C470.024 418.12 470.45 418.296 470.763 418.61C471.077 418.923 471.253 419.348 471.253 419.792C471.253 420.235 471.077 420.66 470.763 420.974C470.45 421.288 470.024 421.464 469.581 421.464H463.766Z" fill="#E0E0E0" style="fill:#E0E0E0;fill:color(display-p3 0.8784 0.8784 0.8784);fill-opacity:1;"/>
<path d="M463.77 420.885C463.352 420.846 462.963 420.653 462.68 420.342C462.397 420.032 462.24 419.626 462.24 419.206C462.24 418.786 462.397 418.381 462.68 418.07C462.963 417.76 463.352 417.566 463.77 417.527H469.586C470.004 417.566 470.393 417.76 470.676 418.07C470.959 418.381 471.116 418.786 471.116 419.206C471.116 419.626 470.959 420.032 470.676 420.342C470.393 420.653 470.004 420.846 469.586 420.885H463.77Z" fill="#F5F5F5" style="fill:#F5F5F5;fill:color(display-p3 0.9608 0.9608 0.9608);fill-opacity:1;"/>
<path d="M463.77 457.084C463.352 457.045 462.963 456.852 462.68 456.541C462.397 456.231 462.24 455.825 462.24 455.405C462.24 454.985 462.397 454.58 462.68 454.269C462.963 453.959 463.352 453.765 463.77 453.726H469.586C470.004 453.765 470.393 453.959 470.676 454.269C470.959 454.58 471.116 454.985 471.116 455.405C471.116 455.825 470.959 456.231 470.676 456.541C470.393 456.852 470.004 457.045 469.586 457.084H463.77Z" fill="#E0E0E0" style="fill:#E0E0E0;fill:color(display-p3 0.8784 0.8784 0.8784);fill-opacity:1;"/>
<path d="M463.77 456.503C463.352 456.464 462.963 456.27 462.68 455.96C462.397 455.649 462.24 455.244 462.24 454.824C462.24 454.404 462.397 453.999 462.68 453.688C462.963 453.378 463.352 453.184 463.77 453.145H469.586C470.004 453.184 470.393 453.378 470.676 453.688C470.959 453.999 471.116 454.404 471.116 454.824C471.116 455.244 470.959 455.649 470.676 455.96C470.393 456.27 470.004 456.464 469.586 456.503H463.77Z" fill="#F5F5F5" style="fill:#F5F5F5;fill:color(display-p3 0.9608 0.9608 0.9608);fill-opacity:1;"/>
<path d="M408.822 395.517V476.088H524.489V395.517H408.822ZM412.733 437.867H520.578V472.177H412.733V437.867ZM412.733 399.646H520.578V433.956H412.733V399.646Z" fill="#F5F5F5" style="fill:#F5F5F5;fill:color(display-p3 0.9608 0.9608 0.9608);fill-opacity:1;"/>
<path d="M574.267 389.149H557.024L553.026 372.183H546.121L542.137 389.149H524.836C524.135 389.147 523.439 389.283 522.79 389.551C522.141 389.818 521.551 390.211 521.054 390.706C520.557 391.202 520.163 391.791 519.894 392.439C519.625 393.087 519.486 393.782 519.486 394.484V395.517H579.588V394.484C579.588 393.072 579.028 391.717 578.03 390.717C577.033 389.716 575.679 389.153 574.267 389.149Z" fill="#E0E0E0" style="fill:#E0E0E0;fill:color(display-p3 0.8784 0.8784 0.8784);fill-opacity:1;"/>
<path d="M626.028 281.955H473.158V380.902H626.028V281.955Z" fill="#E0E0E0" style="fill:#E0E0E0;fill:color(display-p3 0.8784 0.8784 0.8784);fill-opacity:1;"/>
<path d="M623.116 284.865H476.061V373.636H623.116V284.865Z" fill="#F5F5F5" style="fill:#F5F5F5;fill:color(display-p3 0.9608 0.9608 0.9608);fill-opacity:1;"/>
<path d="M557.11 373.636H611.207L579.208 284.865H525.111L557.11 373.636Z" fill="#FAFAFA" style="fill:#FAFAFA;fill:color(display-p3 0.9804 0.9804 0.9804);fill-opacity:1;"/>
<path d="M530.929 373.636H542.821L510.822 284.865H498.93L530.929 373.636Z" fill="#FAFAFA" style="fill:#FAFAFA;fill:color(display-p3 0.9804 0.9804 0.9804);fill-opacity:1;"/>
<path d="M321.1 476.157H168.113V449.916H325.461L321.1 476.157Z" fill="#F5F5F5" style="fill:#F5F5F5;fill:color(display-p3 0.9608 0.9608 0.9608);fill-opacity:1;"/>
<path d="M180.557 476.346H112.664L109.756 449.916H177.65L180.557 476.346Z" fill="#E0E0E0" style="fill:#E0E0E0;fill:color(display-p3 0.8784 0.8784 0.8784);fill-opacity:1;"/>
<path d="M356.453 536.04C512.133 536.04 638.337 528.672 638.337 519.582C638.337 510.493 512.133 503.125 356.453 503.125C200.774 503.125 74.5703 510.493 74.5703 519.582C74.5703 528.672 200.774 536.04 356.453 536.04Z" fill="#F5F5F5" style="fill:#F5F5F5;fill:color(display-p3 0.9608 0.9608 0.9608);fill-opacity:1;"/>
<path d="M545.447 517.517H538.484L536.957 411.271H546.974L545.447 517.517Z" fill="#263238" style="fill:#263238;fill:color(display-p3 0.1490 0.1961 0.2196);fill-opacity:1;"/>
<path opacity="0.5" d="M545.447 517.517H538.484L536.957 411.271H546.974L545.447 517.517Z" fill="white" style="fill:white;fill-opacity:1;"/>
<path d="M483.936 517.517H476.957L475.445 411.271H485.462L483.936 517.517Z" fill="#263238" style="fill:#263238;fill:color(display-p3 0.1490 0.1961 0.2196);fill-opacity:1;"/>
<path opacity="0.5" d="M483.936 517.517H476.957L475.445 411.271H485.462L483.936 517.517Z" fill="white" style="fill:white;fill-opacity:1;"/>
<path d="M469.66 517.517H462.696L461.17 411.271H471.187L469.66 517.517Z" fill="#263238" style="fill:#263238;fill:color(display-p3 0.1490 0.1961 0.2196);fill-opacity:1;"/>
<path opacity="0.5" d="M469.66 517.517H462.696L461.17 411.271H471.187L469.66 517.517Z" fill="white" style="fill:white;fill-opacity:1;"/>
<path d="M408.168 517.517H401.19L399.678 411.271H409.695L408.168 517.517Z" fill="#263238" style="fill:#263238;fill:color(display-p3 0.1490 0.1961 0.2196);fill-opacity:1;"/>
<path opacity="0.5" d="M408.168 517.517H401.19L399.678 411.271H409.695L408.168 517.517Z" fill="white" style="fill:white;fill-opacity:1;"/>
<path d="M512.02 413.714H398.985C397.761 413.714 396.549 413.473 395.419 413.004C394.288 412.536 393.261 411.85 392.395 410.984C391.53 410.119 390.844 409.092 390.375 407.961C389.907 406.83 389.666 405.618 389.666 404.395V391.979C389.67 389.51 390.653 387.143 392.401 385.399C394.148 383.654 396.516 382.674 398.985 382.674H499.067L507.688 300.649C508.274 295.845 510.573 291.414 514.161 288.167C517.75 284.92 522.389 283.075 527.227 282.971H569.229L559.197 313.588L550.038 382.166L543.598 401.327L512.02 413.714Z" fill="#407BFF" style="fill:#407BFF;fill:color(display-p3 0.2510 0.4824 1.0000);fill-opacity:1;"/>
<path opacity="0.2" d="M512.02 413.714H398.985C397.761 413.714 396.549 413.473 395.419 413.004C394.288 412.536 393.261 411.85 392.395 410.984C391.53 410.119 390.844 409.092 390.375 407.961C389.907 406.83 389.666 405.618 389.666 404.395V391.979C389.67 389.51 390.653 387.143 392.401 385.399C394.148 383.654 396.516 382.674 398.985 382.674H499.067L507.688 300.649C508.274 295.845 510.573 291.414 514.161 288.167C517.75 284.92 522.389 283.075 527.227 282.971H569.229L559.197 313.588L550.038 382.166L543.598 401.327L512.02 413.714Z" fill="black" style="fill:black;fill-opacity:1;"/>
<path d="M572.718 282.972H564.329C559.492 283.076 554.855 284.922 551.269 288.169C547.683 291.416 545.387 295.848 544.804 300.65L536.183 382.675H474.512C472.045 382.679 469.681 383.661 467.937 385.405C466.192 387.149 465.211 389.513 465.207 391.98V404.396C465.207 406.865 466.187 409.233 467.931 410.98C469.676 412.727 472.043 413.711 474.512 413.715H549.122C551.955 413.716 554.687 412.667 556.792 410.772C558.897 408.876 560.225 406.268 560.52 403.451L570.29 310.493C574.202 310.413 577.943 308.868 580.77 306.162C583.597 303.456 585.305 299.787 585.555 295.882C585.586 294.184 585.276 292.497 584.643 290.921C584.01 289.346 583.067 287.913 581.869 286.709C580.672 285.505 579.245 284.554 577.673 283.912C576.101 283.27 574.416 282.95 572.718 282.972Z" fill="#407BFF" style="fill:#407BFF;fill:color(display-p3 0.2510 0.4824 1.0000);fill-opacity:1;"/>
<path d="M410.576 473.627L415.417 505.262L425.405 504.404L424.01 472.478L410.576 473.627Z" fill="#EBB376" style="fill:#EBB376;fill:color(display-p3 0.9216 0.7020 0.4627);fill-opacity:1;"/>
<path d="M425.766 492.033C425.766 492.033 426.246 500.203 428.209 504.274C430.172 508.345 432.89 513.753 426.246 514.349C422.321 514.698 415.459 516.326 407.943 517.053C402.752 517.548 395.643 517.053 395.396 514.306C395.105 511.122 413.511 504.449 413.438 501.381C413.365 498.313 412.537 493.022 412.537 493.022L425.766 492.033Z" fill="#263238" style="fill:#263238;fill:color(display-p3 0.1490 0.1961 0.2196);fill-opacity:1;"/>
<path opacity="0.1" d="M425.766 492.033C425.766 492.033 426.246 500.203 428.209 504.274C430.172 508.345 432.89 513.753 426.246 514.349C422.321 514.698 415.459 516.326 407.943 517.053C402.752 517.548 395.643 517.053 395.396 514.306C395.105 511.122 413.511 504.449 413.438 501.381C413.365 498.313 412.537 493.022 412.537 493.022L425.766 492.033Z" fill="white" style="fill:white;fill-opacity:1;"/>
<path d="M475.665 323.14L472.961 345.645C472.961 345.645 396.155 352.391 391.779 371.596C387.636 389.856 410.301 482.567 410.301 482.567L425.639 481.04C425.639 481.04 427.776 409.352 421.06 383.779C421.06 383.779 479.445 383.343 498.912 383.779C507.635 383.982 530.01 383.692 524.471 358.25C518.161 329.173 511.488 323.14 511.488 323.14L511.255 310.404H476.363L475.665 323.14Z" fill="#407BFF" style="fill:#407BFF;fill:color(display-p3 0.2510 0.4824 1.0000);fill-opacity:1;"/>
<path opacity="0.2" d="M475.665 323.14L472.961 345.645C472.961 345.645 396.155 352.391 391.779 371.596C387.636 389.856 410.301 482.567 410.301 482.567L425.639 481.04C425.639 481.04 427.776 409.352 421.06 383.779C421.06 383.779 479.445 383.343 498.912 383.779C507.635 383.982 530.01 383.692 524.471 358.25C518.161 329.173 511.488 323.14 511.488 323.14L511.255 310.404H476.363L475.665 323.14Z" fill="white" style="fill:white;fill-opacity:1;"/>
<path d="M408.812 482.961L410.091 486.726C410.212 487.065 410.441 487.354 410.744 487.549C411.046 487.743 411.405 487.832 411.763 487.802L425.153 486.566C425.528 486.533 425.879 486.37 426.144 486.104C426.41 485.838 426.574 485.487 426.607 485.112L426.854 481.216C426.865 480.985 426.827 480.755 426.742 480.54C426.656 480.326 426.526 480.132 426.359 479.972C426.192 479.812 425.993 479.69 425.775 479.613C425.557 479.537 425.325 479.509 425.095 479.53L410.178 480.896C409.943 480.92 409.715 480.996 409.513 481.119C409.31 481.241 409.137 481.407 409.006 481.605C408.875 481.802 408.79 482.026 408.756 482.261C408.723 482.495 408.742 482.734 408.812 482.961Z" fill="#407BFF" style="fill:#407BFF;fill:color(display-p3 0.2510 0.4824 1.0000);fill-opacity:1;"/>
<path opacity="0.6" d="M408.812 482.961L410.091 486.726C410.212 487.065 410.441 487.354 410.744 487.549C411.046 487.743 411.405 487.832 411.763 487.802L425.153 486.566C425.528 486.533 425.879 486.37 426.144 486.104C426.41 485.838 426.574 485.487 426.607 485.112L426.854 481.216C426.865 480.985 426.827 480.755 426.742 480.54C426.656 480.326 426.526 480.132 426.359 479.972C426.192 479.812 425.993 479.69 425.775 479.613C425.557 479.537 425.325 479.509 425.095 479.53L410.178 480.896C409.943 480.92 409.715 480.996 409.513 481.119C409.31 481.241 409.137 481.407 409.006 481.605C408.875 481.802 408.79 482.026 408.756 482.261C408.723 482.495 408.742 482.734 408.812 482.961Z" fill="white" style="fill:white;fill-opacity:1;"/>
<path d="M440.012 472.988L442.149 504.928H452.166L453.503 472.988H440.012Z" fill="#EBB376" style="fill:#EBB376;fill:color(display-p3 0.9216 0.7020 0.4627);fill-opacity:1;"/>
<path d="M453.311 495.245C453.311 495.245 453.049 503.431 454.649 507.661C456.248 511.892 458.472 517.518 451.741 517.518C447.816 517.518 440.852 517.605 433.423 517.053C428.218 516.675 421.021 517.518 421.021 514.712C421.021 511.514 440.488 506.324 440.677 503.271C440.866 500.218 440.677 495.071 440.677 495.071L453.311 495.245Z" fill="#263238" style="fill:#263238;fill:color(display-p3 0.1490 0.1961 0.2196);fill-opacity:1;"/>
<path d="M487.691 323.141L485.234 345.646C485.234 345.646 437.461 352.145 429.799 363.586C422.138 375.028 440.136 487.612 440.136 487.612H453.497C463.034 425.098 458.076 383.693 458.076 383.693H517.989C556.152 383.693 522.19 323.141 522.19 323.141L522.336 309.765L487.022 311.801L487.691 323.141Z" fill="#407BFF" style="fill:#407BFF;fill:color(display-p3 0.2510 0.4824 1.0000);fill-opacity:1;"/>
<path opacity="0.3" d="M487.691 323.141L485.234 345.646C485.234 345.646 437.461 352.145 429.799 363.586C422.138 375.028 440.136 487.612 440.136 487.612H453.497C463.034 425.098 458.076 383.693 458.076 383.693H517.989C556.152 383.693 522.19 323.141 522.19 323.141L522.336 309.765L487.022 311.801L487.691 323.141Z" fill="white" style="fill:white;fill-opacity:1;"/>
<path d="M437.687 485.431L438.69 489.545C438.767 489.87 438.953 490.159 439.218 490.363C439.483 490.567 439.81 490.673 440.144 490.664H453.446C453.784 490.672 454.115 490.561 454.38 490.352C454.645 490.142 454.829 489.846 454.9 489.516L455.787 485.387C455.836 485.171 455.835 484.947 455.784 484.732C455.733 484.517 455.634 484.316 455.493 484.145C455.353 483.974 455.176 483.837 454.975 483.745C454.774 483.653 454.554 483.608 454.333 483.613H439.126C438.902 483.608 438.679 483.656 438.476 483.751C438.273 483.847 438.094 483.988 437.955 484.164C437.815 484.34 437.719 484.546 437.672 484.766C437.626 484.986 437.631 485.213 437.687 485.431Z" fill="#407BFF" style="fill:#407BFF;fill:color(display-p3 0.2510 0.4824 1.0000);fill-opacity:1;"/>
<path opacity="0.6" d="M437.687 485.431L438.69 489.545C438.767 489.87 438.953 490.159 439.218 490.363C439.483 490.567 439.81 490.673 440.144 490.664H453.446C453.784 490.672 454.115 490.561 454.38 490.352C454.645 490.142 454.829 489.846 454.9 489.516L455.787 485.387C455.836 485.171 455.835 484.947 455.784 484.732C455.733 484.517 455.634 484.316 455.493 484.145C455.353 483.974 455.176 483.837 454.975 483.745C454.774 483.653 454.554 483.608 454.333 483.613H439.126C438.902 483.608 438.679 483.656 438.476 483.751C438.273 483.847 438.094 483.988 437.955 484.164C437.815 484.34 437.719 484.546 437.672 484.766C437.626 484.986 437.631 485.213 437.687 485.431Z" fill="white" style="fill:white;fill-opacity:1;"/>
<path d="M419.087 310.306L408.27 312.414L398.094 309.434C396.684 309.242 395.248 309.416 393.925 309.937C392.601 310.459 391.434 311.312 390.534 312.414C389.06 314.174 388.257 316.399 388.266 318.694V319.087H409.186L420.541 317.56L419.087 310.306Z" fill="#EBB376" style="fill:#EBB376;fill:color(display-p3 0.9216 0.7020 0.4627);fill-opacity:1;"/>
<path d="M477.538 247.747C477.521 247.249 477.357 246.767 477.067 246.362C476.777 245.956 476.374 245.645 475.908 245.468C475.442 245.291 474.934 245.256 474.448 245.367C473.962 245.477 473.52 245.729 473.176 246.09C469.687 249.521 464.671 253.548 462.331 275.167C459.321 303.008 412.9 309.913 412.9 309.913L415.11 320.09C415.11 320.09 449.304 321.253 463.465 306.482C481.783 287.51 479.108 259.029 477.538 247.747Z" fill="#407BFF" style="fill:#407BFF;fill:color(display-p3 0.2510 0.4824 1.0000);fill-opacity:1;"/>
<path opacity="0.2" d="M477.538 247.747C477.521 247.249 477.357 246.767 477.067 246.362C476.777 245.956 476.374 245.645 475.908 245.468C475.442 245.291 474.934 245.256 474.448 245.367C473.962 245.477 473.52 245.729 473.176 246.09C469.687 249.521 464.671 253.548 462.331 275.167C459.321 303.008 412.9 309.913 412.9 309.913L415.11 320.09C415.11 320.09 449.304 321.253 463.465 306.482C481.783 287.51 479.108 259.029 477.538 247.747Z" fill="white" style="fill:white;fill-opacity:1;"/>
<path d="M519.147 202.808C514.945 174.647 491.233 184.795 491.233 184.795C475.91 190.319 481.057 209.35 481.057 219.687C481.057 230.024 479.748 233.6 479.748 233.6C481.522 233.207 483.165 232.873 484.749 232.553L485.302 229.311L486.261 232.219C499.142 229.762 506.091 229.791 509.842 230.576C510.897 228.656 511.657 226.587 512.096 224.441C512.096 224.441 513.928 225.633 512.096 231.274C514.32 232.277 514.218 233.571 514.218 233.571C514.218 233.571 523.378 230.969 519.147 202.808Z" fill="#263238" style="fill:#263238;fill:color(display-p3 0.1490 0.1961 0.2196);fill-opacity:1;"/>
<path d="M533.708 244.475L478.302 243.821C477.008 243.801 475.749 244.242 474.75 245.065C473.751 245.888 473.078 247.039 472.85 248.313C466.308 284.485 470.771 283.205 470.771 283.205L473.563 327.474H479.756C481.568 327.476 483.325 326.85 484.727 325.702C486.129 324.554 487.091 322.956 487.447 321.179L488.072 318.068L489.715 322.43C490.273 323.91 491.265 325.188 492.563 326.093C493.86 326.999 495.402 327.49 496.984 327.503H525.261C521.975 293.513 532.748 260.714 536.499 248.459C536.646 248.01 536.687 247.533 536.617 247.066C536.548 246.6 536.371 246.155 536.1 245.768C535.829 245.382 535.472 245.064 535.057 244.839C534.641 244.615 534.18 244.49 533.708 244.475Z" fill="#407BFF" style="fill:#407BFF;fill:color(display-p3 0.2510 0.4824 1.0000);fill-opacity:1;"/>
<path opacity="0.4" d="M533.708 244.475L478.302 243.821C477.008 243.801 475.749 244.242 474.75 245.065C473.751 245.888 473.078 247.039 472.85 248.313C466.308 284.485 470.771 283.205 470.771 283.205L473.563 327.474H479.756C481.568 327.476 483.325 326.85 484.727 325.702C486.129 324.554 487.091 322.956 487.447 321.179L488.072 318.068L489.715 322.43C490.273 323.91 491.265 325.188 492.563 326.093C493.86 326.999 495.402 327.49 496.984 327.503H525.261C521.975 293.513 532.748 260.714 536.499 248.459C536.646 248.01 536.687 247.533 536.617 247.066C536.548 246.6 536.371 246.155 536.1 245.768C535.829 245.382 535.472 245.064 535.057 244.839C534.641 244.615 534.18 244.49 533.708 244.475Z" fill="white" style="fill:white;fill-opacity:1;"/>
<path d="M411.428 309.753L413.478 320.483C413.55 320.849 413.751 321.178 414.044 321.41C414.338 321.642 414.704 321.761 415.077 321.747L417.142 321.66C417.358 321.65 417.569 321.595 417.763 321.498C417.956 321.402 418.127 321.265 418.264 321.098C418.401 320.93 418.502 320.736 418.559 320.527C418.616 320.319 418.628 320.1 418.596 319.887L416.895 308.459C416.863 308.234 416.783 308.019 416.659 307.828C416.536 307.638 416.372 307.476 416.179 307.356C415.987 307.235 415.77 307.158 415.544 307.13C415.319 307.103 415.09 307.124 414.874 307.195L412.446 307.98C412.092 308.105 411.795 308.353 411.609 308.678C411.422 309.003 411.358 309.385 411.428 309.753Z" fill="#407BFF" style="fill:#407BFF;fill:color(display-p3 0.2510 0.4824 1.0000);fill-opacity:1;"/>
<path opacity="0.6" d="M411.428 309.753L413.478 320.483C413.55 320.849 413.751 321.178 414.044 321.41C414.338 321.642 414.704 321.761 415.077 321.747L417.142 321.66C417.358 321.65 417.569 321.595 417.763 321.498C417.956 321.402 418.127 321.265 418.264 321.098C418.401 320.93 418.502 320.736 418.559 320.527C418.616 320.319 418.628 320.1 418.596 319.887L416.895 308.459C416.863 308.234 416.783 308.019 416.659 307.828C416.536 307.638 416.372 307.476 416.179 307.356C415.987 307.235 415.77 307.158 415.544 307.13C415.319 307.103 415.09 307.124 414.874 307.195L412.446 307.98C412.092 308.105 411.795 308.353 411.609 308.678C411.422 309.003 411.358 309.385 411.428 309.753Z" fill="white" style="fill:white;fill-opacity:1;"/>
<path d="M507.366 217.581C506.552 224.995 506.291 238.458 511.815 242.877C511.815 242.877 509.707 250.364 495.503 251.76C485.414 247.311 489.165 244.84 489.165 244.84C497.117 242.15 497.888 236.19 496.085 230.65L507.366 217.581Z" fill="#EBB376" style="fill:#EBB376;fill:color(display-p3 0.9216 0.7020 0.4627);fill-opacity:1;"/>
<path opacity="0.1" d="M506.123 225.819L503.215 225.063L499.61 226.517L496.062 230.617C496.539 232.024 496.808 233.494 496.862 234.979C504.684 233.786 506.123 225.819 506.123 225.819Z" fill="black" style="fill:black;fill-opacity:1;"/>
<path d="M512.575 201.193C512.924 213.42 513.346 218.639 507.778 225.385C499.389 235.562 484.298 233.381 480.286 221.503C476.68 210.818 476.695 192.63 488.151 186.699C490.676 185.382 493.497 184.733 496.344 184.813C499.191 184.894 501.97 185.7 504.417 187.157C506.864 188.614 508.899 190.672 510.327 193.136C511.754 195.601 512.528 198.389 512.575 201.237V201.193Z" fill="#EBB376" style="fill:#EBB376;fill:color(display-p3 0.9216 0.7020 0.4627);fill-opacity:1;"/>
<path d="M516.332 210.541C515.864 212.861 514.494 214.901 512.523 216.211C509.892 217.926 507.638 215.804 507.58 212.824C507.58 210.163 508.845 206.049 511.854 205.554C512.513 205.461 513.184 205.532 513.809 205.761C514.433 205.989 514.992 206.369 515.435 206.865C515.878 207.361 516.191 207.959 516.348 208.605C516.504 209.251 516.499 209.926 516.332 210.57V210.541Z" fill="#EBB376" style="fill:#EBB376;fill:color(display-p3 0.9216 0.7020 0.4627);fill-opacity:1;"/>
<path d="M486.406 208.713C485.738 211.048 484.76 213.282 483.498 215.357C484.032 215.674 484.629 215.87 485.247 215.93C485.865 215.99 486.489 215.914 487.074 215.706L486.406 208.713Z" fill="#D58745" style="fill:#D58745;fill:color(display-p3 0.8353 0.5294 0.2706);fill-opacity:1;"/>
<path d="M494.617 201.718C494.703 201.692 494.779 201.641 494.835 201.572C494.923 201.48 494.973 201.358 494.973 201.231C494.973 201.103 494.923 200.981 494.835 200.889C494.181 200.262 493.384 199.802 492.513 199.549C491.642 199.295 490.723 199.257 489.834 199.435C489.71 199.469 489.604 199.551 489.538 199.662C489.473 199.774 489.454 199.906 489.485 200.031C489.516 200.155 489.595 200.261 489.704 200.326C489.813 200.392 489.943 200.411 490.067 200.38C490.806 200.25 491.566 200.297 492.283 200.517C493.001 200.737 493.656 201.123 494.196 201.645C494.257 201.687 494.326 201.715 494.399 201.728C494.471 201.74 494.546 201.737 494.617 201.718Z" fill="#2E353A" style="fill:#2E353A;fill:color(display-p3 0.1804 0.2078 0.2275);fill-opacity:1;"/>
<path d="M477.551 202.807C477.466 202.791 477.387 202.756 477.318 202.705C477.268 202.665 477.226 202.616 477.195 202.56C477.164 202.504 477.144 202.442 477.137 202.378C477.131 202.315 477.137 202.25 477.155 202.189C477.174 202.128 477.204 202.071 477.245 202.022C477.805 201.304 478.529 200.731 479.356 200.352C480.184 199.972 481.09 199.797 481.999 199.841C482.125 199.859 482.239 199.925 482.318 200.025C482.397 200.125 482.433 200.252 482.421 200.379C482.406 200.504 482.343 200.618 482.245 200.696C482.147 200.775 482.023 200.813 481.897 200.8C481.146 200.777 480.4 200.932 479.72 201.253C479.04 201.574 478.446 202.052 477.987 202.647C477.934 202.709 477.867 202.757 477.79 202.785C477.713 202.813 477.631 202.82 477.551 202.807Z" fill="#2E353A" style="fill:#2E353A;fill:color(display-p3 0.1804 0.2078 0.2275);fill-opacity:1;"/>
<path d="M493.223 206.444C493.324 207.432 492.859 208.276 492.205 208.348C491.551 208.421 490.969 207.665 490.882 206.662C490.795 205.659 491.245 204.83 491.885 204.757C492.525 204.685 493.135 205.441 493.223 206.444Z" fill="#2E353A" style="fill:#2E353A;fill:color(display-p3 0.1804 0.2078 0.2275);fill-opacity:1;"/>
<path d="M482.044 207.462C482.146 208.436 481.681 209.294 481.041 209.352C480.401 209.41 479.805 208.654 479.703 207.665C479.602 206.677 480.067 205.834 480.707 205.775C481.346 205.717 481.971 206.444 482.044 207.462Z" fill="#2E353A" style="fill:#2E353A;fill:color(display-p3 0.1804 0.2078 0.2275);fill-opacity:1;"/>
<path d="M480.983 205.79L478.555 205.325C478.555 205.325 479.936 207.069 480.983 205.79Z" fill="#2E353A" style="fill:#2E353A;fill:color(display-p3 0.1804 0.2078 0.2275);fill-opacity:1;"/>
<path d="M492.188 204.77L489.76 204.305C489.76 204.305 491.141 206.05 492.188 204.77Z" fill="#2E353A" style="fill:#2E353A;fill:color(display-p3 0.1804 0.2078 0.2275);fill-opacity:1;"/>
<path d="M486.463 219.63C487.953 219.816 489.466 219.66 490.887 219.174C492.307 218.687 493.599 217.884 494.663 216.824C494.663 216.824 498.297 223.439 488.498 224.515C488.342 222.715 487.631 221.008 486.463 219.63Z" fill="#263238" style="fill:#263238;fill:color(display-p3 0.1490 0.1961 0.2196);fill-opacity:1;"/>
<path d="M487.328 219.699L488.041 221.153C488.041 221.153 492.664 221.153 495.121 217.969C495.004 217.553 494.848 217.149 494.655 216.762C493.703 217.731 492.56 218.492 491.299 218.998C490.038 219.503 488.686 219.742 487.328 219.699Z" fill="white" style="fill:white;fill-opacity:1;"/>
<path d="M489.164 224.41C493.962 223.712 495.212 221.502 495.314 219.729C490.574 220.979 489.426 223.349 489.164 224.41Z" fill="#DE5753" style="fill:#DE5753;fill:color(display-p3 0.8706 0.3412 0.3255);fill-opacity:1;"/>
<path d="M491.235 191.467C490.351 193.107 489.093 194.515 487.562 195.576C486.031 196.637 484.27 197.321 482.424 197.573C475.824 198.721 478.179 215.949 478.179 215.949C478.179 215.949 463.917 181.174 494.971 183.645L491.235 191.467Z" fill="#263238" style="fill:#263238;fill:color(display-p3 0.1490 0.1961 0.2196);fill-opacity:1;"/>
<path d="M495.748 184.315C495.231 184.197 494.696 184.188 494.175 184.289C493.655 184.39 493.162 184.598 492.727 184.901C492.292 185.203 491.924 185.593 491.648 186.045C491.373 186.498 491.194 187.003 491.124 187.528C490.761 190.436 491.372 194.07 496.067 195.582C504.369 198.243 503.598 207.024 503.598 207.024L505.052 200.511C505.052 200.511 505.517 209.815 510.199 208.71C514.88 207.605 515.345 198.824 515.345 198.824L507.611 186.99L495.748 184.315Z" fill="#263238" style="fill:#263238;fill:color(display-p3 0.1490 0.1961 0.2196);fill-opacity:1;"/>
<path d="M490.486 242.455C490.593 242.412 490.709 242.398 490.823 242.417C490.937 242.436 491.043 242.485 491.13 242.56C491.217 242.636 491.282 242.733 491.317 242.843C491.353 242.953 491.357 243.07 491.329 243.182C490.777 245.581 490.297 250.785 496.621 250.785C502.946 250.785 508.63 245.624 511.058 243.138C511.427 242.76 511.9 242.498 512.417 242.387C512.935 242.276 513.473 242.32 513.966 242.513L515.623 243.167C515.798 243.237 515.955 243.344 516.084 243.481C516.214 243.618 516.311 243.781 516.371 243.96C516.43 244.139 516.45 244.328 516.429 244.515C516.408 244.702 516.346 244.882 516.248 245.043C513.442 249.695 503.382 264.524 495.255 252.501C495.255 252.501 490.53 259.77 487.622 253.271C486.553 250.817 486.323 248.078 486.968 245.479C487.105 244.904 487.381 244.372 487.771 243.929C488.162 243.485 488.654 243.144 489.207 242.935L490.486 242.455Z" fill="#407BFF" style="fill:#407BFF;fill:color(display-p3 0.2510 0.4824 1.0000);fill-opacity:1;"/>
<path opacity="0.6" d="M490.486 242.455C490.593 242.412 490.709 242.398 490.823 242.417C490.937 242.436 491.043 242.485 491.13 242.56C491.217 242.636 491.282 242.733 491.317 242.843C491.353 242.953 491.357 243.07 491.329 243.182C490.777 245.581 490.297 250.785 496.621 250.785C502.946 250.785 508.63 245.624 511.058 243.138C511.427 242.76 511.9 242.498 512.417 242.387C512.935 242.276 513.473 242.32 513.966 242.513L515.623 243.167C515.798 243.237 515.955 243.344 516.084 243.481C516.214 243.618 516.311 243.781 516.371 243.96C516.43 244.139 516.45 244.328 516.429 244.515C516.408 244.702 516.346 244.882 516.248 245.043C513.442 249.695 503.382 264.524 495.255 252.501C495.255 252.501 490.53 259.77 487.622 253.271C486.553 250.817 486.323 248.078 486.968 245.479C487.105 244.904 487.381 244.372 487.771 243.929C488.162 243.485 488.654 243.144 489.207 242.935L490.486 242.455Z" fill="white" style="fill:white;fill-opacity:1;"/>
<path d="M462.036 251.25C462.232 251.099 462.457 250.99 462.697 250.93C462.937 250.869 463.187 250.859 463.431 250.899C463.675 250.94 463.908 251.03 464.115 251.164C464.323 251.298 464.501 251.474 464.638 251.68C464.775 251.886 464.868 252.118 464.912 252.361C464.955 252.605 464.948 252.854 464.891 253.095C464.834 253.336 464.727 253.562 464.579 253.76C464.431 253.958 464.243 254.123 464.028 254.245L437.728 271.691C437.532 271.821 437.311 271.911 437.08 271.955C436.849 272 436.611 271.999 436.38 271.951C435.914 271.856 435.504 271.579 435.242 271.182C434.98 270.785 434.886 270.3 434.982 269.834C435.077 269.368 435.354 268.958 435.751 268.696L462.036 251.25Z" fill="#263238" style="fill:#263238;fill:color(display-p3 0.1490 0.1961 0.2196);fill-opacity:1;"/>
<path opacity="0.6" d="M462.036 251.25C462.232 251.099 462.457 250.99 462.697 250.93C462.937 250.869 463.187 250.859 463.431 250.899C463.675 250.94 463.908 251.03 464.115 251.164C464.323 251.298 464.501 251.474 464.638 251.68C464.775 251.886 464.868 252.118 464.912 252.361C464.955 252.605 464.948 252.854 464.891 253.095C464.834 253.336 464.727 253.562 464.579 253.76C464.431 253.958 464.243 254.123 464.028 254.245L437.728 271.691C437.532 271.821 437.311 271.911 437.08 271.955C436.849 272 436.611 271.999 436.38 271.951C435.914 271.856 435.504 271.579 435.242 271.182C434.98 270.785 434.886 270.3 434.982 269.834C435.077 269.368 435.354 268.958 435.751 268.696L462.036 251.25Z" fill="white" style="fill:white;fill-opacity:1;"/>
<path d="M435.754 268.651C434.921 269.515 434.216 270.494 433.661 271.558C433.608 271.65 433.582 271.755 433.586 271.86C433.59 271.966 433.623 272.068 433.682 272.156C433.741 272.243 433.824 272.313 433.92 272.356C434.016 272.4 434.123 272.415 434.228 272.401C435.426 272.313 436.606 272.053 437.731 271.631C437.928 271.501 438.097 271.334 438.229 271.139C438.361 270.943 438.453 270.724 438.501 270.493C438.548 270.262 438.549 270.025 438.504 269.793C438.46 269.562 438.37 269.342 438.24 269.145C438.11 268.948 437.943 268.779 437.748 268.647C437.553 268.515 437.333 268.423 437.103 268.376C436.872 268.328 436.634 268.327 436.402 268.372C436.171 268.416 435.951 268.506 435.754 268.636V268.651Z" fill="#263238" style="fill:#263238;fill:color(display-p3 0.1490 0.1961 0.2196);fill-opacity:1;"/>
<path opacity="0.8" d="M435.754 268.651C434.921 269.515 434.216 270.494 433.661 271.558C433.608 271.65 433.582 271.755 433.586 271.86C433.59 271.966 433.623 272.068 433.682 272.156C433.741 272.243 433.824 272.313 433.92 272.356C434.016 272.4 434.123 272.415 434.228 272.401C435.426 272.313 436.606 272.053 437.731 271.631C437.928 271.501 438.097 271.334 438.229 271.139C438.361 270.943 438.453 270.724 438.501 270.493C438.548 270.262 438.549 270.025 438.504 269.793C438.46 269.562 438.37 269.342 438.24 269.145C438.11 268.948 437.943 268.779 437.748 268.647C437.553 268.515 437.333 268.423 437.103 268.376C436.872 268.328 436.634 268.327 436.402 268.372C436.171 268.416 435.951 268.506 435.754 268.636V268.651Z" fill="white" style="fill:white;fill-opacity:1;"/>
<path d="M472.072 280.267L460.601 272.227L457.955 261.222C457.71 260.159 457.172 259.187 456.4 258.415C455.629 257.644 454.657 257.105 453.594 256.86C452.216 256.548 450.772 256.747 449.53 257.421C448.289 258.095 447.336 259.198 446.848 260.524L445.961 262.908C445.723 263.556 445.6 264.24 445.598 264.929V266.95C445.598 268.403 446.143 269.804 447.124 270.875L448.694 272.591C449.115 273.048 449.606 273.436 450.148 273.739L456.952 277.534L467.696 288.263L472.072 280.267Z" fill="#EBB376" style="fill:#EBB376;fill:color(display-p3 0.9216 0.7020 0.4627);fill-opacity:1;"/>
<path d="M530.725 247.673C530.983 246.945 531.426 246.298 532.011 245.794C532.596 245.291 533.302 244.949 534.06 244.802C534.818 244.655 535.601 244.709 536.331 244.957C537.062 245.206 537.715 245.641 538.226 246.219C540.654 249.214 542.05 254.942 537.907 266.238C529.634 288.7 516.462 306.335 499.962 306.335C480.393 306.335 460.592 283.684 460.592 283.684L467.454 275.601C467.454 275.601 487.328 289.078 500.587 289.078C508.161 289.136 520.461 274.423 530.725 247.673Z" fill="#407BFF" style="fill:#407BFF;fill:color(display-p3 0.2510 0.4824 1.0000);fill-opacity:1;"/>
<path opacity="0.2" d="M530.725 247.673C530.983 246.945 531.426 246.298 532.011 245.794C532.596 245.291 533.302 244.949 534.06 244.802C534.818 244.655 535.601 244.709 536.331 244.957C537.062 245.206 537.715 245.641 538.226 246.219C540.654 249.214 542.05 254.942 537.907 266.238C529.634 288.7 516.462 306.335 499.962 306.335C480.393 306.335 460.592 283.684 460.592 283.684L467.454 275.601C467.454 275.601 487.328 289.078 500.587 289.078C508.161 289.136 520.461 274.423 530.725 247.673Z" fill="white" style="fill:white;fill-opacity:1;"/>
<path d="M458.878 282.858L466.612 273.525C466.743 273.368 466.929 273.267 467.132 273.243C467.334 273.218 467.539 273.272 467.703 273.394L471.017 275.807C471.107 275.872 471.182 275.954 471.238 276.048C471.294 276.143 471.33 276.248 471.344 276.357C471.357 276.466 471.348 276.577 471.317 276.683C471.286 276.788 471.234 276.886 471.163 276.97L462.44 287.452C462.36 287.551 462.258 287.628 462.142 287.68C462.027 287.731 461.901 287.754 461.774 287.747C461.648 287.74 461.525 287.703 461.416 287.639C461.307 287.575 461.214 287.486 461.146 287.38L458.791 283.818C458.701 283.669 458.661 283.496 458.677 283.324C458.693 283.151 458.763 282.988 458.878 282.858Z" fill="#407BFF" style="fill:#407BFF;fill:color(display-p3 0.2510 0.4824 1.0000);fill-opacity:1;"/>
<path opacity="0.6" d="M458.878 282.858L466.612 273.525C466.743 273.368 466.929 273.267 467.132 273.243C467.334 273.218 467.539 273.272 467.703 273.394L471.017 275.807C471.107 275.872 471.182 275.954 471.238 276.048C471.294 276.143 471.33 276.248 471.344 276.357C471.357 276.466 471.348 276.577 471.317 276.683C471.286 276.788 471.234 276.886 471.163 276.97L462.44 287.452C462.36 287.551 462.258 287.628 462.142 287.68C462.027 287.731 461.901 287.754 461.774 287.747C461.648 287.74 461.525 287.703 461.416 287.639C461.307 287.575 461.214 287.486 461.146 287.38L458.791 283.818C458.701 283.669 458.661 283.496 458.677 283.324C458.693 283.151 458.763 282.988 458.878 282.858Z" fill="white" style="fill:white;fill-opacity:1;"/>
<path d="M494.58 183.53H491.861V183.631C496.864 184.156 501.495 186.514 504.861 190.251C508.227 193.988 510.091 198.839 510.092 203.869H514.919C514.915 198.476 512.771 193.304 508.958 189.491C505.144 185.677 499.973 183.533 494.58 183.53Z" fill="#263238" style="fill:#263238;fill:color(display-p3 0.1490 0.1961 0.2196);fill-opacity:1;"/>
<path opacity="0.6" d="M494.58 183.53H491.861V183.631C496.864 184.156 501.495 186.514 504.861 190.251C508.227 193.988 510.091 198.839 510.092 203.869H514.919C514.915 198.476 512.771 193.304 508.958 189.491C505.144 185.677 499.973 183.533 494.58 183.53Z" fill="white" style="fill:white;fill-opacity:1;"/>
<path d="M512.573 219.745C516.218 219.745 519.173 215.794 519.173 210.92C519.173 206.046 516.218 202.095 512.573 202.095C508.928 202.095 505.973 206.046 505.973 210.92C505.973 215.794 508.928 219.745 512.573 219.745Z" fill="#407BFF" style="fill:#407BFF;fill:color(display-p3 0.2510 0.4824 1.0000);fill-opacity:1;"/>
<path d="M519.95 210.918C519.95 214.858 518.757 216.733 515.588 216.733C512.419 216.733 511.227 214.887 511.227 210.918C511.227 206.949 512.433 205.103 515.588 205.103C518.743 205.103 519.95 206.964 519.95 210.918Z" fill="#263238" style="fill:#263238;fill:color(display-p3 0.1490 0.1961 0.2196);fill-opacity:1;"/>
<path opacity="0.5" d="M519.95 210.918C519.95 214.858 518.757 216.733 515.588 216.733C512.419 216.733 511.227 214.887 511.227 210.918C511.227 206.949 512.433 205.103 515.588 205.103C518.743 205.103 519.95 206.964 519.95 210.918Z" fill="white" style="fill:white;fill-opacity:1;"/>
<path d="M516.531 216.166C518.699 216.166 520.456 213.816 520.456 210.918C520.456 208.019 518.699 205.669 516.531 205.669C514.363 205.669 512.605 208.019 512.605 210.918C512.605 213.816 514.363 216.166 516.531 216.166Z" fill="#263238" style="fill:#263238;fill:color(display-p3 0.1490 0.1961 0.2196);fill-opacity:1;"/>
<path opacity="0.7" d="M516.531 216.166C518.699 216.166 520.456 213.816 520.456 210.918C520.456 208.019 518.699 205.669 516.531 205.669C514.363 205.669 512.605 208.019 512.605 210.918C512.605 213.816 514.363 216.166 516.531 216.166Z" fill="white" style="fill:white;fill-opacity:1;"/>
<path d="M247.261 517.52H240.297L237.244 335.355H250.314L247.261 517.52Z" fill="#263238" style="fill:#263238;fill:color(display-p3 0.1490 0.1961 0.2196);fill-opacity:1;"/>
<path opacity="0.7" d="M247.261 517.52H240.297L237.244 335.355H250.314L247.261 517.52Z" fill="white" style="fill:white;fill-opacity:1;"/>
<path d="M324.176 517.52H317.198L314.145 335.355H327.229L324.176 517.52Z" fill="#263238" style="fill:#263238;fill:color(display-p3 0.1490 0.1961 0.2196);fill-opacity:1;"/>
<path opacity="0.7" d="M324.176 517.52H317.198L314.145 335.355H327.229L324.176 517.52Z" fill="white" style="fill:white;fill-opacity:1;"/>
<path d="M375.262 332.307H243.777V346.554H375.262V332.307Z" fill="#263238" style="fill:#263238;fill:color(display-p3 0.1490 0.1961 0.2196);fill-opacity:1;"/>
<path opacity="0.5" d="M375.262 332.307H243.777V346.554H375.262V332.307Z" fill="white" style="fill:white;fill-opacity:1;"/>
<path d="M452.377 332.307H375.266V346.554H452.377V332.307Z" fill="#263238" style="fill:#263238;fill:color(display-p3 0.1490 0.1961 0.2196);fill-opacity:1;"/>
<path opacity="0.5" d="M452.377 332.307H375.266V346.554H452.377V332.307Z" fill="white" style="fill:white;fill-opacity:1;"/>
<path d="M455.666 517.52H448.688L445.635 335.355H458.705L455.666 517.52Z" fill="#263238" style="fill:#263238;fill:color(display-p3 0.1490 0.1961 0.2196);fill-opacity:1;"/>
<path opacity="0.7" d="M455.666 517.52H448.688L445.635 335.355H458.705L455.666 517.52Z" fill="white" style="fill:white;fill-opacity:1;"/>
<path d="M462.833 323.145H360.163C358.035 323.145 356.311 324.87 356.311 326.998V331.505C356.311 333.632 358.035 335.357 360.163 335.357H462.833C464.96 335.357 466.685 333.632 466.685 331.505V326.998C466.685 324.87 464.96 323.145 462.833 323.145Z" fill="#263238" style="fill:#263238;fill:color(display-p3 0.1490 0.1961 0.2196);fill-opacity:1;"/>
<path d="M369.642 323.145H230.263C228.135 323.145 226.41 324.87 226.41 326.998V331.505C226.41 333.632 228.135 335.357 230.263 335.357H369.642C371.769 335.357 373.494 333.632 373.494 331.505V326.998C373.494 324.87 371.769 323.145 369.642 323.145Z" fill="#263238" style="fill:#263238;fill:color(display-p3 0.1490 0.1961 0.2196);fill-opacity:1;"/>
<path opacity="0.2" d="M369.642 323.145H230.263C228.135 323.145 226.41 324.87 226.41 326.998V331.505C226.41 333.632 228.135 335.357 230.263 335.357H369.642C371.769 335.357 373.494 333.632 373.494 331.505V326.998C373.494 324.87 371.769 323.145 369.642 323.145Z" fill="white" style="fill:white;fill-opacity:1;"/>
<path d="M378.751 517.52H371.787L368.734 335.355H381.804L378.751 517.52Z" fill="#263238" style="fill:#263238;fill:color(display-p3 0.1490 0.1961 0.2196);fill-opacity:1;"/>
<path opacity="0.7" d="M378.751 517.52H371.787L368.734 335.355H381.804L378.751 517.52Z" fill="white" style="fill:white;fill-opacity:1;"/>
<path d="M375.076 323.157C374.537 323.157 374.019 322.942 373.637 322.561C373.255 322.179 373.041 321.661 373.041 321.121C373.041 320.581 373.255 320.064 373.637 319.682C374.019 319.3 374.537 319.086 375.076 319.086H430.54C431.08 319.086 431.598 319.3 431.979 319.682C432.361 320.064 432.575 320.581 432.575 321.121C432.575 321.661 432.361 322.179 431.979 322.561C431.598 322.942 431.08 323.157 430.54 323.157H375.076Z" fill="#407BFF" style="fill:#407BFF;fill:color(display-p3 0.2510 0.4824 1.0000);fill-opacity:1;"/>
<path d="M379.851 319.642L372.466 267.101C372.311 266.144 371.826 265.273 371.096 264.635C370.366 263.998 369.436 263.636 368.468 263.612H361.402V323.146H376.842C377.288 323.171 377.734 323.093 378.145 322.918C378.556 322.744 378.921 322.476 379.212 322.137C379.503 321.799 379.712 321.397 379.823 320.964C379.934 320.532 379.944 320.079 379.851 319.642Z" fill="#407BFF" style="fill:#407BFF;fill:color(display-p3 0.2510 0.4824 1.0000);fill-opacity:1;"/>
<path d="M373.789 323.145H311.114C310.145 323.119 309.216 322.754 308.488 322.114C307.76 321.474 307.28 320.599 307.131 319.641L299.745 267.1C299.655 266.664 299.667 266.213 299.779 265.782C299.891 265.351 300.101 264.952 300.391 264.615C300.682 264.277 301.046 264.012 301.456 263.837C301.866 263.663 302.31 263.586 302.755 263.61H365.458C366.426 263.638 367.354 264.001 368.084 264.638C368.813 265.274 369.298 266.145 369.456 267.1L376.842 319.641C376.935 320.082 376.925 320.539 376.812 320.975C376.699 321.411 376.486 321.815 376.19 322.155C375.894 322.495 375.523 322.761 375.106 322.933C374.689 323.105 374.238 323.177 373.789 323.145Z" fill="#407BFF" style="fill:#407BFF;fill:color(display-p3 0.2510 0.4824 1.0000);fill-opacity:1;"/>
<path opacity="0.7" d="M373.789 323.145H311.114C310.145 323.119 309.216 322.754 308.488 322.114C307.76 321.474 307.28 320.599 307.131 319.641L299.745 267.1C299.655 266.664 299.667 266.213 299.779 265.782C299.891 265.351 300.101 264.952 300.391 264.615C300.682 264.277 301.046 264.012 301.456 263.837C301.866 263.663 302.31 263.586 302.755 263.61H365.458C366.426 263.638 367.354 264.001 368.084 264.638C368.813 265.274 369.298 266.145 369.456 267.1L376.842 319.641C376.935 320.082 376.925 320.539 376.812 320.975C376.699 321.411 376.486 321.815 376.19 322.155C375.894 322.495 375.523 322.761 375.106 322.933C374.689 323.105 374.238 323.177 373.789 323.145Z" fill="white" style="fill:white;fill-opacity:1;"/>
<path opacity="0.7" d="M341.307 291.948C341.378 292.345 341.36 292.753 341.254 293.143C341.148 293.533 340.956 293.894 340.693 294.2C340.43 294.506 340.102 294.75 339.733 294.914C339.364 295.077 338.963 295.157 338.559 295.146C337.675 295.118 336.828 294.783 336.162 294.2C335.497 293.617 335.054 292.821 334.91 291.948C334.839 291.55 334.857 291.142 334.963 290.752C335.069 290.363 335.261 290.002 335.524 289.695C335.787 289.389 336.115 289.145 336.484 288.982C336.853 288.818 337.254 288.739 337.658 288.749C338.544 288.772 339.394 289.105 340.06 289.689C340.727 290.273 341.168 291.072 341.307 291.948Z" fill="white" style="fill:white;fill-opacity:1;"/>
<path d="M287.487 292.888H263.267C262.882 292.889 262.502 292.973 262.153 293.137C261.805 293.3 261.496 293.537 261.25 293.832C261.003 294.128 260.824 294.474 260.725 294.845C260.627 295.217 260.611 295.606 260.679 295.985V296.203C259.47 295.902 258.202 295.943 257.015 296.319C252.654 297.628 252.523 301.524 253.831 305.9C255.14 310.276 257.379 313.46 261.755 312.152C262.459 311.936 263.129 311.623 263.746 311.221C264.614 313.269 266.021 315.043 267.817 316.353V319.552H282.85V316.353C285.381 314.519 287.11 311.781 287.676 308.706L290.032 295.985C290.099 295.61 290.084 295.225 289.988 294.856C289.892 294.487 289.717 294.143 289.475 293.849C289.233 293.554 288.93 293.316 288.587 293.15C288.244 292.984 287.869 292.895 287.487 292.888ZM261.188 309.375C258.28 310.233 256.826 308.139 255.983 305.261C255.14 302.382 255.212 299.838 258.076 298.98C259.131 298.632 260.281 298.715 261.275 299.213L262.976 308.401C262.458 308.852 261.848 309.185 261.188 309.375Z" fill="#407BFF" style="fill:#407BFF;fill:color(display-p3 0.2510 0.4824 1.0000);fill-opacity:1;"/>
<path opacity="0.5" d="M287.487 292.888H263.267C262.882 292.889 262.502 292.973 262.153 293.137C261.805 293.3 261.496 293.537 261.25 293.832C261.003 294.128 260.824 294.474 260.725 294.845C260.627 295.217 260.611 295.606 260.679 295.985V296.203C259.47 295.902 258.202 295.943 257.015 296.319C252.654 297.628 252.523 301.524 253.831 305.9C255.14 310.276 257.379 313.46 261.755 312.152C262.459 311.936 263.129 311.623 263.746 311.221C264.614 313.269 266.021 315.043 267.817 316.353V319.552H282.85V316.353C285.381 314.519 287.11 311.781 287.676 308.706L290.032 295.985C290.099 295.61 290.084 295.225 289.988 294.856C289.892 294.487 289.717 294.143 289.475 293.849C289.233 293.554 288.93 293.316 288.587 293.15C288.244 292.984 287.869 292.895 287.487 292.888ZM261.188 309.375C258.28 310.233 256.826 308.139 255.983 305.261C255.14 302.382 255.212 299.838 258.076 298.98C259.131 298.632 260.281 298.715 261.275 299.213L262.976 308.401C262.458 308.852 261.848 309.185 261.188 309.375Z" fill="white" style="fill:white;fill-opacity:1;"/>
<path d="M283.487 323.319H267.219C266.204 323.322 265.205 323.072 264.311 322.592L258.787 319.568C258.573 319.447 258.404 319.259 258.308 319.032C258.212 318.806 258.193 318.554 258.254 318.316C258.315 318.077 258.453 317.866 258.647 317.714C258.84 317.562 259.079 317.478 259.325 317.475H291.309C291.555 317.478 291.793 317.562 291.987 317.714C292.18 317.866 292.318 318.077 292.379 318.316C292.441 318.554 292.422 318.806 292.325 319.032C292.229 319.259 292.061 319.447 291.847 319.568L286.322 322.592C285.45 323.061 284.477 323.31 283.487 323.319Z" fill="#407BFF" style="fill:#407BFF;fill:color(display-p3 0.2510 0.4824 1.0000);fill-opacity:1;"/>
<path opacity="0.4" d="M283.487 323.319H267.219C266.204 323.322 265.205 323.072 264.311 322.592L258.787 319.568C258.573 319.447 258.404 319.259 258.308 319.032C258.212 318.806 258.193 318.554 258.254 318.316C258.315 318.077 258.453 317.866 258.647 317.714C258.84 317.562 259.079 317.478 259.325 317.475H291.309C291.555 317.478 291.793 317.562 291.987 317.714C292.18 317.866 292.318 318.077 292.379 318.316C292.441 318.554 292.422 318.806 292.325 319.032C292.229 319.259 292.061 319.447 291.847 319.568L286.322 322.592C285.45 323.061 284.477 323.31 283.487 323.319Z" fill="white" style="fill:white;fill-opacity:1;"/>
<path d="M391.918 119.634H295.747C291.54 119.634 288.129 123.045 288.129 127.252V203.709C288.129 207.916 291.54 211.327 295.747 211.327H391.918C396.125 211.327 399.536 207.916 399.536 203.709V127.252C399.536 123.045 396.125 119.634 391.918 119.634Z" fill="#407BFF" style="fill:#407BFF;fill:color(display-p3 0.2510 0.4824 1.0000);fill-opacity:1;"/>
<path opacity="0.6" d="M391.918 119.634H295.747C291.54 119.634 288.129 123.045 288.129 127.252V203.709C288.129 207.916 291.54 211.327 295.747 211.327H391.918C396.125 211.327 399.536 207.916 399.536 203.709V127.252C399.536 123.045 396.125 119.634 391.918 119.634Z" fill="white" style="fill:white;fill-opacity:1;"/>
<path d="M339.967 136.847C339.967 136.847 331.68 132.601 327.464 141.935C323.248 151.269 312.591 145.657 317.069 164.571C321.547 183.485 302.414 177.06 311.617 190.871C320.82 204.682 334.878 195.232 342.584 195.48C350.289 195.727 365.176 200.568 368.753 191.961C372.329 183.355 366.209 180.462 366.078 175.795C365.947 171.128 373.696 159.948 367.415 154.889C355.93 145.584 360.451 131.627 339.967 136.847Z" fill="#2E353A" style="fill:#2E353A;fill:color(display-p3 0.1804 0.2078 0.2275);fill-opacity:1;"/>
<path d="M342.566 184.959C352.539 184.959 360.623 174.616 360.623 161.857C360.623 149.099 352.539 138.756 342.566 138.756C332.594 138.756 324.51 149.099 324.51 161.857C324.51 174.616 332.594 184.959 342.566 184.959Z" fill="#B97964" style="fill:#B97964;fill:color(display-p3 0.7255 0.4745 0.3922);fill-opacity:1;"/>
<path d="M343.792 162.904C344.224 165.031 344.954 167.086 345.958 169.01C345.463 169.255 344.92 169.389 344.367 169.401C343.814 169.414 343.266 169.305 342.76 169.083L343.792 162.904Z" fill="#A24E3F" style="fill:#A24E3F;fill:color(display-p3 0.6353 0.3059 0.2471);fill-opacity:1;"/>
<path d="M335.838 162.976C335.838 163.819 336.172 164.531 336.725 164.575C337.277 164.619 337.757 163.95 337.815 163.121C337.873 162.292 337.466 161.58 336.928 161.551C336.39 161.522 335.838 162.147 335.838 162.976Z" fill="#2E353A" style="fill:#2E353A;fill:color(display-p3 0.1804 0.2078 0.2275);fill-opacity:1;"/>
<path d="M332.827 160.025C332.75 160.039 332.671 160.039 332.594 160.025C332.508 159.929 332.461 159.805 332.461 159.676C332.461 159.547 332.508 159.423 332.594 159.327C333.099 158.726 333.739 158.252 334.461 157.944C335.184 157.635 335.969 157.502 336.752 157.553C336.882 157.575 336.999 157.646 337.077 157.752C337.156 157.857 337.191 157.99 337.174 158.12C337.167 158.185 337.147 158.247 337.115 158.304C337.083 158.361 337.04 158.41 336.988 158.45C336.936 158.489 336.877 158.517 336.814 158.533C336.751 158.549 336.685 158.552 336.621 158.542C336 158.508 335.379 158.621 334.81 158.874C334.242 159.127 333.741 159.511 333.35 159.996C333.274 160.048 333.185 160.078 333.093 160.083C333 160.088 332.908 160.068 332.827 160.025Z" fill="#2E353A" style="fill:#2E353A;fill:color(display-p3 0.1804 0.2078 0.2275);fill-opacity:1;"/>
<path d="M350.919 162.976C350.919 163.819 350.57 164.531 350.018 164.575C349.465 164.619 348.986 163.95 348.927 163.121C348.869 162.292 349.276 161.58 349.829 161.551C350.381 161.522 350.861 162.147 350.919 162.976Z" fill="#2E353A" style="fill:#2E353A;fill:color(display-p3 0.1804 0.2078 0.2275);fill-opacity:1;"/>
<path d="M353.915 160.025C353.997 160.04 354.081 160.04 354.162 160.025C354.248 159.929 354.296 159.805 354.296 159.676C354.296 159.548 354.248 159.423 354.162 159.327C353.658 158.725 353.018 158.251 352.296 157.942C351.573 157.634 350.788 157.501 350.004 157.554C349.876 157.578 349.761 157.65 349.683 157.755C349.605 157.86 349.57 157.991 349.583 158.121C349.592 158.186 349.613 158.249 349.647 158.305C349.68 158.362 349.725 158.412 349.778 158.451C349.83 158.49 349.891 158.518 349.954 158.534C350.018 158.55 350.085 158.553 350.15 158.542C350.771 158.51 351.391 158.625 351.959 158.878C352.528 159.131 353.028 159.514 353.421 159.996C353.492 160.047 353.576 160.077 353.664 160.082C353.751 160.087 353.838 160.067 353.915 160.025Z" fill="#2E353A" style="fill:#2E353A;fill:color(display-p3 0.1804 0.2078 0.2275);fill-opacity:1;"/>
<path d="M343.809 175.795C344.296 175.792 344.782 175.749 345.262 175.665C345.331 175.65 345.391 175.611 345.431 175.555C345.472 175.498 345.489 175.428 345.481 175.359C345.475 175.325 345.463 175.291 345.445 175.262C345.426 175.232 345.402 175.206 345.374 175.186C345.345 175.165 345.313 175.151 345.279 175.143C345.245 175.136 345.21 175.135 345.175 175.141C344.074 175.35 342.939 175.301 341.859 174.998C340.78 174.696 339.785 174.147 338.953 173.397C338.902 173.349 338.834 173.322 338.764 173.322C338.694 173.322 338.626 173.349 338.575 173.397C338.549 173.421 338.529 173.45 338.515 173.483C338.501 173.515 338.494 173.55 338.494 173.586C338.494 173.621 338.501 173.656 338.515 173.688C338.529 173.721 338.549 173.75 338.575 173.775C339.99 175.104 341.868 175.829 343.809 175.795Z" fill="#2E353A" style="fill:#2E353A;fill:color(display-p3 0.1804 0.2078 0.2275);fill-opacity:1;"/>
<path d="M340.88 200.06C348.162 199.961 355.308 198.069 361.684 194.55C359.368 194.115 357.018 193.892 354.662 193.881C350.861 195.972 346.568 197.006 342.232 196.876C334.41 196.876 330.194 193.881 330.194 193.881C328.459 193.88 326.726 193.982 325.004 194.186C327.286 196.44 332.273 200.06 340.88 200.06Z" fill="#577AFB" style="fill:#577AFB;fill:color(display-p3 0.3412 0.4784 0.9843);fill-opacity:1;"/>
<path d="M352.625 196.468L355.925 194.374C354.228 194.124 352.616 193.466 351.229 192.455C346.97 189.271 349.281 181.145 349.281 181.145H337.054C336.764 186.015 336.894 190.318 334.147 192.339C332.525 193.589 330.552 194.301 328.506 194.374L332.867 196.977C332.591 197.587 335.775 198.736 335.775 198.736L347.915 199.419L350.241 197.965C350.241 197.965 353.294 197.384 352.625 196.468Z" fill="#B97964" style="fill:#B97964;fill:color(display-p3 0.7255 0.4745 0.3922);fill-opacity:1;"/>
<path d="M330.209 193.882C330.209 193.882 334.425 196.877 342.246 196.877C346.583 197.007 350.875 195.973 354.677 193.882C354.677 193.882 378.912 193.403 378.912 211.328H308.881C308.881 211.328 305.741 193.882 330.209 193.882Z" fill="#407BFF" style="fill:#407BFF;fill:color(display-p3 0.2510 0.4824 1.0000);fill-opacity:1;"/>
<path d="M323.521 157.478C323.521 157.478 324.321 165.242 326.865 164.98C329.41 164.718 327.621 152.739 332.419 151.896C337.217 151.052 339.95 149.991 340.139 146.982C340.328 143.972 347.771 146.08 346.768 142.257C349.327 143.383 351.37 145.427 352.496 147.985C354.575 152.434 355.157 150.166 356.683 153.262C358.21 156.359 359.591 165.489 362.033 158.816C364.476 152.143 358.21 146.531 358.21 146.531L352.671 139.989L347.495 138.811L343.061 137.895H337.115L333.131 138.811L327.447 144.903L323.958 150.892L323.521 157.478Z" fill="#2E353A" style="fill:#2E353A;fill:color(display-p3 0.1804 0.2078 0.2275);fill-opacity:1;"/>
<path d="M326.583 163.001C327.95 165.647 327.688 168.686 326.002 169.791C324.315 170.896 321.829 169.616 320.477 166.97C319.125 164.324 319.372 161.286 321.059 160.181C322.745 159.076 325.231 160.355 326.583 163.001Z" fill="#B97964" style="fill:#B97964;fill:color(display-p3 0.7255 0.4745 0.3922);fill-opacity:1;"/>
<path d="M357.554 163.001C356.187 165.647 356.463 168.686 358.15 169.791C359.836 170.896 362.308 169.616 363.674 166.97C365.041 164.324 364.779 161.286 363.078 160.181C361.377 159.076 358.92 160.355 357.554 163.001Z" fill="#B97964" style="fill:#B97964;fill:color(display-p3 0.7255 0.4745 0.3922);fill-opacity:1;"/>
<path d="M323.996 165.025C323.632 165.118 323.318 165.349 323.12 165.669C322.922 165.989 322.856 166.373 322.935 166.741L323.677 171.495C323.698 171.62 323.768 171.732 323.872 171.805C323.975 171.879 324.104 171.909 324.229 171.887C324.354 171.866 324.466 171.796 324.54 171.692C324.613 171.589 324.643 171.46 324.622 171.335L324.098 168.035H324.403C324.754 167.923 325.052 167.69 325.246 167.378C325.439 167.065 325.515 166.694 325.459 166.331C325.403 165.968 325.219 165.637 324.94 165.397C324.661 165.158 324.306 165.026 323.938 165.025H323.996Z" fill="white" style="fill:white;fill-opacity:1;"/>
<path d="M361.025 165.025C361.39 165.119 361.704 165.349 361.902 165.669C362.1 165.989 362.166 166.373 362.086 166.741L361.33 171.495C361.309 171.62 361.239 171.732 361.135 171.805C361.032 171.879 360.903 171.909 360.778 171.888C360.652 171.866 360.539 171.796 360.463 171.693C360.387 171.59 360.354 171.462 360.371 171.335L360.894 168.035H360.56C360.208 167.923 359.909 167.689 359.715 167.375C359.522 167.061 359.447 166.688 359.506 166.324C359.564 165.96 359.75 165.628 360.032 165.39C360.313 165.152 360.671 165.023 361.04 165.025H361.025Z" fill="white" style="fill:white;fill-opacity:1;"/>
<path d="M398.048 132.72C405.283 132.72 411.147 126.855 411.147 119.621C411.147 112.387 405.283 106.522 398.048 106.522C390.814 106.522 384.949 112.387 384.949 119.621C384.949 126.855 390.814 132.72 398.048 132.72Z" fill="#407BFF" style="fill:#407BFF;fill:color(display-p3 0.2510 0.4824 1.0000);fill-opacity:1;"/>
<path d="M390.501 127.165C390.296 126.96 390.182 126.683 390.182 126.394C390.182 126.105 390.296 125.828 390.501 125.624L404.05 112.074C404.255 111.87 404.532 111.755 404.821 111.755C405.11 111.755 405.387 111.87 405.591 112.074C405.796 112.278 405.91 112.556 405.91 112.845C405.91 113.133 405.796 113.411 405.591 113.615L392.056 127.165C391.847 127.366 391.569 127.479 391.278 127.479C390.988 127.479 390.709 127.366 390.501 127.165Z" fill="white" style="fill:white;fill-opacity:1;"/>
<path d="M402.378 127.43H398.555V124.522C399.674 124.403 400.71 123.874 401.461 123.036C402.213 122.198 402.628 121.112 402.625 119.986V118.445C402.625 118.412 402.619 118.38 402.606 118.35C402.594 118.32 402.576 118.293 402.553 118.27C402.53 118.247 402.503 118.229 402.473 118.217C402.443 118.204 402.411 118.198 402.378 118.198H401.767C401.701 118.198 401.636 118.223 401.587 118.269C401.539 118.315 401.51 118.378 401.506 118.445C401.506 118.479 401.513 118.512 401.526 118.543C401.539 118.574 401.559 118.602 401.583 118.625C401.608 118.648 401.637 118.666 401.668 118.678C401.7 118.689 401.734 118.694 401.767 118.692H402.131V119.986C402.131 121.066 401.702 122.101 400.939 122.864C400.175 123.628 399.14 124.057 398.06 124.057C396.981 124.057 395.945 123.628 395.182 122.864C394.418 122.101 393.989 121.066 393.989 119.986V118.692H394.367C394.433 118.692 394.496 118.666 394.542 118.62C394.589 118.573 394.615 118.51 394.615 118.445C394.611 118.38 394.584 118.32 394.538 118.274C394.493 118.228 394.432 118.201 394.367 118.198H393.742C393.678 118.201 393.617 118.228 393.571 118.274C393.526 118.32 393.499 118.38 393.495 118.445V119.986C393.496 121.111 393.911 122.196 394.663 123.033C395.414 123.87 396.448 124.4 397.566 124.522V127.43H393.742C393.61 127.433 393.484 127.489 393.392 127.584C393.3 127.679 393.248 127.806 393.248 127.938V128.433H402.872V127.938C402.872 127.806 402.821 127.679 402.729 127.584C402.636 127.489 402.511 127.433 402.378 127.43Z" fill="white" style="fill:white;fill-opacity:1;"/>
<path d="M394.986 120.045C395.039 120.824 395.387 121.554 395.957 122.086C396.528 122.619 397.28 122.916 398.061 122.916C398.841 122.916 399.593 122.619 400.164 122.086C400.735 121.554 401.082 120.824 401.136 120.045V113.895C401.165 113.474 401.107 113.051 400.965 112.652C400.824 112.254 400.602 111.889 400.314 111.58C400.025 111.272 399.676 111.025 399.289 110.857C398.901 110.688 398.483 110.602 398.061 110.602C397.638 110.602 397.22 110.688 396.832 110.857C396.445 111.025 396.096 111.272 395.808 111.58C395.519 111.889 395.298 112.254 395.156 112.652C395.015 113.051 394.957 113.474 394.986 113.895V120.045Z" fill="white" style="fill:white;fill-opacity:1;"/>
<path d="M262.244 154.571H118.257C114.049 154.571 110.639 157.981 110.639 162.189V269.699C110.639 273.907 114.049 277.317 118.257 277.317H262.244C266.451 277.317 269.862 273.907 269.862 269.699V162.189C269.862 157.981 266.451 154.571 262.244 154.571Z" fill="#407BFF" style="fill:#407BFF;fill:color(display-p3 0.2510 0.4824 1.0000);fill-opacity:1;"/>
<path d="M180.591 164.894C180.591 164.894 173.205 162.641 171.563 178.488C169.92 194.335 158.58 199.612 170.618 205.427C182.655 211.243 194.286 204.875 199.011 205.427C203.736 205.98 212.27 202.883 211.732 195.061C211.194 187.24 197.281 164.531 197.281 164.531L180.591 164.894Z" fill="#263238" style="fill:#263238;fill:color(display-p3 0.1490 0.1961 0.2196);fill-opacity:1;"/>
<path d="M240.796 234.645C238.194 243.368 230.721 266.484 225.008 265.684C217.986 264.725 213.145 239.516 213.145 239.516L215.078 208.985C215.078 208.985 222.827 208.985 226.229 248.006L234.429 230.356L240.796 234.645Z" fill="#263238" style="fill:#263238;fill:color(display-p3 0.1490 0.1961 0.2196);fill-opacity:1;"/>
<path d="M235.125 230.622L238.033 224.283L242.598 220.547L245.069 217.886C245.697 217.209 246.524 216.748 247.43 216.57C248.337 216.392 249.277 216.507 250.114 216.898L251.568 217.581C252.417 217.975 253.118 218.631 253.565 219.453C254.013 220.275 254.184 221.219 254.054 222.146L253.283 227.671L240.926 231.669C240.926 231.669 240.577 232.905 239.981 234.911L235.125 230.622Z" fill="#EEC1BB" style="fill:#EEC1BB;fill:color(display-p3 0.9333 0.7569 0.7333);fill-opacity:1;"/>
<path d="M233.95 228.396L242.615 234.327L241.946 237.613L232.365 230.809L233.95 228.396Z" fill="#263238" style="fill:#263238;fill:color(display-p3 0.1490 0.1961 0.2196);fill-opacity:1;"/>
<path opacity="0.2" d="M233.95 228.396L242.615 234.327L241.946 237.613L232.365 230.809L233.95 228.396Z" fill="white" style="fill:white;fill-opacity:1;"/>
<path d="M167.931 277.315C167.931 277.315 166.608 242.671 156.184 211.893C175.474 207.378 195.422 206.393 215.064 208.985C215.064 208.985 219.905 231.04 214.09 277.315H167.931Z" fill="#263238" style="fill:#263238;fill:color(display-p3 0.1490 0.1961 0.2196);fill-opacity:1;"/>
<path opacity="0.2" d="M167.931 277.315C167.931 277.315 166.608 242.671 156.184 211.893C175.474 207.378 195.422 206.393 215.064 208.985C215.064 208.985 219.905 231.04 214.09 277.315H167.931Z" fill="white" style="fill:white;fill-opacity:1;"/>
<path d="M175.296 257.952C177.055 257.283 178.087 256.862 178.087 256.862L185.909 253.227L191.724 247.703C192.085 247.356 192.366 246.935 192.546 246.468C192.726 246.001 192.802 245.5 192.767 245.001C192.732 244.502 192.589 244.016 192.345 243.578C192.102 243.141 191.766 242.762 191.361 242.469L187.683 239.881C187.31 239.614 186.887 239.425 186.439 239.324C185.992 239.224 185.529 239.214 185.078 239.295C184.626 239.376 184.196 239.547 183.812 239.798C183.428 240.048 183.098 240.373 182.841 240.753L176.27 250.538C176.27 250.538 174.816 250.959 172.461 251.541L175.296 257.952Z" fill="#EEC1BB" style="fill:#EEC1BB;fill:color(display-p3 0.9333 0.7569 0.7333);fill-opacity:1;"/>
<path d="M175.438 258.854C166.919 262.067 141.389 270.863 133.713 263.942C124.452 255.583 156.189 211.895 156.189 211.895C164.665 221.476 161.612 231.377 161.612 231.377C161.612 231.377 145.286 248.604 146.827 252.85C148.179 256.644 164.956 252.85 172.632 250.945L175.438 258.854Z" fill="#263238" style="fill:#263238;fill:color(display-p3 0.1490 0.1961 0.2196);fill-opacity:1;"/>
<path d="M173.631 249.896L177.266 259.099L174.358 260.8L170.607 249.896H173.631Z" fill="#263238" style="fill:#263238;fill:color(display-p3 0.1490 0.1961 0.2196);fill-opacity:1;"/>
<path opacity="0.2" d="M173.631 249.896L177.266 259.099L174.358 260.8L170.607 249.896H173.631Z" fill="white" style="fill:white;fill-opacity:1;"/>
<path d="M195.773 207.621H193.069C192.656 204.864 192.91 202.047 193.81 199.407L183.197 188.591C183.735 193.534 183.968 202.897 181.656 208.043C180.202 208.145 178.85 208.261 177.527 208.392C178.196 210.34 180.755 215.298 189.565 215.298C198.375 215.298 196.747 209.73 195.773 207.621Z" fill="#EEC1BB" style="fill:#EEC1BB;fill:color(display-p3 0.9333 0.7569 0.7333);fill-opacity:1;"/>
<path opacity="0.1" d="M185.194 192.562L183.973 195.833C185.881 199.552 189.043 202.477 192.899 204.091C193.026 202.501 193.333 200.93 193.815 199.409L186.779 192.228L185.194 192.562Z" fill="black" style="fill:black;fill-opacity:1;"/>
<path d="M177.789 180.494C180.362 190.293 181.234 194.509 187.253 198.609C196.296 204.802 207.781 199.51 208.203 189.13C208.595 179.781 204.336 165.316 193.839 163.281C191.531 162.833 189.147 162.981 186.912 163.71C184.677 164.439 182.664 165.725 181.064 167.447C179.464 169.17 178.329 171.271 177.766 173.554C177.203 175.837 177.231 178.225 177.847 180.494H177.789Z" fill="#EEC1BB" style="fill:#EEC1BB;fill:color(display-p3 0.9333 0.7569 0.7333);fill-opacity:1;"/>
<path d="M176.985 188.796C177.438 189.657 178.057 190.42 178.805 191.041C179.554 191.662 180.417 192.129 181.347 192.416C183.833 193.172 185.127 190.962 184.473 188.578C183.891 186.441 181.899 183.475 179.37 183.765C178.494 183.898 177.707 184.372 177.179 185.082C176.65 185.793 176.424 186.683 176.549 187.56C176.613 187.996 176.761 188.416 176.985 188.796Z" fill="#EEC1BB" style="fill:#EEC1BB;fill:color(display-p3 0.9333 0.7569 0.7333);fill-opacity:1;"/>
<path d="M200.393 180.362C201.468 182.065 202.774 183.611 204.274 184.956C203.926 185.336 203.497 185.633 203.019 185.827C202.542 186.02 202.027 186.105 201.512 186.075L200.393 180.362Z" fill="#D58745" style="fill:#D58745;fill:color(display-p3 0.8353 0.5294 0.2706);fill-opacity:1;"/>
<path d="M191.638 176.683C191.571 176.698 191.502 176.698 191.435 176.683C191.345 176.626 191.281 176.536 191.257 176.433C191.233 176.33 191.249 176.221 191.304 176.13C191.677 175.475 192.202 174.92 192.834 174.51C193.467 174.1 194.188 173.848 194.938 173.775C195.045 173.775 195.148 173.815 195.227 173.888C195.305 173.961 195.353 174.061 195.36 174.167C195.364 174.273 195.327 174.376 195.256 174.455C195.186 174.533 195.087 174.582 194.982 174.589C194.363 174.655 193.768 174.868 193.248 175.209C192.727 175.55 192.295 176.011 191.987 176.552C191.947 176.604 191.893 176.644 191.832 176.668C191.77 176.691 191.703 176.696 191.638 176.683Z" fill="#2E353A" style="fill:#2E353A;fill:color(display-p3 0.1804 0.2078 0.2275);fill-opacity:1;"/>
<path d="M201.275 172.498C201.228 172.449 201.193 172.389 201.173 172.324C201.158 172.273 201.153 172.22 201.158 172.167C201.164 172.115 201.18 172.064 201.206 172.018C201.232 171.971 201.267 171.931 201.309 171.899C201.35 171.866 201.398 171.843 201.45 171.829C202.171 171.606 202.935 171.558 203.678 171.689C204.422 171.821 205.123 172.128 205.724 172.585C205.774 172.616 205.817 172.657 205.849 172.706C205.882 172.755 205.903 172.811 205.912 172.869C205.922 172.927 205.918 172.986 205.902 173.043C205.886 173.1 205.858 173.152 205.819 173.197C205.781 173.241 205.734 173.277 205.68 173.302C205.627 173.326 205.568 173.339 205.51 173.339C205.451 173.339 205.393 173.326 205.339 173.301C205.286 173.277 205.239 173.241 205.2 173.196C204.701 172.824 204.119 172.576 203.505 172.475C202.89 172.374 202.26 172.422 201.668 172.614C201.598 172.63 201.525 172.627 201.456 172.607C201.388 172.587 201.325 172.549 201.275 172.498Z" fill="#2E353A" style="fill:#2E353A;fill:color(display-p3 0.1804 0.2078 0.2275);fill-opacity:1;"/>
<path d="M194.396 180.142C194.556 180.956 195.108 181.596 195.646 181.422C196.184 181.247 196.475 180.578 196.301 179.764C196.126 178.95 195.588 178.398 195.065 178.499C194.541 178.601 194.236 179.328 194.396 180.142Z" fill="#2E353A" style="fill:#2E353A;fill:color(display-p3 0.1804 0.2078 0.2275);fill-opacity:1;"/>
<path d="M203.52 178.354C203.665 179.154 204.232 179.721 204.756 179.619C205.279 179.517 205.584 178.79 205.424 177.976C205.264 177.162 204.712 176.595 204.189 176.697C203.665 176.799 203.374 177.54 203.52 178.354Z" fill="#2E353A" style="fill:#2E353A;fill:color(display-p3 0.1804 0.2078 0.2275);fill-opacity:1;"/>
<path d="M203.998 176.786L205.83 175.855C205.83 175.855 205.132 177.556 203.998 176.786Z" fill="#2E353A" style="fill:#2E353A;fill:color(display-p3 0.1804 0.2078 0.2275);fill-opacity:1;"/>
<path d="M194.807 178.588L196.624 177.658C196.624 177.658 195.984 179.359 194.807 178.588Z" fill="#2E353A" style="fill:#2E353A;fill:color(display-p3 0.1804 0.2078 0.2275);fill-opacity:1;"/>
<path d="M202.388 188.664C200.128 188.536 197.861 188.604 195.613 188.867C196.041 189.648 196.709 190.271 197.518 190.643C198.327 191.015 199.234 191.116 200.106 190.931C202.65 190.699 202.388 188.664 202.388 188.664Z" fill="#2E353A" style="fill:#2E353A;fill:color(display-p3 0.1804 0.2078 0.2275);fill-opacity:1;"/>
<path d="M198.824 189.969C199.814 189.824 200.824 189.971 201.732 190.391C201.28 190.714 200.745 190.9 200.191 190.929C199.201 191.074 198.191 190.927 197.283 190.507C197.735 190.184 198.27 189.998 198.824 189.969Z" fill="#DE5753" style="fill:#DE5753;fill:color(display-p3 0.8706 0.3412 0.3255);fill-opacity:1;"/>
<path d="M202.152 188.648C202.116 188.822 202.031 188.983 201.908 189.112C201.784 189.241 201.627 189.332 201.454 189.375C200.002 189.488 198.544 189.488 197.093 189.375C196.863 189.381 196.636 189.333 196.428 189.234C196.221 189.136 196.04 188.99 195.9 188.808C197.978 188.605 200.067 188.551 202.152 188.648Z" fill="white" style="fill:white;fill-opacity:1;"/>
<path d="M180.583 188.154C180.583 188.154 184.944 184.491 183.97 176.684C182.996 168.877 192.882 176.16 194.859 169.618C196.837 163.076 205.356 176.349 209.543 168.353C213.73 160.357 194.627 158.409 192.722 160.721C190.818 163.032 164.707 159.267 180.583 188.154Z" fill="#263238" style="fill:#263238;fill:color(display-p3 0.1490 0.1961 0.2196);fill-opacity:1;"/>
<path d="M257.008 253.022H123.474C121.563 253.022 120.014 254.571 120.014 256.482V263.053C120.014 264.964 121.563 266.513 123.474 266.513H257.008C258.919 266.513 260.468 264.964 260.468 263.053V256.482C260.468 254.571 258.919 253.022 257.008 253.022Z" fill="white" style="fill:white;fill-opacity:1;"/>
<path d="M137.604 263.143V256.411L141.82 259.784L137.604 263.143Z" fill="#263238" style="fill:#263238;fill:color(display-p3 0.1490 0.1961 0.2196);fill-opacity:1;"/>
<path d="M148.604 261.764L150.45 259.816L148.604 257.853V261.764Z" fill="#263238" style="fill:#263238;fill:color(display-p3 0.1490 0.1961 0.2196);fill-opacity:1;"/>
<path d="M150.457 257.925V259.815V261.705H151.286V257.925H150.457Z" fill="#263238" style="fill:#263238;fill:color(display-p3 0.1490 0.1961 0.2196);fill-opacity:1;"/>
<path d="M130.803 257.853L128.971 259.816L130.803 261.764V257.853Z" fill="#263238" style="fill:#263238;fill:color(display-p3 0.1490 0.1961 0.2196);fill-opacity:1;"/>
<path d="M128.972 261.705V259.815V257.925H128.129V261.705H128.972Z" fill="#263238" style="fill:#263238;fill:color(display-p3 0.1490 0.1961 0.2196);fill-opacity:1;"/>
<path d="M253.961 258.826H164.158V260.803H253.961V258.826Z" fill="#263238" style="fill:#263238;fill:color(display-p3 0.1490 0.1961 0.2196);fill-opacity:1;"/>
<path d="M206.702 255.351H203.504V264.19H206.702V255.351Z" fill="#407BFF" style="fill:#407BFF;fill:color(display-p3 0.2510 0.4824 1.0000);fill-opacity:1;"/>
<path d="M485.275 151.946C489.593 133.652 478.263 115.321 459.969 111.003C441.675 106.686 423.345 118.016 419.027 136.31C414.709 154.603 426.039 172.934 444.333 177.252C462.627 181.569 480.957 170.239 485.275 151.946Z" fill="#407BFF" style="fill:#407BFF;fill:color(display-p3 0.2510 0.4824 1.0000);fill-opacity:1;"/>
<path opacity="0.7" d="M485.275 151.946C489.593 133.652 478.263 115.321 459.969 111.003C441.675 106.686 423.345 118.016 419.027 136.31C414.709 154.603 426.039 172.934 444.333 177.252C462.627 181.569 480.957 170.239 485.275 151.946Z" fill="white" style="fill:white;fill-opacity:1;"/>
<g opacity="0.8">
<path d="M445.293 155.705C447.135 153.917 449.602 152.916 452.169 152.916C454.737 152.916 457.204 153.917 459.046 155.705C460.892 157.406 463.684 154.644 461.823 152.928C459.23 150.43 455.77 149.035 452.169 149.035C448.569 149.035 445.109 150.43 442.516 152.928C440.655 154.644 443.432 157.406 445.293 155.705Z" fill="#407BFF" style="fill:#407BFF;fill:color(display-p3 0.2510 0.4824 1.0000);fill-opacity:1;"/>
<path d="M450.834 161.246C451.188 160.895 451.666 160.698 452.164 160.698C452.663 160.698 453.141 160.895 453.495 161.246C455.355 162.961 458.132 160.185 456.271 158.469C455.169 157.406 453.696 156.812 452.164 156.812C450.632 156.812 449.16 157.406 448.057 158.469C446.196 160.185 448.988 162.961 450.834 161.246Z" fill="#407BFF" style="fill:#407BFF;fill:color(display-p3 0.2510 0.4824 1.0000);fill-opacity:1;"/>
<path d="M438 148.408C441.797 144.726 446.879 142.667 452.168 142.667C457.457 142.667 462.538 144.726 466.335 148.408C468.196 150.109 470.973 147.346 469.112 145.631C464.562 141.243 458.488 138.792 452.168 138.792C445.847 138.792 439.773 141.243 435.223 145.631C433.362 147.346 436.154 150.123 438 148.408Z" fill="#407BFF" style="fill:#407BFF;fill:color(display-p3 0.2510 0.4824 1.0000);fill-opacity:1;"/>
<path d="M431.361 141.748C436.943 136.34 444.409 133.317 452.18 133.317C459.951 133.317 467.418 136.34 472.999 141.748C474.845 143.478 477.622 140.716 475.776 138.971C469.447 132.847 460.986 129.424 452.18 129.424C443.374 129.424 434.913 132.847 428.584 138.971C426.738 140.716 429.515 143.478 431.361 141.748Z" fill="#407BFF" style="fill:#407BFF;fill:color(display-p3 0.2510 0.4824 1.0000);fill-opacity:1;"/>
</g>
<path d="M181.141 358.152C200.476 358.152 216.149 342.478 216.149 323.144C216.149 303.809 200.476 288.135 181.141 288.135C161.807 288.135 146.133 303.809 146.133 323.144C146.133 342.478 161.807 358.152 181.141 358.152Z" fill="#407BFF" style="fill:#407BFF;fill:color(display-p3 0.2510 0.4824 1.0000);fill-opacity:1;"/>
<path opacity="0.7" d="M181.141 358.152C200.476 358.152 216.149 342.478 216.149 323.144C216.149 303.809 200.476 288.135 181.141 288.135C161.807 288.135 146.133 303.809 146.133 323.144C146.133 342.478 161.807 358.152 181.141 358.152Z" fill="white" style="fill:white;fill-opacity:1;"/>
<path d="M173.527 312.005V321.034L162.652 313.081V333.202L173.527 325.235V334.278H199.623V312.005H173.527Z" fill="#407BFF" style="fill:#407BFF;fill:color(display-p3 0.2510 0.4824 1.0000);fill-opacity:1;"/>
<path d="M595.371 193.123C599.214 176.838 589.128 160.52 572.843 156.676C556.557 152.832 540.239 162.918 536.395 179.204C532.552 195.489 542.638 211.807 558.923 215.651C575.209 219.495 591.527 209.409 595.371 193.123Z" fill="#407BFF" style="fill:#407BFF;fill:color(display-p3 0.2510 0.4824 1.0000);fill-opacity:1;"/>
<path opacity="0.7" d="M595.371 193.123C599.214 176.838 589.128 160.52 572.843 156.676C556.557 152.832 540.239 162.918 536.395 179.204C532.552 195.489 542.638 211.807 558.923 215.651C575.209 219.495 591.527 209.409 595.371 193.123Z" fill="white" style="fill:white;fill-opacity:1;"/>
<path d="M574.728 202.081H566.994V196.266C569.275 196.009 571.382 194.921 572.913 193.211C574.444 191.5 575.292 189.286 575.295 186.99V183.85C575.291 183.718 575.236 183.592 575.141 183.5C575.046 183.407 574.919 183.356 574.786 183.356H573.521C573.448 183.343 573.373 183.347 573.302 183.367C573.23 183.386 573.164 183.421 573.107 183.469C573.051 183.516 573.005 183.576 572.974 183.643C572.943 183.71 572.927 183.783 572.927 183.857C572.927 183.932 572.943 184.005 572.974 184.072C573.005 184.139 573.051 184.199 573.107 184.246C573.164 184.294 573.23 184.329 573.302 184.348C573.373 184.368 573.448 184.372 573.521 184.359H574.263V186.99C574.263 189.192 573.388 191.304 571.831 192.86C570.274 194.417 568.163 195.292 565.961 195.292C563.76 195.292 561.648 194.417 560.091 192.86C558.535 191.304 557.66 189.192 557.66 186.99V184.359H558.416C558.489 184.372 558.564 184.368 558.635 184.348C558.707 184.329 558.773 184.294 558.83 184.246C558.886 184.199 558.932 184.139 558.963 184.072C558.994 184.005 559.011 183.932 559.011 183.857C559.011 183.783 558.994 183.71 558.963 183.643C558.932 183.576 558.886 183.516 558.83 183.469C558.773 183.421 558.707 183.386 558.635 183.367C558.564 183.347 558.489 183.343 558.416 183.356H557.151C557.085 183.354 557.019 183.365 556.957 183.389C556.896 183.413 556.84 183.449 556.792 183.495C556.745 183.542 556.707 183.597 556.681 183.658C556.656 183.719 556.642 183.784 556.642 183.85V186.99C556.643 189.287 557.489 191.503 559.021 193.214C560.553 194.925 562.661 196.012 564.944 196.266V202.081H557.108C556.838 202.081 556.579 202.188 556.388 202.379C556.197 202.57 556.09 202.829 556.09 203.099V204.117H575.717V203.099C575.717 202.834 575.613 202.579 575.429 202.389C575.244 202.199 574.993 202.089 574.728 202.081Z" fill="#407BFF" style="fill:#407BFF;fill:color(display-p3 0.2510 0.4824 1.0000);fill-opacity:1;"/>
<path d="M565.917 193.357C567.583 193.357 569.18 192.696 570.358 191.518C571.536 190.34 572.198 188.743 572.198 187.077H559.637C559.635 187.902 559.796 188.72 560.111 189.483C560.426 190.245 560.888 190.939 561.472 191.522C562.056 192.106 562.749 192.568 563.512 192.883C564.274 193.198 565.092 193.359 565.917 193.357Z" fill="#407BFF" style="fill:#407BFF;fill:color(display-p3 0.2510 0.4824 1.0000);fill-opacity:1;"/>
<path d="M572.198 174.458C572.198 172.792 571.536 171.194 570.358 170.017C569.18 168.839 567.583 168.177 565.917 168.177C564.252 168.177 562.654 168.839 561.476 170.017C560.298 171.194 559.637 172.792 559.637 174.458V185.885H572.198V174.458Z" fill="#407BFF" style="fill:#407BFF;fill:color(display-p3 0.2510 0.4824 1.0000);fill-opacity:1;"/>
</svg>
