<svg width="50" height="50" viewBox="0 0 50 50" fill="none" xmlns="http://www.w3.org/2000/svg">
<g id="Vector 4089">
<path d="M12.0178 3.26232C6.83651 6.87717 4.94405 9.19216 2.37389 13.5505L29.822 0.469815C23.018 -0.417642 19.1606 -0.331368 12.0178 3.26232Z" fill="white" style="fill:white;fill-opacity:1;"/>
<path d="M18.1009 12.6687C18.1009 12.6687 6.11932 18.82 0 23.3978V29.1297C15.843 18.9693 25.2453 14.1395 43.6202 8.25944L39.4659 5.02601C31.372 6.7285 18.1009 12.6687 18.1009 12.6687Z" fill="white" style="fill:white;fill-opacity:1;"/>
<path d="M27.4481 21.4871L2.37389 33.6859L4.30267 37.6542L29.822 25.7493L31.7507 29.8646L39.0208 18.4006L25.6677 17.9597L27.4481 21.4871Z" fill="white" style="fill:white;fill-opacity:1;"/>
<path d="M49.4065 22.6629C34.4713 31.8427 25.3583 36.2912 7.4184 42.9453L12.0178 46.3257C12.0178 46.3257 23.9541 42.4617 31.1573 38.977C38.8899 35.2362 50 27.66 50 27.66L49.4065 22.6629Z" fill="white" style="fill:white;fill-opacity:1;"/>
<path d="M46.1424 38.0951L23.1454 50C28.6713 49.6883 31.648 49.0855 36.6469 46.9136C41.1891 43.8879 43.1444 41.8981 46.1424 38.0951Z" fill="white" style="fill:white;fill-opacity:1;"/>
</g>
</svg>
