<svg width="414" height="369" viewBox="0 0 414 369" fill="none" xmlns="http://www.w3.org/2000/svg">
<path d="M26.7159 310.202H17.8721" stroke="#263238" style="stroke:#263238;stroke:color(display-p3 0.1490 0.1961 0.2196);stroke-opacity:1;" stroke-width="1.1133" stroke-miterlimit="10"/>
<path d="M384.935 310.202H40.7012" stroke="#263238" style="stroke:#263238;stroke:color(display-p3 0.1490 0.1961 0.2196);stroke-opacity:1;" stroke-width="1.1133" stroke-miterlimit="10"/>
<path d="M255.431 347.182C271.601 347.182 284.708 343.577 284.708 339.129C284.708 334.681 271.601 331.075 255.431 331.075C239.262 331.075 226.154 334.681 226.154 339.129C226.154 343.577 239.262 347.182 255.431 347.182Z" fill="#263238" style="fill:#263238;fill:color(display-p3 0.1490 0.1961 0.2196);fill-opacity:1;"/>
<path d="M104.11 357.423C73.6384 357.423 69.1394 353.02 68.6962 349.465C68.5956 348.725 68.6686 347.971 68.9093 347.264C69.1501 346.557 69.5521 345.915 70.0835 345.39C78.2915 336.778 125.593 340.419 191.045 345.458C200.178 346.161 209.619 346.884 219.301 347.606C285.437 352.519 312.065 351.883 317.565 345.236C318.683 343.878 318.914 342.182 318.298 339.889C315.677 330.304 280.649 330.256 267.383 331.007C267.08 331.023 266.782 330.919 266.555 330.717C266.328 330.515 266.189 330.231 266.169 329.928C266.16 329.778 266.181 329.628 266.23 329.486C266.28 329.343 266.357 329.213 266.457 329.101C266.558 328.989 266.679 328.898 266.815 328.833C266.951 328.768 267.098 328.731 267.248 328.724C272.325 328.425 316.93 326.181 320.504 339.321C321.323 342.346 320.947 344.764 319.328 346.729C313.153 354.224 287.874 355.024 219.137 349.918C209.446 349.196 200.005 348.473 190.872 347.77C128.483 342.953 79.1971 339.167 71.7405 346.999C71.4457 347.279 71.222 347.625 71.0879 348.009C70.9539 348.393 70.9134 348.803 70.9698 349.205C71.2492 351.479 76.7501 356.565 121.065 354.793C145.853 353.829 170.756 351.103 171.007 351.074C171.297 351.062 171.581 351.161 171.801 351.351C172.021 351.54 172.161 351.806 172.193 352.094C172.224 352.383 172.146 352.673 171.972 352.905C171.798 353.138 171.543 353.296 171.257 353.348C171.007 353.348 146.027 356.084 121.162 357.076C114.765 357.307 109.1 357.423 104.11 357.423Z" fill="white" stroke="#263238" style="fill:white;fill-opacity:1;stroke:#263238;stroke:color(display-p3 0.1490 0.1961 0.2196);stroke-opacity:1;" stroke-width="1.1133" stroke-miterlimit="10"/>
<path d="M244.547 346.199C263.6 346.199 279.046 330.753 279.046 311.7C279.046 292.647 263.6 277.202 244.547 277.202C225.494 277.202 210.049 292.647 210.049 311.7C210.049 330.753 225.494 346.199 244.547 346.199Z" fill="white" style="fill:white;fill-opacity:1;"/>
<mask id="mask0_4876_27497" style="mask-type:luminance" maskUnits="userSpaceOnUse" x="210" y="277" width="70" height="70">
<path d="M244.543 346.203C263.596 346.203 279.042 330.757 279.042 311.704C279.042 292.651 263.596 277.206 244.543 277.206C225.49 277.206 210.045 292.651 210.045 311.704C210.045 330.757 225.49 346.203 244.543 346.203Z" fill="white" style="fill:white;fill-opacity:1;"/>
</mask>
<g mask="url(#mask0_4876_27497)">
<path d="M244.538 346.21C250.816 346.214 256.977 344.504 262.355 341.265C267.733 338.026 272.124 333.381 275.057 327.83C277.989 322.278 279.35 316.032 278.994 309.764C278.638 303.496 276.577 297.444 273.035 292.261C272.659 307.29 264.365 329.476 221.225 337.106C227.575 342.964 235.899 346.214 244.538 346.21Z" fill="#92B1F5" style="fill:#92B1F5;fill:color(display-p3 0.5725 0.6941 0.9608);fill-opacity:1;"/>
<path opacity="0.3" d="M244.538 346.21C250.816 346.214 256.977 344.504 262.355 341.265C267.733 338.026 272.124 333.381 275.057 327.83C277.989 322.278 279.35 316.032 278.994 309.764C278.638 303.496 276.577 297.444 273.035 292.261C272.659 307.29 264.365 329.476 221.225 337.106C227.575 342.964 235.899 346.214 244.538 346.21Z" fill="white" style="fill:white;fill-opacity:1;"/>
<path d="M261.515 325.23C255.363 319.245 247.892 314.787 239.704 312.215M261.515 325.23H263.345C267.405 321.205 270.902 316.648 273.74 311.685C257.584 294.614 241.871 296.357 241.871 296.357C241.871 296.357 257.632 294.614 273.788 311.704C274.674 310.115 275.416 308.621 276.023 307.244C269.299 297.822 257.719 291.396 251.505 290.433L250.06 290.086M261.515 325.23C247.324 325.028 236.534 322.831 228.471 319.893C228.991 298.101 236.765 283.583 240.831 277.437C242.126 277.287 243.429 277.209 244.733 277.206C245.917 277.206 247.074 277.273 248.23 277.379M250.06 290.086C247.833 289.681 245.554 289.648 243.316 289.99M250.06 290.086L254.174 278.525C252.23 277.97 250.241 277.586 248.23 277.379M248.23 277.379C245.561 281.685 238.692 295.442 238.692 322.735M269.308 318.207C255.571 304.816 240.407 304.113 240.407 304.113" stroke="#263238" style="stroke:#263238;stroke:color(display-p3 0.1490 0.1961 0.2196);stroke-opacity:1;" stroke-width="1.1133" stroke-linecap="round" stroke-linejoin="round"/>
<path d="M228.434 319.948C228.955 298.156 236.729 283.638 240.794 277.492C237.613 277.849 234.498 278.646 231.536 279.862C224.235 290.573 220.111 303.13 219.639 316.085C222.468 317.595 225.408 318.887 228.434 319.948Z" stroke="#263238" style="stroke:#263238;stroke:color(display-p3 0.1490 0.1961 0.2196);stroke-opacity:1;" stroke-width="1.1133" stroke-linecap="round" stroke-linejoin="round"/>
<path d="M231.537 279.834C225.58 282.29 220.427 286.363 216.662 291.592C212.896 296.822 210.668 303 210.228 309.429C213.064 312.037 216.228 314.265 219.64 316.057C220.112 303.102 224.236 290.545 231.537 279.834Z" stroke="#263238" style="stroke:#263238;stroke:color(display-p3 0.1490 0.1961 0.2196);stroke-opacity:1;" stroke-width="1.1133" stroke-linecap="round" stroke-linejoin="round"/>
<path d="M275.977 307.243C276.728 305.584 277.371 303.879 277.904 302.137C276.463 297.224 273.953 292.69 270.553 288.862L267.884 297.764L270.505 288.862C268.377 286.475 265.929 284.394 263.231 282.677L260.293 293.669L263.251 282.725C260.43 280.921 257.359 279.542 254.137 278.631L250.023 290.191C256.324 291.097 266.064 294.806 275.977 307.243Z" stroke="#263238" style="stroke:#263238;stroke:color(display-p3 0.1490 0.1961 0.2196);stroke-opacity:1;" stroke-width="1.1133" stroke-linecap="round" stroke-linejoin="round"/>
<path d="M246.448 338.332C250.461 335.905 254.29 333.184 257.902 330.192C259.877 328.535 263.5 325.25 263.615 325.25C263.5 325.25 270.417 317.446 272.71 313.371C272.71 313.429 273.731 311.753 273.673 311.695C273.615 311.637 274.501 310.24 274.444 310.183C275.005 309.238 275.495 308.253 275.908 307.235C276.659 305.576 277.302 303.87 277.835 302.129C278.755 305.277 279.222 308.54 279.222 311.82C279.222 312.36 279.222 312.822 279.222 313.323C264.656 333.776 253.432 342.542 246.371 346.386C245.802 346.386 245.224 346.386 244.637 346.386C241.104 346.387 237.592 345.847 234.223 344.787C238.419 342.873 242.501 340.718 246.448 338.332ZM246.448 338.332H246.698" stroke="#263238" style="stroke:#263238;stroke:color(display-p3 0.1490 0.1961 0.2196);stroke-opacity:1;" stroke-width="1.1133" stroke-linecap="round" stroke-linejoin="round"/>
<path d="M279.216 313.336C264.65 333.789 253.427 342.555 246.423 346.313C255.012 345.88 263.131 342.262 269.195 336.164C275.258 330.066 278.832 321.927 279.216 313.336Z" stroke="#263238" style="stroke:#263238;stroke:color(display-p3 0.1490 0.1961 0.2196);stroke-opacity:1;" stroke-width="1.1133" stroke-linecap="round" stroke-linejoin="round"/>
<path d="M217.682 333.373C221.956 338.746 227.735 342.724 234.281 344.798C238.477 342.884 242.559 340.729 246.506 338.344C238.279 339.866 225.408 336.089 217.682 333.373Z" stroke="#263238" style="stroke:#263238;stroke:color(display-p3 0.1490 0.1961 0.2196);stroke-opacity:1;" stroke-width="1.1133" stroke-linecap="round" stroke-linejoin="round"/>
<path d="M246.5 338.341C250.514 335.914 254.342 333.193 257.955 330.201C233.109 332.744 217.782 325.047 211.27 320.673C212.499 325.305 214.681 329.629 217.676 333.37C225.402 336.087 238.273 339.863 246.5 338.341Z" stroke="#263238" style="stroke:#263238;stroke:color(display-p3 0.1490 0.1961 0.2196);stroke-opacity:1;" stroke-width="1.1133" stroke-linecap="round" stroke-linejoin="round"/>
<path d="M261.514 325.25H263.344C261.716 326.887 259.934 328.544 257.959 330.201C233.113 332.745 217.786 325.047 211.273 320.693C210.513 317.806 210.128 314.834 210.127 311.849C210.127 311.05 210.165 310.269 210.223 309.479C212.323 311.454 216.591 315.866 228.431 319.97C236.533 322.851 247.323 325.047 261.514 325.25ZM261.514 325.25C261.648 325.375 261.783 325.5 261.908 325.635" stroke="#263238" style="stroke:#263238;stroke:color(display-p3 0.1490 0.1961 0.2196);stroke-opacity:1;" stroke-width="1.1133" stroke-linecap="round" stroke-linejoin="round"/>
</g>
<path d="M244.547 346.199C263.6 346.199 279.046 330.753 279.046 311.7C279.046 292.647 263.6 277.202 244.547 277.202C225.494 277.202 210.049 292.647 210.049 311.7C210.049 330.753 225.494 346.199 244.547 346.199Z" stroke="#263238" style="stroke:#263238;stroke:color(display-p3 0.1490 0.1961 0.2196);stroke-opacity:1;" stroke-width="1.1133" stroke-linecap="round" stroke-linejoin="round"/>
<path d="M308.083 252.752C308.083 252.752 305.723 245.093 298.845 242.337C294.028 240.411 288.565 240.931 283.604 241.788C274.375 243.397 266.321 247.068 257.593 250.199C257.593 250.199 261.331 248.821 276.658 256.297C282.303 259.042 288.758 261.181 295.213 261.037C300.386 260.921 308.343 259.437 308.083 252.752Z" fill="#92B1F5" style="fill:#92B1F5;fill:color(display-p3 0.5725 0.6941 0.9608);fill-opacity:1;"/>
<path d="M308.919 230.245C308.919 230.245 308.919 222.22 303.139 217.605C299.112 214.387 293.698 213.28 288.688 212.673C279.382 211.545 270.615 212.73 261.328 213.202C261.328 213.202 265.307 212.971 277.821 224.551C282.436 228.809 288.004 232.72 294.199 234.445C299.189 235.832 307.223 236.718 308.919 230.245Z" fill="#92B1F5" style="fill:#92B1F5;fill:color(display-p3 0.5725 0.6941 0.9608);fill-opacity:1;"/>
<path d="M324.724 260.02C324.724 260.02 318.471 255.001 318.452 247.592C318.452 242.438 320.928 237.515 323.558 233.228C328.452 225.232 334.83 219.105 340.976 212.121C340.976 212.121 338.317 215.088 339.608 232.092C340.09 238.354 339.685 245.145 337.171 251.089C335.196 255.868 330.889 262.717 324.724 260.02Z" fill="#92B1F5" style="fill:#92B1F5;fill:color(display-p3 0.5725 0.6941 0.9608);fill-opacity:1;"/>
<path d="M346.881 272.327C346.881 272.327 345.995 264.36 351.216 259.1C354.839 255.449 360.089 253.715 364.973 252.539C374.087 250.343 382.931 250.507 392.208 249.9C392.208 249.9 388.239 250.121 377.141 263.069C373.056 267.886 367.979 272.366 361.997 274.803C357.228 276.759 349.347 278.56 346.881 272.327Z" fill="#92B1F5" style="fill:#92B1F5;fill:color(display-p3 0.5725 0.6941 0.9608);fill-opacity:1;"/>
<path d="M345.46 243.932C345.46 243.932 337.512 242.843 333.697 236.495C331.038 232.082 330.643 226.572 330.691 221.543C330.788 212.179 333.119 203.634 334.805 194.491C334.805 194.491 334.044 198.403 343.889 212.324C347.512 217.458 350.633 223.489 351.596 229.886C352.28 235.021 352.097 243.103 345.46 243.932Z" fill="#92B1F5" style="fill:#92B1F5;fill:color(display-p3 0.5725 0.6941 0.9608);fill-opacity:1;"/>
<path d="M368.336 229.647C368.336 229.647 374.049 235.273 381.409 234.463C386.524 233.876 391.129 230.822 395.079 227.72C402.439 221.94 407.786 214.868 414 207.961C414 207.961 411.37 210.938 394.328 211.641C388.056 211.901 381.361 213.086 375.744 216.284C371.235 218.809 364.945 223.886 368.336 229.647Z" fill="#92B1F5" style="fill:#92B1F5;fill:color(display-p3 0.5725 0.6941 0.9608);fill-opacity:1;"/>
<path d="M361.716 224.092C361.716 224.092 369.693 224.892 374.895 219.622C378.517 215.951 380.193 210.691 381.321 205.788C383.421 196.665 383.17 187.811 383.671 178.534C383.671 178.534 383.498 182.503 370.656 193.736C365.935 197.869 361.456 202.994 359.095 208.996C357.178 213.822 355.454 221.722 361.716 224.092Z" fill="#92B1F5" style="fill:#92B1F5;fill:color(display-p3 0.5725 0.6941 0.9608);fill-opacity:1;"/>
<path d="M333.232 301.751L319.455 267.85L303.569 228.65" stroke="#263238" style="stroke:#263238;stroke:color(display-p3 0.1490 0.1961 0.2196);stroke-opacity:1;" stroke-width="1.1133" stroke-linecap="round" stroke-linejoin="round"/>
<path d="M336.405 295.918L350.172 248.78L365.008 219.647" stroke="#263238" style="stroke:#263238;stroke:color(display-p3 0.1490 0.1961 0.2196);stroke-opacity:1;" stroke-width="1.1133" stroke-linecap="round" stroke-linejoin="round"/>
<path d="M341.699 277.39L355.476 269.442" stroke="#263238" style="stroke:#263238;stroke:color(display-p3 0.1490 0.1961 0.2196);stroke-opacity:1;" stroke-width="1.1133" stroke-linecap="round" stroke-linejoin="round"/>
<path d="M350.173 248.783L343.285 233.417" stroke="#263238" style="stroke:#263238;stroke:color(display-p3 0.1490 0.1961 0.2196);stroke-opacity:1;" stroke-width="1.1133" stroke-linecap="round" stroke-linejoin="round"/>
<path d="M358.795 233.503L375.596 226.008" stroke="#263238" style="stroke:#263238;stroke:color(display-p3 0.1490 0.1961 0.2196);stroke-opacity:1;" stroke-width="1.1133" stroke-linecap="round" stroke-linejoin="round"/>
<path d="M322.103 274.207L327.931 250.903" stroke="#263238" style="stroke:#263238;stroke:color(display-p3 0.1490 0.1961 0.2196);stroke-opacity:1;" stroke-width="1.1133" stroke-linecap="round" stroke-linejoin="round"/>
<path d="M314.378 256.494L300.92 249.317" stroke="#263238" style="stroke:#263238;stroke:color(display-p3 0.1490 0.1961 0.2196);stroke-opacity:1;" stroke-width="1.1133" stroke-linecap="round" stroke-linejoin="round"/>
<path d="M340.289 318.707H328.805C326.928 318.706 325.11 318.051 323.664 316.853C322.219 315.655 321.236 313.991 320.886 312.146L316.802 290.634H352.293L348.217 312.146C347.866 313.992 346.881 315.656 345.434 316.854C343.987 318.051 342.167 318.707 340.289 318.707Z" fill="#263238" stroke="#263238" style="fill:#263238;fill:color(display-p3 0.1490 0.1961 0.2196);fill-opacity:1;stroke:#263238;stroke:color(display-p3 0.1490 0.1961 0.2196);stroke-opacity:1;" stroke-width="1.1133" stroke-linecap="round" stroke-linejoin="round"/>
<path d="M17.0742 187.543C17.0742 184.875 18.3073 182.909 21.0819 182.909C23.8564 182.909 25.1377 184.836 25.1377 187.543V196.907C25.1377 199.576 23.9046 201.541 21.0819 201.541C18.2592 201.541 17.0742 199.614 17.0742 196.907V187.543ZM18.2784 196.984C18.2784 198.979 19.0684 200.443 21.0819 200.443C23.0953 200.443 23.972 198.979 23.972 196.984V187.466C23.972 185.472 23.1628 184.008 21.0819 184.008C19.001 184.008 18.2784 185.472 18.2784 187.466V196.984Z" fill="#263238" style="fill:#263238;fill:color(display-p3 0.1490 0.1961 0.2196);fill-opacity:1;"/>
<path d="M27.0371 187.543C27.0371 184.875 28.2702 182.909 31.0448 182.909C33.8193 182.909 35.1006 184.836 35.1006 187.543V196.907C35.1006 199.576 33.8675 201.541 31.0448 201.541C28.2221 201.541 27.0371 199.614 27.0371 196.907V187.543ZM28.2413 196.984C28.2413 198.979 29.0313 200.443 31.0448 200.443C33.0582 200.443 33.9349 198.979 33.9349 196.984V187.466C33.9349 185.472 33.1257 184.008 31.0448 184.008C28.9639 184.008 28.2413 185.472 28.2413 187.466V196.984Z" fill="#263238" style="fill:#263238;fill:color(display-p3 0.1490 0.1961 0.2196);fill-opacity:1;"/>
<path d="M40.8924 183.05C43.7247 183.05 44.823 184.832 44.823 187.501V189.495C44.823 192.385 43.4839 193.83 40.5841 193.83H38.3009V201.373H37.0967V183.069L40.8924 183.05ZM40.5841 192.732C42.7035 192.732 43.6187 191.768 43.6187 189.572V187.424C43.6187 185.439 42.9347 184.148 40.8924 184.148H38.3009V192.732H40.5841Z" fill="#263238" style="fill:#263238;fill:color(display-p3 0.1490 0.1961 0.2196);fill-opacity:1;"/>
<path d="M54.3511 187.477V187.872H53.1951V187.4C53.1951 185.474 52.4629 184 50.4784 184C48.4938 184 47.752 185.416 47.752 187.343C47.752 191.784 54.3704 191.861 54.3704 196.919C54.3704 199.558 53.224 201.495 50.4205 201.495C47.6171 201.495 46.4707 199.568 46.4707 196.919V195.955H47.6268V196.976C47.6268 198.903 48.3782 200.348 50.3916 200.348C52.4051 200.348 53.1662 198.932 53.1662 196.976C53.1662 192.574 46.5478 192.497 46.5478 187.4C46.5478 184.645 47.752 182.872 50.4013 182.844C53.0506 182.815 54.3511 184.838 54.3511 187.477Z" fill="#263238" style="fill:#263238;fill:color(display-p3 0.1490 0.1961 0.2196);fill-opacity:1;"/>
<path d="M57.357 199.081V201.384H56.1816V199.081H57.357Z" fill="#263238" style="fill:#263238;fill:color(display-p3 0.1490 0.1961 0.2196);fill-opacity:1;"/>
<path d="M60.6244 199.081V201.384H59.4395V199.081H60.6244Z" fill="#263238" style="fill:#263238;fill:color(display-p3 0.1490 0.1961 0.2196);fill-opacity:1;"/>
<path d="M63.8916 199.081V201.384H62.6777V199.081H63.8916Z" fill="#263238" style="fill:#263238;fill:color(display-p3 0.1490 0.1961 0.2196);fill-opacity:1;"/>
<path d="M20.949 209.72C23.7814 209.72 24.8796 211.492 24.8796 214.161V216.155C24.8796 219.045 23.5405 220.5 20.6407 220.5H18.3672V228.034H17.1533V209.729L20.949 209.72ZM20.6407 219.353C22.7602 219.353 23.6754 218.39 23.6754 216.184V214.036C23.6754 212.051 22.9914 210.77 20.949 210.77H18.3672V219.353H20.6407Z" fill="#263238" style="fill:#263238;fill:color(display-p3 0.1490 0.1961 0.2196);fill-opacity:1;"/>
<path d="M28.0924 223.964L27.1772 228.02H26.0693L30.0674 209.716H31.8496L35.9343 228.02H34.7397L33.7764 223.964H28.0924ZM28.2755 222.914H33.6126L30.8862 211.084L28.2755 222.914Z" fill="#263238" style="fill:#263238;fill:color(display-p3 0.1490 0.1961 0.2196);fill-opacity:1;"/>
<path d="M45.5501 214.185V215.543H44.3748V214.108C44.3748 212.181 43.6233 210.65 41.6002 210.65C39.5772 210.65 38.8353 212.143 38.8353 214.108V223.636C38.8353 225.563 39.5868 227.056 41.6002 227.056C43.6137 227.056 44.3748 225.592 44.3748 223.636V219.676H41.9663V218.578H45.5501V223.549C45.5501 226.198 44.394 228.183 41.6002 228.183C38.8064 228.183 37.6504 226.198 37.6504 223.549V214.185C37.6504 211.545 38.7968 209.551 41.6002 209.551C44.4037 209.551 45.5501 211.545 45.5501 214.185Z" fill="#263238" style="fill:#263238;fill:color(display-p3 0.1490 0.1961 0.2196);fill-opacity:1;"/>
<path d="M53.7706 218.184V219.282H48.7706V226.922H54.7917V228.02H47.5664V209.716H54.7917V210.814H48.7706V218.184H53.7706Z" fill="#263238" style="fill:#263238;fill:color(display-p3 0.1490 0.1961 0.2196);fill-opacity:1;"/>
<path d="M61.9137 228.027H60.8154V209.723H62.3857L67.877 225.137V209.723H68.9752V228.027H67.6458L61.8655 211.649L61.9137 228.027Z" fill="#263238" style="fill:#263238;fill:color(display-p3 0.1490 0.1961 0.2196);fill-opacity:1;"/>
<path d="M70.9619 214.185C70.9619 211.517 72.1854 209.551 74.9599 209.551C77.7345 209.551 79.0157 211.478 79.0157 214.185V223.549C79.0157 226.218 77.7923 228.183 74.9599 228.183C72.1276 228.183 70.9619 226.256 70.9619 223.549V214.185ZM72.1661 223.636C72.1661 225.62 72.9465 227.085 74.9599 227.085C76.9734 227.085 77.8501 225.62 77.8501 223.636V214.108C77.8501 212.114 77.0408 210.65 74.9599 210.65C72.879 210.65 72.1661 212.114 72.1661 214.108V223.636Z" fill="#263238" style="fill:#263238;fill:color(display-p3 0.1490 0.1961 0.2196);fill-opacity:1;"/>
<path d="M84.0986 228.034V210.818H80.3896V209.72H89.0601V210.818H85.3125V228.034H84.0986Z" fill="#263238" style="fill:#263238;fill:color(display-p3 0.1490 0.1961 0.2196);fill-opacity:1;"/>
<path d="M100.531 218.634V219.732H95.8009V228.027H94.5967V209.723H101.552V210.821H95.772V218.644L100.531 218.634Z" fill="#263238" style="fill:#263238;fill:color(display-p3 0.1490 0.1961 0.2196);fill-opacity:1;"/>
<path d="M103.302 214.185C103.302 211.517 104.535 209.551 107.309 209.551C110.084 209.551 111.365 211.478 111.365 214.185V223.549C111.365 226.218 110.132 228.183 107.309 228.183C104.487 228.183 103.302 226.256 103.302 223.549V214.185ZM104.506 223.636C104.506 225.62 105.296 227.085 107.309 227.085C109.323 227.085 110.2 225.62 110.2 223.636V214.108C110.2 212.114 109.39 210.65 107.309 210.65C105.229 210.65 104.506 212.114 104.506 214.108V223.636Z" fill="#263238" style="fill:#263238;fill:color(display-p3 0.1490 0.1961 0.2196);fill-opacity:1;"/>
<path d="M114.515 223.612C114.515 225.538 115.247 227.089 117.261 227.089C119.274 227.089 120.007 225.577 120.007 223.612V209.72H121.134V223.554C121.134 226.174 120.035 228.188 117.28 228.188C114.525 228.188 113.35 226.174 113.35 223.554V209.72H114.554L114.515 223.612Z" fill="#263238" style="fill:#263238;fill:color(display-p3 0.1490 0.1961 0.2196);fill-opacity:1;"/>
<path d="M124.337 228.027H123.238V209.723H124.809L130.3 225.137V209.723H131.398V228.027H130.069L124.337 211.649V228.027Z" fill="#263238" style="fill:#263238;fill:color(display-p3 0.1490 0.1961 0.2196);fill-opacity:1;"/>
<path d="M137.455 209.72C140.287 209.72 141.51 211.569 141.51 214.267V223.477C141.51 226.174 140.287 228.034 137.455 228.034H133.428V209.729L137.455 209.72ZM137.455 226.935C139.497 226.935 140.345 225.548 140.345 223.535V214.219C140.345 212.205 139.487 210.818 137.455 210.818H134.651V226.935H137.455Z" fill="#263238" style="fill:#263238;fill:color(display-p3 0.1490 0.1961 0.2196);fill-opacity:1;"/>
<path d="M183.246 273.378C161.801 273.378 148.911 254.351 144.335 237.617L144.181 237.03C143.937 236.218 143.859 235.366 143.952 234.524C144.045 233.682 144.307 232.867 144.723 232.128C145.138 231.39 145.698 230.743 146.369 230.226C147.04 229.709 147.809 229.332 148.629 229.119C149.449 228.906 150.303 228.86 151.141 228.985C151.979 229.109 152.784 229.402 153.506 229.844C154.228 230.287 154.854 230.871 155.346 231.561C155.837 232.251 156.185 233.033 156.367 233.86L156.483 234.294C159.961 247.029 169.431 261.586 184.623 260.748C187.48 260.649 190.284 259.95 192.853 258.697C195.422 257.444 197.699 255.665 199.536 253.474C207.869 243.918 211.598 223.138 210.769 212.656C210.691 211.983 210.749 211.302 210.94 210.652C211.131 210.003 211.45 209.398 211.88 208.875C212.31 208.351 212.841 207.92 213.441 207.607C214.041 207.293 214.699 207.104 215.374 207.05C216.049 206.996 216.728 207.079 217.37 207.294C218.012 207.508 218.605 207.85 219.112 208.299C219.619 208.747 220.031 209.294 220.322 209.905C220.613 210.516 220.779 211.18 220.808 211.857C221.771 223.523 220.499 248.6 209.026 261.75C206.089 265.208 202.468 268.02 198.391 270.009C194.314 271.999 189.869 273.123 185.336 273.31C184.633 273.358 183.93 273.378 183.246 273.378Z" fill="white" style="fill:white;fill-opacity:1;"/>
<mask id="mask1_4876_27497" style="mask-type:luminance" maskUnits="userSpaceOnUse" x="143" y="207" width="79" height="67">
<path d="M183.243 273.369C161.798 273.369 148.908 254.343 144.332 237.609L144.178 237.021C143.934 236.21 143.856 235.357 143.949 234.515C144.042 233.673 144.305 232.858 144.72 232.12C145.135 231.381 145.695 230.734 146.366 230.217C147.037 229.7 147.806 229.324 148.626 229.11C149.446 228.897 150.3 228.851 151.138 228.976C151.976 229.101 152.781 229.393 153.503 229.836C154.226 230.278 154.851 230.862 155.343 231.552C155.835 232.242 156.182 233.024 156.364 233.851L156.48 234.285C159.958 247.021 169.428 261.577 184.62 260.739C187.477 260.64 190.281 259.942 192.85 258.689C195.419 257.435 197.696 255.656 199.533 253.466C207.867 243.909 211.595 223.129 210.766 212.648C210.688 211.975 210.746 211.293 210.937 210.644C211.128 209.994 211.448 209.389 211.877 208.866C212.307 208.343 212.838 207.912 213.438 207.598C214.038 207.285 214.696 207.095 215.371 207.042C216.046 206.988 216.725 207.071 217.367 207.285C218.009 207.5 218.602 207.841 219.109 208.29C219.616 208.739 220.028 209.285 220.319 209.896C220.611 210.508 220.776 211.171 220.805 211.848C221.768 223.514 220.496 248.591 209.023 261.741C206.086 265.199 202.465 268.011 198.388 270.001C194.311 271.991 189.866 273.114 185.333 273.302C184.63 273.35 183.927 273.369 183.243 273.369Z" fill="white" style="fill:white;fill-opacity:1;"/>
</mask>
<g mask="url(#mask1_4876_27497)">
<path d="M215.381 207.238C214.05 207.347 212.816 207.979 211.951 208.995C211.086 210.012 210.66 211.331 210.766 212.662C211.171 217.778 210.487 225.34 208.714 232.893C211.246 232.786 213.777 233.112 216.199 233.857C215.626 241.104 213.081 248.057 208.839 253.962C199.485 266.958 185.458 271.11 174.543 269.55C169.659 268.856 164.061 266.293 159.351 263.663C165.743 269.897 174.314 273.391 183.242 273.403C183.926 273.403 184.63 273.403 185.333 273.345C189.866 273.158 194.31 272.034 198.388 270.045C202.465 268.055 206.086 265.243 209.022 261.785C220.496 248.635 221.729 223.558 220.804 211.892C220.757 211.229 220.579 210.582 220.28 209.988C219.981 209.395 219.567 208.867 219.063 208.434C218.558 208.001 217.973 207.673 217.341 207.468C216.709 207.263 216.043 207.185 215.381 207.238Z" fill="#92B1F5" style="fill:#92B1F5;fill:color(display-p3 0.5725 0.6941 0.9608);fill-opacity:1;"/>
<path opacity="0.5" d="M215.381 207.238C214.05 207.347 212.816 207.979 211.951 208.995C211.086 210.012 210.66 211.331 210.766 212.662C211.171 217.778 210.487 225.34 208.714 232.893C211.246 232.786 213.777 233.112 216.199 233.857C215.626 241.104 213.081 248.057 208.839 253.962C199.485 266.958 185.458 271.11 174.543 269.55C169.659 268.856 164.061 266.293 159.351 263.663C165.743 269.897 174.314 273.391 183.242 273.403C183.926 273.403 184.63 273.403 185.333 273.345C189.866 273.158 194.31 272.034 198.388 270.045C202.465 268.055 206.086 265.243 209.022 261.785C220.496 248.635 221.729 223.558 220.804 211.892C220.757 211.229 220.579 210.582 220.28 209.988C219.981 209.395 219.567 208.867 219.063 208.434C218.558 208.001 217.973 207.673 217.341 207.468C216.709 207.263 216.043 207.185 215.381 207.238Z" fill="white" style="fill:white;fill-opacity:1;"/>
</g>
<path d="M183.246 273.378C161.801 273.378 148.911 254.351 144.335 237.617L144.181 237.03C143.937 236.218 143.859 235.366 143.952 234.524C144.045 233.682 144.307 232.867 144.723 232.128C145.138 231.39 145.698 230.743 146.369 230.226C147.04 229.709 147.809 229.332 148.629 229.119C149.449 228.906 150.303 228.86 151.141 228.985C151.979 229.109 152.784 229.402 153.506 229.844C154.228 230.287 154.854 230.871 155.346 231.561C155.837 232.251 156.185 233.033 156.367 233.86L156.483 234.294C159.961 247.029 169.431 261.586 184.623 260.748C187.48 260.649 190.284 259.95 192.853 258.697C195.422 257.444 197.699 255.665 199.536 253.474C207.869 243.918 211.598 223.138 210.769 212.656C210.691 211.983 210.749 211.302 210.94 210.652C211.131 210.003 211.45 209.398 211.88 208.875C212.31 208.351 212.841 207.92 213.441 207.607C214.041 207.293 214.699 207.104 215.374 207.05C216.049 206.996 216.728 207.079 217.37 207.294C218.012 207.508 218.605 207.85 219.112 208.299C219.619 208.747 220.031 209.294 220.322 209.905C220.613 210.516 220.779 211.18 220.808 211.857C221.771 223.523 220.499 248.6 209.026 261.75C206.089 265.208 202.468 268.02 198.391 270.009C194.314 271.999 189.869 273.123 185.336 273.31C184.633 273.358 183.93 273.378 183.246 273.378Z" stroke="#263238" style="stroke:#263238;stroke:color(display-p3 0.1490 0.1961 0.2196);stroke-opacity:1;" stroke-width="1.1133" stroke-linecap="round" stroke-linejoin="round"/>
<path d="M170.877 260.336C171.387 257.976 165.742 261.666 161.012 265.105C162.761 266.584 164.645 267.896 166.638 269.026C168.324 266.28 170.385 262.61 170.877 260.336Z" fill="#92B1F5" stroke="#263238" style="fill:#92B1F5;fill:color(display-p3 0.5725 0.6941 0.9608);fill-opacity:1;stroke:#263238;stroke:color(display-p3 0.1490 0.1961 0.2196);stroke-opacity:1;" stroke-width="1.1133" stroke-linecap="round" stroke-linejoin="round"/>
<path d="M183.247 273.373C183.931 273.373 184.634 273.373 185.337 273.315C187.384 273.2 189.418 272.913 191.416 272.458C188.757 268.989 185.096 264.404 184.046 264.057C182.842 263.652 180.52 269.558 179.229 273.142C180.563 273.297 181.904 273.374 183.247 273.373Z" fill="#92B1F5" stroke="#263238" style="fill:#92B1F5;fill:color(display-p3 0.5725 0.6941 0.9608);fill-opacity:1;stroke:#263238;stroke:color(display-p3 0.1490 0.1961 0.2196);stroke-opacity:1;" stroke-width="1.1133" stroke-linecap="round" stroke-linejoin="round"/>
<path d="M156.483 234.288L156.367 233.854C156.185 233.027 155.837 232.245 155.346 231.555C154.854 230.865 154.228 230.281 153.506 229.838C152.784 229.396 151.979 229.103 151.141 228.979C150.303 228.854 149.449 228.9 148.629 229.113C147.809 229.326 147.04 229.703 146.369 230.22C145.698 230.737 145.138 231.384 144.723 232.123C144.307 232.861 144.045 233.676 143.952 234.518C143.859 235.36 143.937 236.212 144.181 237.024L144.335 237.611C145.941 243.488 148.408 249.095 151.656 254.249L163.13 248.787C160.121 244.358 157.875 239.457 156.483 234.288Z" fill="#92B1F5" stroke="#263238" style="fill:#92B1F5;fill:color(display-p3 0.5725 0.6941 0.9608);fill-opacity:1;stroke:#263238;stroke:color(display-p3 0.1490 0.1961 0.2196);stroke-opacity:1;" stroke-width="1.1133" stroke-linecap="round" stroke-linejoin="round"/>
<path d="M209.025 261.746C209.907 260.725 210.724 259.65 211.472 258.528C207.831 257.285 202.378 255.57 200.355 255.754C197.956 255.975 201.212 263.682 202.889 267.314C205.145 265.704 207.205 263.836 209.025 261.746Z" fill="#92B1F5" stroke="#263238" style="fill:#92B1F5;fill:color(display-p3 0.5725 0.6941 0.9608);fill-opacity:1;stroke:#263238;stroke:color(display-p3 0.1490 0.1961 0.2196);stroke-opacity:1;" stroke-width="1.1133" stroke-linecap="round" stroke-linejoin="round"/>
<path d="M209.227 241.161C208.842 241.932 213.553 245.361 216.732 247.567C217.74 244.566 218.551 241.503 219.16 238.396C215.306 239.167 209.603 240.409 209.227 241.161Z" fill="#92B1F5" stroke="#263238" style="fill:#92B1F5;fill:color(display-p3 0.5725 0.6941 0.9608);fill-opacity:1;stroke:#263238;stroke:color(display-p3 0.1490 0.1961 0.2196);stroke-opacity:1;" stroke-width="1.1133" stroke-linecap="round" stroke-linejoin="round"/>
<path d="M220.72 226.911C220.932 224.166 221.038 221.545 221.047 219.137C217.733 220.958 213.803 223.482 213.803 225.139C213.803 226.796 217.483 226.998 220.72 226.911Z" fill="#92B1F5" stroke="#263238" style="fill:#92B1F5;fill:color(display-p3 0.5725 0.6941 0.9608);fill-opacity:1;stroke:#263238;stroke:color(display-p3 0.1490 0.1961 0.2196);stroke-opacity:1;" stroke-width="1.1133" stroke-linecap="round" stroke-linejoin="round"/>
<path d="M168.853 152.365C168.853 152.365 159.499 179.455 164.537 200.534C166.029 206.702 168.926 212.442 173.002 217.307C177.078 222.171 182.222 226.029 188.034 228.578C188.034 228.578 174.363 233.395 177.437 240.803C180.51 248.212 192.292 243.443 196.136 241.044C199.98 238.645 204.806 231.458 205.481 226.661C205.909 224.21 206.071 221.719 205.962 219.233C205.962 219.233 221.54 217.557 232.089 208.925C232.089 208.925 241.443 216.353 248.158 214.917C254.873 213.482 264.458 201.488 263.495 190.708C262.532 179.927 256.318 179.937 252.522 181.575C250.552 182.32 248.755 183.461 247.243 184.927C247.243 184.927 252.753 178.184 247.243 168.868C245.616 166.135 243.389 163.809 240.731 162.064C238.072 160.32 235.051 159.204 231.896 158.801C231.896 158.801 229.006 143.454 220.394 137.703C211.781 131.951 181.078 125.998 168.853 152.365Z" fill="white" style="fill:white;fill-opacity:1;"/>
<mask id="mask2_4876_27497" style="mask-type:luminance" maskUnits="userSpaceOnUse" x="163" y="132" width="101" height="113">
<path d="M168.858 152.364C168.858 152.364 159.503 179.455 164.542 200.533C166.034 206.702 168.931 212.442 173.007 217.306C177.083 222.171 182.227 226.028 188.039 228.577C188.039 228.577 174.368 233.394 177.441 240.802C180.515 248.211 192.297 243.442 196.141 241.043C199.985 238.644 204.811 231.458 205.485 226.66C205.914 224.209 206.075 221.718 205.967 219.232C205.967 219.232 221.545 217.556 232.094 208.924C232.094 208.924 241.448 216.352 248.163 214.916C254.878 213.481 264.463 201.487 263.5 190.707C262.537 179.927 256.323 179.936 252.527 181.574C250.557 182.319 248.76 183.46 247.248 184.927C247.248 184.927 252.758 178.183 247.248 168.867C245.621 166.135 243.394 163.808 240.735 162.064C238.077 160.32 235.055 159.203 231.901 158.8C231.901 158.8 229.011 143.453 220.398 137.702C211.786 131.951 181.083 125.997 168.858 152.364Z" fill="white" style="fill:white;fill-opacity:1;"/>
</mask>
<g mask="url(#mask2_4876_27497)">
<path d="M240.078 161.693C235.631 169.112 229.476 175.362 222.127 179.923C214.778 184.484 206.446 187.224 197.824 187.916C178.749 189.593 168.056 185.836 163.143 183.225C163.739 172.743 165.681 162.382 168.923 152.397C181.148 126.029 211.832 132.021 220.463 137.773C229.095 143.524 231.966 158.871 231.966 158.871C234.838 159.231 237.602 160.193 240.078 161.693ZM252.525 181.587C250.554 182.332 248.758 183.473 247.245 184.94C248.412 183.331 249.181 181.469 249.49 179.506C236.533 185.961 237.544 199.737 235.935 199.737C233.951 199.737 232.968 192.81 232.968 192.81C232.968 192.81 230.492 202.704 215.627 209.641C200.762 216.577 183.952 211.124 183.952 211.124C183.952 211.124 187.42 219.043 178.508 218.051C176.008 217.812 173.61 216.936 171.543 215.508C175.816 221.205 181.492 225.699 188.017 228.552C188.017 228.552 174.347 233.369 177.42 240.777C180.493 248.185 192.285 243.417 196.119 241.018C199.953 238.619 204.789 231.432 205.464 226.635C205.892 224.183 206.054 221.693 205.945 219.207C205.945 219.207 221.523 217.531 232.072 208.899C232.072 208.899 241.427 216.326 248.141 214.891C254.856 213.456 264.442 201.462 263.478 190.681C262.515 179.901 256.32 179.949 252.525 181.587Z" fill="#92B1F5" style="fill:#92B1F5;fill:color(display-p3 0.5725 0.6941 0.9608);fill-opacity:1;"/>
<path opacity="0.5" d="M240.078 161.693C235.631 169.112 229.476 175.362 222.127 179.923C214.778 184.484 206.446 187.224 197.824 187.916C178.749 189.593 168.056 185.836 163.143 183.225C163.739 172.743 165.681 162.382 168.923 152.397C181.148 126.029 211.832 132.021 220.463 137.773C229.095 143.524 231.966 158.871 231.966 158.871C234.838 159.231 237.602 160.193 240.078 161.693ZM252.525 181.587C250.554 182.332 248.758 183.473 247.245 184.94C248.412 183.331 249.181 181.469 249.49 179.506C236.533 185.961 237.544 199.737 235.935 199.737C233.951 199.737 232.968 192.81 232.968 192.81C232.968 192.81 230.492 202.704 215.627 209.641C200.762 216.577 183.952 211.124 183.952 211.124C183.952 211.124 187.42 219.043 178.508 218.051C176.008 217.812 173.61 216.936 171.543 215.508C175.816 221.205 181.492 225.699 188.017 228.552C188.017 228.552 174.347 233.369 177.42 240.777C180.493 248.185 192.285 243.417 196.119 241.018C199.953 238.619 204.789 231.432 205.464 226.635C205.892 224.183 206.054 221.693 205.945 219.207C205.945 219.207 221.523 217.531 232.072 208.899C232.072 208.899 241.427 216.326 248.141 214.891C254.856 213.456 264.442 201.462 263.478 190.681C262.515 179.901 256.32 179.949 252.525 181.587Z" fill="white" style="fill:white;fill-opacity:1;"/>
<path d="M206.014 219.263C200.843 219.401 195.71 218.351 191.009 216.195C186.308 214.039 182.164 210.834 178.895 206.826" stroke="#263238" style="stroke:#263238;stroke:color(display-p3 0.1490 0.1961 0.2196);stroke-opacity:1;" stroke-width="1.1133" stroke-linecap="round" stroke-linejoin="round"/>
</g>
<path d="M168.853 152.365C168.853 152.365 159.499 179.455 164.537 200.534C166.029 206.702 168.926 212.442 173.002 217.307C177.078 222.171 182.222 226.029 188.034 228.578C188.034 228.578 174.363 233.395 177.437 240.803C180.51 248.212 192.292 243.443 196.136 241.044C199.98 238.645 204.806 231.458 205.481 226.661C205.909 224.21 206.071 221.719 205.962 219.233C205.962 219.233 221.54 217.557 232.089 208.925C232.089 208.925 241.443 216.353 248.158 214.917C254.873 213.482 264.458 201.488 263.495 190.708C262.532 179.927 256.318 179.937 252.522 181.575C250.552 182.32 248.755 183.461 247.243 184.927C247.243 184.927 252.753 178.184 247.243 168.868C245.616 166.135 243.389 163.809 240.731 162.064C238.072 160.32 235.051 159.204 231.896 158.801C231.896 158.801 229.006 143.454 220.394 137.703C211.781 131.951 181.078 125.998 168.853 152.365Z" stroke="#263238" style="stroke:#263238;stroke:color(display-p3 0.1490 0.1961 0.2196);stroke-opacity:1;" stroke-width="1.1133" stroke-linecap="round" stroke-linejoin="round"/>
<path d="M247.241 184.969C247.241 184.969 242.212 188.331 239.813 198.639" stroke="#263238" style="stroke:#263238;stroke:color(display-p3 0.1490 0.1961 0.2196);stroke-opacity:1;" stroke-width="1.1133" stroke-linecap="round" stroke-linejoin="round"/>
<path d="M256.481 189.383C255.893 191.136 254.285 192.187 252.897 191.715C251.51 191.242 250.874 189.441 251.462 187.688C252.05 185.934 253.658 184.884 255.046 185.356C256.433 185.828 257.078 187.63 256.481 189.383Z" fill="white" stroke="#263238" style="fill:white;fill-opacity:1;stroke:#263238;stroke:color(display-p3 0.1490 0.1961 0.2196);stroke-opacity:1;" stroke-width="1.1133" stroke-linecap="round" stroke-linejoin="round"/>
<path d="M261.443 192.509C260.856 194.263 259.247 195.313 257.859 194.841C256.472 194.369 255.827 192.567 256.424 190.814C257.021 189.06 258.62 188.01 260.008 188.482C261.395 188.954 262.04 190.756 261.443 192.509Z" fill="white" stroke="#263238" style="fill:white;fill-opacity:1;stroke:#263238;stroke:color(display-p3 0.1490 0.1961 0.2196);stroke-opacity:1;" stroke-width="1.1133" stroke-linecap="round" stroke-linejoin="round"/>
<path d="M262.504 197.169C262.312 197.492 262.032 197.753 261.697 197.923C261.362 198.092 260.986 198.164 260.612 198.128C260.239 198.093 259.883 197.952 259.586 197.722C259.289 197.492 259.063 197.183 258.935 196.83C258.807 196.477 258.781 196.095 258.861 195.728C258.941 195.362 259.124 195.025 259.388 194.758C259.652 194.491 259.986 194.304 260.352 194.219C260.718 194.134 261.1 194.155 261.454 194.279C261.966 194.535 262.36 194.977 262.555 195.515C262.751 196.052 262.733 196.644 262.504 197.169Z" fill="white" stroke="#263238" style="fill:white;fill-opacity:1;stroke:#263238;stroke:color(display-p3 0.1490 0.1961 0.2196);stroke-opacity:1;" stroke-width="1.1133" stroke-linecap="round" stroke-linejoin="round"/>
<path d="M256.174 203.598C254.44 206.729 250.971 208.116 248.418 206.7C245.865 205.284 245.21 201.613 246.944 198.482C248.679 195.352 252.147 193.964 254.7 195.38C257.253 196.797 257.908 200.467 256.174 203.598Z" fill="white" stroke="#263238" style="fill:white;fill-opacity:1;stroke:#263238;stroke:color(display-p3 0.1490 0.1961 0.2196);stroke-opacity:1;" stroke-width="1.1133" stroke-linecap="round" stroke-linejoin="round"/>
<path d="M188.031 228.602C191.261 230.105 194.932 230.363 198.339 229.325" stroke="#263238" style="stroke:#263238;stroke:color(display-p3 0.1490 0.1961 0.2196);stroke-opacity:1;" stroke-width="1.1133" stroke-linecap="round" stroke-linejoin="round"/>
<path d="M177.481 240.824C177.481 240.824 178.445 236.749 184.427 233.878" stroke="#263238" style="stroke:#263238;stroke:color(display-p3 0.1490 0.1961 0.2196);stroke-opacity:1;" stroke-width="1.1133" stroke-linecap="round" stroke-linejoin="round"/>
<path d="M183.476 244.437C183.476 244.437 185.874 238.657 189.949 236.046" stroke="#263238" style="stroke:#263238;stroke:color(display-p3 0.1490 0.1961 0.2196);stroke-opacity:1;" stroke-width="1.1133" stroke-linecap="round" stroke-linejoin="round"/>
<path d="M88.9369 178.124C87.9178 177.311 87.1055 176.268 86.5664 175.081C86.0272 173.894 85.7766 172.596 85.8348 171.294V148.452H26.9147C25.4754 148.506 24.0415 148.248 22.7112 147.696C21.381 147.144 20.1858 146.311 19.2076 145.254C17.2805 143.215 16.2231 140.506 16.2597 137.701C16.2519 135.422 16.9226 133.191 18.1865 131.294L74.6211 42.606C78.86 36.0615 84.4925 32.7892 91.5188 32.7892C95.2963 32.6609 98.9846 33.9534 101.856 36.4115C104.611 38.82 105.989 42.4005 105.989 47.1532V133.366H120.979C122.014 133.303 123.051 133.47 124.015 133.852C124.979 134.235 125.846 134.826 126.557 135.582C127.824 137.067 128.521 138.956 128.521 140.909C128.521 142.862 127.824 144.751 126.557 146.236C125.846 146.992 124.979 147.583 124.015 147.966C123.051 148.348 122.014 148.515 120.979 148.452H105.883V171.294C105.945 172.587 105.707 173.876 105.187 175.061C104.667 176.246 103.88 177.295 102.887 178.124C100.947 179.75 98.4904 180.628 95.9599 180.6C93.4016 180.62 90.9169 179.744 88.9369 178.124ZM85.7963 133.366V53.9835L36.3847 133.366H85.7963Z" fill="#263238" style="fill:#263238;fill:color(display-p3 0.1490 0.1961 0.2196);fill-opacity:1;"/>
<path d="M170.701 178.574C164.927 176.054 159.813 172.232 155.759 167.408C151.688 162.312 148.509 156.563 146.357 150.405C143.917 143.753 142.202 136.857 141.241 129.837C140.239 122.194 139.756 114.491 139.796 106.783C139.796 56.0003 157.137 30.6089 191.819 30.6089C226.5 30.6089 243.799 56.0003 243.716 106.783C243.75 114.455 243.283 122.12 242.319 129.731C241.389 136.752 239.69 143.649 237.252 150.299C235.099 156.457 231.92 162.206 227.849 167.302C223.79 172.133 218.679 175.969 212.907 178.516C206.271 181.45 199.073 182.897 191.819 182.755C184.56 182.901 177.357 181.474 170.701 178.574ZM202.069 163.998C204.971 162.76 207.605 160.97 209.824 158.728C212.071 156.336 213.919 153.597 215.296 150.617C216.816 147.46 218.044 144.17 218.967 140.79C219.938 137.107 220.646 133.36 221.086 129.577C221.606 125.402 221.953 121.577 222.127 118.103C222.3 114.628 222.383 110.855 222.377 106.783C222.377 102.512 222.293 98.5687 222.127 94.9528C221.96 91.337 221.597 87.4578 221.038 83.3152C220.558 79.5345 219.834 75.7887 218.87 72.1015C217.959 68.7552 216.729 65.5035 215.2 62.3907C213.812 59.4579 211.961 56.7677 209.718 54.4236C207.512 52.2265 204.893 50.4879 202.011 49.308C195.424 46.7649 188.126 46.7649 181.539 49.308C178.679 50.4738 176.079 52.1963 173.89 54.3754C171.664 56.7093 169.817 59.3782 168.418 62.2847C166.875 65.3695 165.661 68.6083 164.796 71.9474C163.855 75.6568 163.148 79.4213 162.676 83.2189C162.118 87.4192 161.755 91.3305 161.588 94.9528C161.421 98.5751 161.334 102.519 161.328 106.783C161.328 110.849 161.414 114.638 161.588 118.151C161.761 121.664 162.105 125.518 162.619 129.711C163.063 133.494 163.771 137.241 164.738 140.925C165.648 144.304 166.863 147.593 168.37 150.752C169.733 153.713 171.564 156.436 173.794 158.815C175.997 161.043 178.615 162.817 181.501 164.037C188.094 166.721 195.476 166.721 202.069 164.037V163.998Z" fill="#263238" style="fill:#263238;fill:color(display-p3 0.1490 0.1961 0.2196);fill-opacity:1;"/>
<path d="M332.983 178.123C331.964 177.31 331.151 176.267 330.612 175.08C330.073 173.893 329.822 172.596 329.881 171.293V148.451H270.961C269.521 148.505 268.087 148.247 266.757 147.695C265.427 147.143 264.232 146.31 263.254 145.253C261.326 143.214 260.269 140.505 260.306 137.7C260.298 135.421 260.969 133.191 262.232 131.294L318.667 42.6051C322.867 36.0606 328.484 32.7883 335.516 32.7883C339.314 32.6453 343.025 33.9387 345.911 36.4106C348.667 38.819 350.044 42.3996 350.044 47.1522V133.365H365.034C366.07 133.303 367.106 133.469 368.07 133.852C369.034 134.235 369.902 134.825 370.612 135.581C371.88 137.066 372.576 138.955 372.576 140.908C372.576 142.861 371.88 144.75 370.612 146.236C369.902 146.991 369.034 147.582 368.07 147.965C367.106 148.348 366.07 148.514 365.034 148.451H349.929V171.293C349.991 172.586 349.753 173.875 349.233 175.06C348.713 176.245 347.926 177.294 346.932 178.123C344.993 179.749 342.536 180.628 340.006 180.599C337.447 180.619 334.963 179.744 332.983 178.123ZM329.881 133.365V53.9826L280.469 133.365H329.881Z" fill="#263238" style="fill:#263238;fill:color(display-p3 0.1490 0.1961 0.2196);fill-opacity:1;"/>
<path d="M149.431 138.717C149.431 138.717 139.364 152.859 137.928 167.242C136.493 181.625 138.169 191.211 142.485 194.814C146.801 198.417 151.107 196.972 153.506 193.61C155.905 190.248 152.071 178.504 152.071 178.504C152.071 178.504 156.146 167.242 162.379 159.333C168.612 151.424 169.807 150.219 169.807 150.219C169.807 150.219 159.017 137.994 149.431 138.717Z" fill="white" style="fill:white;fill-opacity:1;"/>
<mask id="mask3_4876_27497" style="mask-type:luminance" maskUnits="userSpaceOnUse" x="137" y="138" width="33" height="59">
<path d="M149.431 138.718C149.431 138.718 139.364 152.86 137.928 167.243C136.493 181.626 138.169 191.212 142.485 194.815C146.801 198.418 151.107 196.973 153.506 193.611C155.905 190.249 152.071 178.505 152.071 178.505C152.071 178.505 156.146 167.243 162.379 159.334C168.612 151.425 169.807 150.22 169.807 150.22C169.807 150.22 159.017 137.995 149.431 138.718Z" fill="white" style="fill:white;fill-opacity:1;"/>
</mask>
<g mask="url(#mask3_4876_27497)">
<path d="M149.431 138.718C147.234 141.963 145.286 145.371 143.603 148.91C148.419 150.837 155.886 154.787 160.625 161.781C161.203 160.943 161.801 160.114 162.417 159.334C168.65 151.425 169.845 150.22 169.845 150.22C169.845 150.22 159.017 137.995 149.431 138.718Z" fill="#92B1F5" style="fill:#92B1F5;fill:color(display-p3 0.5725 0.6941 0.9608);fill-opacity:1;"/>
<path opacity="0.5" d="M149.431 138.718C147.234 141.963 145.286 145.371 143.603 148.91C148.419 150.837 155.886 154.787 160.625 161.781C161.203 160.943 161.801 160.114 162.417 159.334C168.65 151.425 169.845 150.22 169.845 150.22C169.845 150.22 159.017 137.995 149.431 138.718Z" fill="white" style="fill:white;fill-opacity:1;"/>
</g>
<path d="M149.431 138.717C149.431 138.717 139.364 152.859 137.928 167.242C136.493 181.625 138.169 191.211 142.485 194.814C146.801 198.417 151.107 196.972 153.506 193.61C155.905 190.248 152.071 178.504 152.071 178.504C152.071 178.504 156.146 167.242 162.379 159.333C168.612 151.424 169.807 150.219 169.807 150.219C169.807 150.219 159.017 137.994 149.431 138.717Z" stroke="#263238" style="stroke:#263238;stroke:color(display-p3 0.1490 0.1961 0.2196);stroke-opacity:1;" stroke-width="1.1133" stroke-linecap="round" stroke-linejoin="round"/>
<path d="M142.486 194.805C141.308 191.662 140.736 188.324 140.8 184.969" stroke="#263238" style="stroke:#263238;stroke:color(display-p3 0.1490 0.1961 0.2196);stroke-opacity:1;" stroke-width="1.1133" stroke-linecap="round" stroke-linejoin="round"/>
<path d="M148.949 196.246C148.949 196.246 146.56 192.17 146.319 185.215" stroke="#263238" style="stroke:#263238;stroke:color(display-p3 0.1490 0.1961 0.2196);stroke-opacity:1;" stroke-width="1.1133" stroke-linecap="round" stroke-linejoin="round"/>
<path d="M152.554 164.353C152.554 161.829 147.737 156.896 141.042 154.719C140.142 157.066 139.398 159.47 138.816 161.916C141.418 162.361 143.944 163.168 146.321 164.314C149.915 166.27 152.554 167.234 152.554 164.353Z" fill="#92B1F5" stroke="#263238" style="fill:#92B1F5;fill:color(display-p3 0.5725 0.6941 0.9608);fill-opacity:1;stroke:#263238;stroke:color(display-p3 0.1490 0.1961 0.2196);stroke-opacity:1;" stroke-width="1.1133" stroke-linecap="round" stroke-linejoin="round"/>
<path d="M148.839 139.565C147.286 141.933 145.858 144.38 144.562 146.897C146.589 147.433 148.534 148.243 150.342 149.305C157.769 153.611 159.205 154.122 156.816 147.86C155.371 143.93 151.922 141.261 148.839 139.565Z" fill="#92B1F5" stroke="#263238" style="fill:#92B1F5;fill:color(display-p3 0.5725 0.6941 0.9608);fill-opacity:1;stroke:#263238;stroke:color(display-p3 0.1490 0.1961 0.2196);stroke-opacity:1;" stroke-width="1.1133" stroke-linecap="round" stroke-linejoin="round"/>
<path d="M228.282 131.729C228.282 131.729 239.689 144.812 242.531 158.993C245.373 173.173 244.65 182.875 240.7 186.873C236.751 190.871 232.329 189.869 229.612 186.757C226.895 183.645 229.612 171.594 229.612 171.594C229.612 171.594 224.448 160.775 217.473 153.511C210.499 146.247 209.179 145.178 209.179 145.178C209.179 145.178 218.668 131.951 228.282 131.729Z" fill="white" style="fill:white;fill-opacity:1;"/>
<mask id="mask4_4876_27497" style="mask-type:luminance" maskUnits="userSpaceOnUse" x="209" y="131" width="36" height="59">
<path d="M228.283 131.729C228.283 131.729 239.69 144.812 242.532 158.993C245.374 173.173 244.651 182.875 240.701 186.873C236.752 190.871 232.33 189.869 229.613 186.757C226.896 183.645 229.613 171.594 229.613 171.594C229.613 171.594 224.449 160.775 217.474 153.511C210.5 146.247 209.18 145.178 209.18 145.178C209.18 145.178 218.669 131.951 228.283 131.729Z" fill="white" style="fill:white;fill-opacity:1;"/>
</mask>
<g mask="url(#mask4_4876_27497)">
<path d="M228.279 131.729C218.645 131.951 209.127 145.216 209.127 145.216C209.127 145.216 210.437 146.295 217.422 153.549C218.728 154.925 219.956 156.372 221.102 157.885C224.747 151.727 229.955 146.642 236.198 143.145C233.901 139.113 231.251 135.293 228.279 131.729Z" fill="#92B1F5" style="fill:#92B1F5;fill:color(display-p3 0.5725 0.6941 0.9608);fill-opacity:1;"/>
<path opacity="0.5" d="M228.279 131.729C218.645 131.951 209.127 145.216 209.127 145.216C209.127 145.216 210.437 146.295 217.422 153.549C218.728 154.925 219.956 156.372 221.102 157.885C224.747 151.727 229.955 146.642 236.198 143.145C233.901 139.113 231.251 135.293 228.279 131.729Z" fill="white" style="fill:white;fill-opacity:1;"/>
</g>
<path d="M228.282 131.729C228.282 131.729 239.689 144.812 242.531 158.993C245.373 173.173 244.65 182.875 240.7 186.873C236.751 190.871 232.329 189.869 229.612 186.757C226.895 183.645 229.612 171.594 229.612 171.594C229.612 171.594 224.448 160.775 217.473 153.511C210.499 146.247 209.179 145.178 209.179 145.178C209.179 145.178 218.668 131.951 228.282 131.729Z" stroke="#263238" style="stroke:#263238;stroke:color(display-p3 0.1490 0.1961 0.2196);stroke-opacity:1;" stroke-width="1.1133" stroke-linecap="round" stroke-linejoin="round"/>
<path d="M240.702 186.869C241.566 183.63 241.808 180.257 241.415 176.927" stroke="#263238" style="stroke:#263238;stroke:color(display-p3 0.1490 0.1961 0.2196);stroke-opacity:1;" stroke-width="1.1133" stroke-linecap="round" stroke-linejoin="round"/>
<path d="M234.398 188.93C234.398 188.93 236.393 184.643 235.949 177.697" stroke="#263238" style="stroke:#263238;stroke:color(display-p3 0.1490 0.1961 0.2196);stroke-opacity:1;" stroke-width="1.1133" stroke-linecap="round" stroke-linejoin="round"/>
<path d="M227.694 157.543C227.453 155.029 231.76 149.653 238.214 146.869C239.331 149.114 240.296 151.432 241.104 153.805C238.564 154.514 236.133 155.567 233.879 156.936C230.507 159.2 227.983 160.376 227.694 157.543Z" fill="#92B1F5" stroke="#263238" style="fill:#92B1F5;fill:color(display-p3 0.5725 0.6941 0.9608);fill-opacity:1;stroke:#263238;stroke:color(display-p3 0.1490 0.1961 0.2196);stroke-opacity:1;" stroke-width="1.1133" stroke-linecap="round" stroke-linejoin="round"/>
<path d="M228.947 132.525C230.719 134.711 232.372 136.991 233.899 139.355C231.927 140.085 230.063 141.08 228.36 142.313C221.394 147.342 220.007 147.958 221.78 141.523C222.888 137.506 226.047 134.509 228.947 132.525Z" fill="#92B1F5" stroke="#263238" style="fill:#92B1F5;fill:color(display-p3 0.5725 0.6941 0.9608);fill-opacity:1;stroke:#263238;stroke:color(display-p3 0.1490 0.1961 0.2196);stroke-opacity:1;" stroke-width="1.1133" stroke-linecap="round" stroke-linejoin="round"/>
<path d="M148.483 126.473C148.483 126.473 145.516 136.483 146.634 140.558C147.751 144.633 152.934 140.933 158.127 145.375C163.319 149.816 168.127 157.831 187.789 159.315C207.452 160.798 219.32 150.191 223.434 144.257C227.548 138.323 227.143 131.28 234.185 130.914C241.228 130.548 235.303 116.82 233.078 114.595C233.078 114.595 246.796 94.2 246.796 89.0074C246.796 83.8148 233.819 84.9227 217.895 89.7492C217.895 89.7492 206.026 83.4391 184.514 87.1481C163.001 90.8571 156.701 97.1672 156.701 97.1672C156.701 97.1672 129.996 100.5 128.146 103.834C126.297 107.167 131.798 121.281 148.483 126.473Z" fill="white" style="fill:white;fill-opacity:1;"/>
<mask id="mask5_4876_27497" style="mask-type:luminance" maskUnits="userSpaceOnUse" x="127" y="85" width="120" height="75">
<path d="M148.48 126.488C148.48 126.488 145.513 136.498 146.631 140.573C147.748 144.648 152.931 140.949 158.124 145.39C163.316 149.831 168.124 157.846 187.786 159.33C207.449 160.813 219.318 150.207 223.431 144.272C227.545 138.338 227.14 131.296 234.182 130.929C241.225 130.563 235.3 116.835 233.075 114.61C233.075 114.61 246.793 94.2151 246.793 89.0225C246.793 83.8299 233.816 84.9378 217.892 89.7643C217.892 89.7643 206.023 83.4542 184.511 87.1632C162.999 90.8722 156.698 97.1823 156.698 97.1823C156.698 97.1823 129.993 100.516 128.144 103.849C126.294 107.182 131.795 121.296 148.48 126.488Z" fill="white" style="fill:white;fill-opacity:1;"/>
</mask>
<g mask="url(#mask5_4876_27497)">
<path d="M234.155 130.941C241.207 130.565 235.272 116.847 233.047 114.622C233.047 114.622 235.657 110.768 238.596 105.951C230.629 101.789 222.806 99.4772 220.725 101.818C216.245 106.847 218.683 116.481 220.725 125.903C222.767 135.324 214.608 139.342 208.904 147.492C203.201 155.642 195.061 146.673 195.061 146.673C192.171 158.494 179.984 150.748 179.984 150.748C170.62 147.858 154.734 138.533 157.99 132.01C161.246 125.488 162.065 119.381 156.362 114.092C150.659 108.803 127.913 104.4 127.913 104.4C126.719 108.417 132.489 121.577 148.491 126.558C148.491 126.558 145.524 136.567 146.641 140.642C147.759 144.717 152.942 141.018 158.135 145.459C163.327 149.9 168.134 157.916 187.797 159.399C207.459 160.883 219.328 150.276 223.442 144.342C227.555 138.407 227.103 131.307 234.155 130.941Z" fill="#92B1F5" style="fill:#92B1F5;fill:color(display-p3 0.5725 0.6941 0.9608);fill-opacity:1;"/>
<path opacity="0.5" d="M234.155 130.941C241.207 130.565 235.272 116.847 233.047 114.622C233.047 114.622 235.657 110.768 238.596 105.951C230.629 101.789 222.806 99.4772 220.725 101.818C216.245 106.847 218.683 116.481 220.725 125.903C222.767 135.324 214.608 139.342 208.904 147.492C203.201 155.642 195.061 146.673 195.061 146.673C192.171 158.494 179.984 150.748 179.984 150.748C170.62 147.858 154.734 138.533 157.99 132.01C161.246 125.488 162.065 119.381 156.362 114.092C150.659 108.803 127.913 104.4 127.913 104.4C126.719 108.417 132.489 121.577 148.491 126.558C148.491 126.558 145.524 136.567 146.641 140.642C147.759 144.717 152.942 141.018 158.135 145.459C163.327 149.9 168.134 157.916 187.797 159.399C207.459 160.883 219.328 150.276 223.442 144.342C227.555 138.407 227.103 131.307 234.155 130.941Z" fill="white" style="fill:white;fill-opacity:1;"/>
<path d="M205.144 133.179C205.424 135.53 200.202 138.063 193.507 138.844C186.811 139.624 181.147 138.352 180.867 135.953C180.588 133.555 185.809 131.079 192.514 130.298C199.219 129.518 204.874 130.838 205.144 133.179Z" fill="#92B1F5" style="fill:#92B1F5;fill:color(display-p3 0.5725 0.6941 0.9608);fill-opacity:1;"/>
<path opacity="0.5" d="M205.144 133.179C205.424 135.53 200.202 138.063 193.507 138.844C186.811 139.624 181.147 138.352 180.867 135.953C180.588 133.555 185.809 131.079 192.514 130.298C199.219 129.518 204.874 130.838 205.144 133.179Z" fill="white" style="fill:white;fill-opacity:1;"/>
</g>
<path d="M148.483 126.473C148.483 126.473 145.516 136.483 146.634 140.558C147.751 144.633 152.934 140.933 158.127 145.375C163.319 149.816 168.127 157.831 187.789 159.315C207.452 160.798 219.32 150.191 223.434 144.257C227.548 138.323 227.143 131.28 234.185 130.914C241.228 130.548 235.303 116.82 233.078 114.595C233.078 114.595 246.796 94.2 246.796 89.0074C246.796 83.8148 233.819 84.9227 217.895 89.7492C217.895 89.7492 206.026 83.4391 184.514 87.1481C163.001 90.8571 156.701 97.1672 156.701 97.1672C156.701 97.1672 129.996 100.5 128.146 103.834C126.297 107.167 131.798 121.281 148.483 126.473Z" stroke="#263238" style="stroke:#263238;stroke:color(display-p3 0.1490 0.1961 0.2196);stroke-opacity:1;" stroke-width="1.1133" stroke-miterlimit="10"/>
<path d="M225.191 96.7929C215.557 103.267 218.958 109.741 223.264 113.334C225.894 115.531 230.133 115.261 233.033 114.644C233.033 114.644 246.751 94.2496 246.751 89.057C246.761 89.0088 234.776 90.2708 225.191 96.7929Z" fill="#92B1F5" stroke="#263238" style="fill:#92B1F5;fill:color(display-p3 0.5725 0.6941 0.9608);fill-opacity:1;stroke:#263238;stroke:color(display-p3 0.1490 0.1961 0.2196);stroke-opacity:1;" stroke-width="1.1133" stroke-miterlimit="10"/>
<path d="M127.907 104.328C126.712 108.346 132.483 121.505 148.484 126.486C148.484 126.486 160.7 125.291 156.625 115.465C152.819 106.294 133.581 104.01 127.907 104.328Z" fill="#92B1F5" stroke="#263238" style="fill:#92B1F5;fill:color(display-p3 0.5725 0.6941 0.9608);fill-opacity:1;stroke:#263238;stroke:color(display-p3 0.1490 0.1961 0.2196);stroke-opacity:1;" stroke-width="1.1133" stroke-miterlimit="10"/>
<path d="M184.46 87.1688C183.198 87.3904 181.984 87.6216 180.818 87.8528C182.745 97.5829 185.915 113.787 188.747 113.787C191.579 113.787 193.747 96.0222 194.672 86.0706C191.248 86.2147 187.836 86.5816 184.46 87.1688Z" fill="#92B1F5" stroke="#263238" style="fill:#92B1F5;fill:color(display-p3 0.5725 0.6941 0.9608);fill-opacity:1;stroke:#263238;stroke:color(display-p3 0.1490 0.1961 0.2196);stroke-opacity:1;" stroke-width="1.1133" stroke-miterlimit="10"/>
<path d="M173.411 110.891C176.359 109.156 175.916 96.122 175.444 89.0508C172.401 89.8067 169.406 90.7428 166.475 91.8542C167.544 98.4726 170.261 112.74 173.411 110.891Z" fill="#92B1F5" stroke="#263238" style="fill:#92B1F5;fill:color(display-p3 0.5725 0.6941 0.9608);fill-opacity:1;stroke:#263238;stroke:color(display-p3 0.1490 0.1961 0.2196);stroke-opacity:1;" stroke-width="1.1133" stroke-miterlimit="10"/>
<path d="M201.933 104.908C204.948 105.968 206.644 95.1295 207.598 86.7867C204.552 86.2903 201.473 86.0294 198.388 86.0063C198.292 92.856 198.667 103.761 201.933 104.908Z" fill="#92B1F5" stroke="#263238" style="fill:#92B1F5;fill:color(display-p3 0.5725 0.6941 0.9608);fill-opacity:1;stroke:#263238;stroke:color(display-p3 0.1490 0.1961 0.2196);stroke-opacity:1;" stroke-width="1.1133" stroke-miterlimit="10"/>
<path d="M197.899 142.417C195.086 141.677 192.096 142.046 189.547 143.448C189.435 143.512 189.34 143.602 189.269 143.71C189.198 143.818 189.153 143.941 189.138 144.069C189.123 144.197 189.139 144.327 189.183 144.448C189.227 144.57 189.299 144.679 189.393 144.768L194.508 149.584C194.604 149.674 194.72 149.74 194.846 149.776C194.973 149.812 195.106 149.818 195.235 149.793C195.364 149.767 195.485 149.711 195.588 149.63C195.691 149.549 195.773 149.444 195.828 149.324L198.448 143.544C198.495 143.435 198.518 143.317 198.515 143.198C198.512 143.079 198.484 142.962 198.432 142.855C198.38 142.748 198.305 142.653 198.213 142.578C198.121 142.502 198.014 142.447 197.899 142.417Z" fill="#92B1F5" stroke="#263238" style="fill:#92B1F5;fill:color(display-p3 0.5725 0.6941 0.9608);fill-opacity:1;stroke:#263238;stroke:color(display-p3 0.1490 0.1961 0.2196);stroke-opacity:1;" stroke-width="1.1133" stroke-linecap="round" stroke-linejoin="round"/>
<path d="M185.738 134.377C186.442 136.236 186.162 138.067 185.112 138.462C184.062 138.857 182.636 137.681 181.923 135.832C181.21 133.982 181.499 132.142 182.549 131.747C183.6 131.352 185.025 132.527 185.738 134.377Z" fill="#263238" style="fill:#263238;fill:color(display-p3 0.1490 0.1961 0.2196);fill-opacity:1;"/>
<path d="M199.691 133.05C199.325 134.977 199.922 136.759 201.03 136.961C202.138 137.164 203.332 135.757 203.698 133.801C204.064 131.846 203.467 130.102 202.359 129.89C201.251 129.678 200.057 131.104 199.691 133.05Z" fill="#263238" style="fill:#263238;fill:color(display-p3 0.1490 0.1961 0.2196);fill-opacity:1;"/>
<path d="M195.823 149.317C195.823 149.317 188.983 158.604 182.75 149.259" stroke="#263238" style="stroke:#263238;stroke:color(display-p3 0.1490 0.1961 0.2196);stroke-opacity:1;" stroke-width="1.1133" stroke-linecap="round" stroke-linejoin="round"/>
<path d="M194.506 149.572C194.506 149.572 199.053 154.282 203.851 151.643C208.648 149.003 205.777 144.899 205.777 144.899" stroke="#263238" style="stroke:#263238;stroke:color(display-p3 0.1490 0.1961 0.2196);stroke-opacity:1;" stroke-width="1.1133" stroke-linecap="round" stroke-linejoin="round"/>
<path d="M173.647 126.956C173.647 126.956 175.324 120.963 183.233 122.399" stroke="#263238" style="stroke:#263238;stroke:color(display-p3 0.1490 0.1961 0.2196);stroke-opacity:1;" stroke-width="3.33991" stroke-linecap="round" stroke-linejoin="round"/>
<path d="M197.619 121.451C197.619 121.451 203.611 117.858 209.122 123.609" stroke="#263238" style="stroke:#263238;stroke:color(display-p3 0.1490 0.1961 0.2196);stroke-opacity:1;" stroke-width="3.33991" stroke-linecap="round" stroke-linejoin="round"/>
<path d="M169.094 143.034L174.845 144.469" stroke="#263238" style="stroke:#263238;stroke:color(display-p3 0.1490 0.1961 0.2196);stroke-opacity:1;" stroke-width="1.1133" stroke-miterlimit="10" stroke-linecap="round"/>
<path d="M174.123 146.625L169.094 147.579" stroke="#263238" style="stroke:#263238;stroke:color(display-p3 0.1490 0.1961 0.2196);stroke-opacity:1;" stroke-width="1.1133" stroke-miterlimit="10" stroke-linecap="round"/>
<path d="M175.084 149.259L171.49 151.176" stroke="#263238" style="stroke:#263238;stroke:color(display-p3 0.1490 0.1961 0.2196);stroke-opacity:1;" stroke-width="1.1133" stroke-miterlimit="10" stroke-linecap="round"/>
<path d="M211.52 140.384L216.558 139.18" stroke="#263238" style="stroke:#263238;stroke:color(display-p3 0.1490 0.1961 0.2196);stroke-opacity:1;" stroke-width="1.1133" stroke-miterlimit="10" stroke-linecap="round"/>
<path d="M212.481 142.79H215.834" stroke="#263238" style="stroke:#263238;stroke:color(display-p3 0.1490 0.1961 0.2196);stroke-opacity:1;" stroke-width="1.1133" stroke-miterlimit="10" stroke-linecap="round"/>
<path d="M213.195 145.187L217.752 146.381" stroke="#263238" style="stroke:#263238;stroke:color(display-p3 0.1490 0.1961 0.2196);stroke-opacity:1;" stroke-width="1.1133" stroke-miterlimit="10" stroke-linecap="round"/>
</svg>
